<svg width="44" height="44" viewBox="0 0 44 44" fill="none" xmlns="http://www.w3.org/2000/svg">
<path d="M40.6588 14.7484C40.7957 14.0151 40.8654 13.2712 40.8663 12.5257C40.8615 8.56275 38.9789 4.83503 35.789 2.47243C32.599 0.109841 28.4774 -0.609852 24.6721 0.531337C20.8674 1.67294 17.8271 4.54105 16.4728 8.26653C14.7783 7.59367 12.8741 7.68831 11.2548 8.52528C9.63556 9.36289 8.46061 10.8598 8.03505 12.629C4.86711 13.1016 2.15648 15.1461 0.836777 18.0575C-0.482265 20.9693 -0.229649 24.3494 1.50813 27.0332C3.2456 29.7176 6.23056 31.3382 9.43382 31.3366H17.2918C17.853 31.3366 18.3721 31.0378 18.6526 30.5529C18.9334 30.0677 18.9334 29.4704 18.6526 28.9853C18.3722 28.5001 17.853 28.2016 17.2918 28.2016H9.43415C7.18822 28.2016 5.11265 27.0064 3.98985 25.0663C2.86672 23.1262 2.86672 20.7362 3.98985 18.7964C5.11265 16.8563 7.18822 15.6611 9.43415 15.6611C9.85095 15.6611 10.2509 15.496 10.5453 15.2021C10.84 14.9081 11.0055 14.5092 11.0055 14.0938C11.0068 13.2665 11.3361 12.4731 11.921 11.8868C12.5065 11.3005 13.3 10.9691 14.1294 10.9636C14.9588 10.9588 15.7568 11.2808 16.349 11.8597C16.6243 12.1304 16.9896 12.29 17.3753 12.3087C17.761 12.3278 18.1406 12.2041 18.4408 11.9618C18.7411 11.7192 18.9415 11.3748 19.0034 10.9943C19.4263 8.45659 20.8737 6.20291 23.0082 4.75897C25.1427 3.31504 27.7772 2.80696 30.2975 3.35382C32.8177 3.90038 35.0031 5.45353 36.3435 7.65139C37.6843 9.84892 38.0628 12.4987 37.3909 14.9825C37.3031 15.3016 37.3183 15.6401 37.4349 15.9499C37.5512 16.2597 37.763 16.5246 38.0402 16.7071C39.549 17.7055 40.5533 19.3049 40.7946 21.095C41.0362 22.8852 40.4925 24.6923 39.302 26.0538C38.1118 27.4147 36.3909 28.1978 34.5795 28.2026L29.8646 28.2016C29.3033 28.2016 28.7845 28.5001 28.5037 28.9853C28.2229 29.4705 28.2229 30.0677 28.5037 30.5529C28.7845 31.0378 29.3033 31.3366 29.8646 31.3366H34.5792C37.1704 31.3343 39.6462 30.2683 41.4254 28.3896C43.2047 26.5108 44.1303 23.9848 43.9852 21.4044C43.8401 18.8241 42.637 16.4169 40.6582 14.7485L40.6588 14.7484Z" fill="black"/>
<path d="M23.608 14.1658C23.1894 14.1658 22.7884 14.3311 22.4931 14.6256C22.1971 14.92 22.031 15.3196 22.031 15.7357V38.6376L16.8384 33.4675C16.4377 33.0821 15.8628 32.9359 15.326 33.0824C14.7889 33.2293 14.3694 33.647 14.2219 34.1818C14.0747 34.7164 14.2216 35.2887 14.6086 35.6877L22.4931 43.5385C22.7891 43.8339 23.1907 43.9999 23.6096 43.9999C24.0288 43.9999 24.4304 43.8339 24.7265 43.5385L32.6109 35.6877C32.9976 35.2888 33.1448 34.7164 32.9973 34.1818C32.8501 33.647 32.4306 33.2293 31.8934 33.0824C31.3566 32.9359 30.7818 33.0821 30.3811 33.4675L25.1849 38.6379V15.736C25.1849 15.3196 25.0188 14.92 24.7231 14.6259C24.4274 14.3314 24.0261 14.1661 23.6082 14.1661L23.608 14.1658Z" fill="black"/>
</svg>
