<svg width="30" height="36" viewBox="0 0 30 36" fill="none" xmlns="http://www.w3.org/2000/svg">
<path fill-rule="evenodd" clip-rule="evenodd" d="M21.25 20.2597H8.75C3.91743 20.2597 0 24.228 0 29.1234V31.6558C0 32.6638 0.396207 33.6298 1.09879 34.3415C1.80247 35.0543 2.75614 35.4545 3.75 35.4545H26.25C27.245 35.4545 28.1986 35.0543 28.9024 34.3415C29.6049 33.6298 30 32.6637 30 31.6558V29.1234C30 24.228 26.0823 20.2597 21.25 20.2597ZM15 0C10.1711 0 6.25 3.97221 6.25 8.86364C6.25 13.7551 10.1711 17.7273 15 17.7273C19.8298 17.7273 23.75 13.7551 23.75 8.86364C23.75 3.97221 19.8298 0 15 0Z" fill="black"/>
</svg>
