<svg width="30" height="30" viewBox="0 0 30 30" fill="none" xmlns="http://www.w3.org/2000/svg">
<path d="M29.7242 0.274953C29.5483 0.0990609 29.3096 0 29.0608 0C28.812 0 28.5734 0.0990609 28.3978 0.274953L25.1733 3.49945L16.7653 1.49371C16.4475 1.41884 16.1137 1.51464 15.8842 1.74675L0.271795 17.3449C0.0939437 17.524 -0.00381149 17.7673 0.000113805 18.0197C-0.00152084 18.2688 0.0965549 18.5084 0.271795 18.6853L11.3145 29.728C11.4914 29.9032 11.731 30.0013 11.9801 29.9996C12.2329 30.0068 12.4777 29.9084 12.6549 29.728L28.2532 14.1156C28.482 13.888 28.5778 13.5588 28.5062 13.244L26.6035 4.72306L29.725 1.60151C29.9009 1.42594 30 1.18729 30 0.938491C30 0.689693 29.9009 0.451038 29.725 0.275145L29.7242 0.274953ZM22.3986 9.70062C22.1201 9.97949 21.7421 10.1364 21.3478 10.1364C20.9536 10.1367 20.5756 9.98015 20.2967 9.7016C20.0178 9.42306 19.8612 9.04479 19.8612 8.65082C19.8612 8.25654 20.0178 7.8786 20.2967 7.60003C20.5756 7.32116 20.9535 7.16489 21.3478 7.16489C21.7421 7.16522 22.12 7.32182 22.3986 7.60069C22.6755 7.87988 22.8312 8.2575 22.8312 8.6508C22.8312 9.0441 22.6755 9.42142 22.3986 9.70062Z" fill="black"/>
</svg>
