<svg width="44" height="1930" viewBox="0 0 44 1930" fill="none" xmlns="http://www.w3.org/2000/svg">
<path fill-rule="evenodd" clip-rule="evenodd" d="M21.738 1829.3C21.738 1827.2 21.97 1826.7 22.028 1825.1C22.608 1825.2 23.246 1827.3 22.84 1822.6C23.072 1823 23.188 1823.8 23.42 1824.3C23.362 1827.3 22.956 1828.3 22.434 1828.5C22.492 1833.3 23.42 1832.6 23.246 1838.5C22.666 1835.8 22.434 1831.1 21.738 1829.3Z" fill="#EBFF00"/>
<path fill-rule="evenodd" clip-rule="evenodd" d="M28.002 1912.9C28.466 1916.3 29.046 1918.8 29.394 1922.9C30.264 1922.4 30.38 1926.5 30.786 1928.8C29.974 1931.7 29.336 1927.6 28.814 1924.6C28.582 1923.2 28.292 1922.5 28.234 1922.1C28.176 1921.5 28.292 1920.2 28.234 1919.6C28.234 1919 27.538 1915.2 28.002 1912.9Z" fill="#EBFF00"/>
<path fill-rule="evenodd" clip-rule="evenodd" d="M29.51 1772.4C29.684 1770.3 29.974 1770.9 30.322 1771.6C30.67 1769.6 30.09 1770 30.206 1767.4C30.728 1768.2 31.192 1769.3 31.192 1773.3C30.612 1773 29.858 1774.1 29.51 1772.4Z" fill="#EBFF00"/>
<path fill-rule="evenodd" clip-rule="evenodd" d="M34.672 934C34.034 933.7 33.338 932.6 32.7 932.3C32.12 932.1 31.598 932.6 31.018 932.3C30.496 932 29.974 931 29.51 930.6C29.104 930.3 28.756 930.8 28.408 930.6C26.262 929.7 24.058 926.4 21.854 928.1C21.1 924.7 19.882 925.6 18.78 924.8C18.548 924.6 18.258 923.3 17.968 923.1C17.214 922.6 16.866 922.5 16.46 921.4C15.996 920.4 16.344 924.1 15.88 923.1C15.3 919.4 13.792 918.3 12.806 917.2C12.516 916.9 12.11 913.5 11.994 917.2C12.284 917.6 12.806 916.1 12.69 918.9C11.762 919.2 11.182 917.3 11.008 913C12.11 911 14.372 912.1 15.59 913C16.982 914 18.432 912.7 19.766 913.8C20.114 914.1 20.404 915.2 20.752 915.5C21.274 915.8 21.854 915.2 22.434 915.5C22.782 915.7 23.188 916.9 23.536 917.2C23.942 917.5 24.348 916.9 24.812 917.2C25.276 917.5 25.74 918.6 26.204 918.9C26.726 919.2 27.306 918.7 27.886 918.9C29.046 919.3 30.322 920.8 31.482 921.4C32.41 921.9 33.338 921.4 34.15 922.2C34.556 922.6 34.788 923.8 35.136 923.9C35.426 924 35.774 923.2 36.122 923.1C36.876 922.8 37.456 923.7 37.92 923.9C38.094 924 38.268 923.1 38.326 923.1C38.5 923.1 38.616 923.9 38.906 923.9C40.356 924.2 42.038 924.9 43.662 926.4C44.01 923.6 43.72 922 43.952 918C40.704 911.1 35.31 910.8 31.83 913C31.54 909.2 30.264 911.2 29.742 908.8C29.742 906.8 29.742 904.9 29.742 902.9C27.944 902.9 27.19 901.2 25.566 901.2C25.334 898.8 24.522 900.3 24.29 897.9C23.71 897.5 22.782 899.2 22.782 895.4C23.71 894.4 24.58 896.6 25.566 897.1C25.972 897.3 26.494 896.7 26.958 897.1C27.306 897.4 27.712 898.6 28.06 898.8C29.046 899.3 29.974 898.5 30.96 898.8C32.816 899.3 35.426 901.3 37.108 901.3C37.34 901.3 37.456 900.2 37.688 900.5C37.688 900.5 37.804 902.1 37.804 902.2C37.92 902.5 38.094 902.1 38.21 902.2C39.312 902.8 40.298 902.1 41.284 903C42.038 903.7 42.734 906.9 43.488 904.7C43.836 902.1 43.314 899.6 43.778 898C43.198 894.4 42.502 892.8 41.69 892.1C39.022 890.1 35.716 893 32.526 892.1C31.25 891.7 30.032 890.3 28.756 889.6C27.132 888.7 25.566 889 24.174 887.9C23.884 887.7 23.536 886.4 23.188 886.2C22.318 885.6 21.854 886.1 21.39 884.5C20.984 883.9 20.868 885.4 20.578 885.3C18.606 881.9 15.532 880.6 12.922 878.6C12.168 875.1 10.37 875.8 9.84798 872.8C9.61598 871.5 9.15198 872.4 9.15198 870.3C10.486 865.2 12.458 868.8 14.72 869.5C16.286 870 17.678 868.3 18.49 871.2C20.52 869.3 22.434 873.7 24.638 874.5C27.19 875.5 29.8 874.5 32.294 873.7C32.41 872.1 32.526 870.6 32.584 868.7C32.178 862.7 30.96 864.1 29.684 863.7C28.524 863.3 27.248 862.2 26.204 862.9C25.682 862 25.798 865 25.392 864.6C25.276 862.1 24.58 862.9 24.116 862.1C23.652 861.7 23.594 863.3 23.304 863.8C23.072 861.6 22.434 861.6 22.028 861.3C21.564 860.9 20.868 860.4 20.346 860.5C20.114 860.5 19.766 861.5 19.534 861.3C18.258 860.8 17.04 858.1 15.764 858C15.416 858 15.474 860.6 15.068 860.5C14.778 860.2 14.952 857.3 14.488 858C13.618 858.2 12.806 856.2 11.994 855.5C11.646 855.2 11.24 855.8 10.892 855.5C10.486 855.2 10.08 854.3 9.61598 853.8C9.20998 853.4 9.26798 854.1 9.03598 853.8C8.86198 853.5 8.68798 852.3 8.45598 852.1C8.04998 851.7 7.46998 851.8 7.06398 851.3C6.71598 850.9 5.96198 851.3 5.96198 848C8.45598 846.6 10.95 849.8 12.922 849.7C13.212 849.7 13.502 848.8 13.734 848.9C14.14 849.1 14.546 850.4 15.01 850.6C15.184 850.7 15.532 849.8 15.706 849.8C16.518 849.8 17.446 851.6 18.374 852.3C19.65 853.3 20.984 854.6 22.26 854.8C22.898 854.9 23.942 856.2 24.638 856.5C25.044 856.7 25.392 856.2 25.74 856.5C26.03 856.7 26.32 857.9 26.552 858.2C27.48 859.2 28.466 857.8 29.336 860.7C30.148 860.6 31.366 860 32.526 860.7C33.106 861.1 33.57 862.8 34.034 862.4C34.556 861.9 35.252 859.7 35.31 855.7C34.672 851.2 33.512 851.1 32.41 850.7C31.888 850.5 31.25 851 30.728 850.7C29.162 849.9 27.306 848.6 25.74 848.2C25.508 848.1 25.276 849.1 25.044 849C24.58 848.9 24.058 847.7 23.536 847.3C22.724 846.8 21.796 847.2 21.042 846.5C20.752 846.2 20.404 845.1 20.056 844.8C19.07 844.1 18.084 844.1 17.156 843.1C16.692 842.6 16.344 841.8 15.88 841.4C15.416 840.9 14.836 841.1 14.372 840.6C14.14 840.3 14.024 839.3 13.792 838.9C13.502 838.4 13.212 838.4 12.98 838.1C11.878 836.5 10.95 835.7 10.08 833.9C9.73198 833.2 8.97798 833.1 8.97798 829.7C9.90598 828.3 10.544 828.3 11.472 828.9C12.516 829.5 13.328 830.5 14.14 831.4C14.372 831.6 14.604 831.1 14.836 831.4C15.126 831.8 15.184 832.8 15.416 833.1C16.518 834.2 17.62 833.7 18.78 834.8C19.244 835.2 19.708 836.8 20.172 837.3C20.752 837.9 21.274 837.6 21.854 838.1C22.376 838.5 22.84 839.3 23.362 839.8C23.942 840.3 24.58 840.2 25.16 840.6C27.016 841.9 28.698 845 30.438 845.6C30.844 845.7 31.308 845.3 31.714 845.6C32.294 846 32.816 847.7 33.396 848.1C34.382 848.8 35.31 848.2 36.18 848.9C37.108 849.6 37.862 851.9 38.848 851.4C38.674 848.3 39.196 849 39.138 846.4C38.964 843.2 38.442 842.3 38.036 841.4C37.572 840.5 36.238 839.7 35.948 839.7C35.774 839.7 35.716 840.8 35.368 840.5C35.02 840.2 34.73 839 34.382 838.8C33.918 838.5 33.512 839.1 32.99 838.8C32.642 838.6 32.236 837.3 31.888 837.1C31.482 836.9 31.134 837.4 30.786 837.1C30.438 836.9 30.148 835.7 29.8 835.4C28.118 833.8 26.262 834.2 24.812 831.2C23.826 832.2 23.072 830 22.608 829.5C22.202 829.1 21.738 829.8 21.332 829.5C20.694 829 20.172 826.8 19.534 826.2C18.722 825.4 17.852 825.2 17.04 824.5C15.822 823.5 14.778 822.2 13.56 822C12.574 818.2 10.486 821.1 9.78998 815.3C11.008 815.9 12.226 815.3 13.27 816.1C13.618 816.4 13.908 817.6 14.256 817.8C14.488 817.9 14.72 817 14.952 817C15.3 817 15.996 817.4 16.46 817.8C17.272 818.6 17.678 819.7 18.258 820.3C19.128 821.1 20.056 821.7 21.042 822C22.028 826 23.478 825.1 24.812 826.2C26.204 827.4 27.77 830.7 29.104 829.5C29.278 830.8 29.568 831.6 29.916 832C30.322 832.6 30.206 829.7 30.612 830.3C30.554 832.5 30.786 833 31.192 832.8C32.526 831.9 33.164 835.4 34.556 834.5C34.788 835.7 35.194 835.6 35.368 837C36.296 835.5 36.876 838.9 38.152 837.8C38.268 834.9 38.152 833.9 38.268 830.3C37.398 827 36.296 824.9 35.078 823.6C34.556 822.7 34.846 826.7 34.382 826.1C34.034 825.8 34.324 822.1 33.802 822.8C32.7 823.2 31.888 821.9 31.134 821.1C30.67 820.6 30.206 819.7 29.742 819.4C29.22 819.1 28.756 819.8 28.234 819.4C27.886 819.2 27.538 818 27.248 817.7C26.436 816.9 25.624 816.5 24.87 816C23.884 815.4 22.84 816.3 21.97 813.5C21.854 814.7 21.622 815.3 21.274 815.2C20.288 810.9 18.664 810.9 17.098 810.2C16.286 806.7 15.126 808.1 14.198 806.9C13.734 806.3 13.27 804.2 12.806 803.6C12.516 803.2 12.284 803.1 11.994 802.8C10.892 801.5 9.55798 800.3 8.80398 798.6C8.57198 798.1 8.10798 798.7 8.22398 796.1C11.472 793.5 14.082 797.5 17.388 797.8C17.736 798.9 18.2 799.2 18.49 800.3C19.592 799 20.462 803.4 21.274 801.1C22.086 804.7 23.246 803.5 24.174 804.4C24.464 804.7 24.754 805.7 24.986 806.1C26.088 807.5 27.19 807.5 28.176 808.6C28.988 809.5 29.8 812.4 30.844 811.1C31.076 811.2 30.96 813.2 31.25 812.8C32.41 812.7 32.932 816.1 34.15 815.3C34.498 817.1 35.194 817.5 35.658 816.1C36.238 813.4 35.368 810.7 35.948 807.7C36.47 809.3 37.166 808.1 37.63 806.9C37.398 803.8 37.398 804.4 37.514 800.2C36.76 796.8 36.006 797.4 34.846 796.9C33.744 796.3 32.41 794.4 31.656 793.6C30.96 792.9 29.742 794.4 29.568 790.3C30.032 787.7 30.38 791.1 30.844 791.1C32.236 789 33.744 793 35.31 792.8C35.658 795 36.586 795 36.992 792.8C36.934 788.9 36.934 790 36.876 786.1C36.006 781.8 34.498 781.4 33.28 780.2C31.888 779 30.554 777.1 29.394 778.5C29.104 776.3 28.814 777.2 28.292 777.7C26.668 774.8 24.522 775.6 22.608 774.4C22.318 774.2 22.028 773 21.796 772.7C20.81 771.8 19.708 772.1 18.722 771C18.548 770.8 18.316 769.5 18.142 769.3C17.852 768.9 17.62 769.6 17.33 769.3C16.17 767.9 14.836 766.7 13.85 765.1C13.328 764.2 12.922 764.1 12.342 763.4C12.11 763.1 11.878 762.1 11.646 761.7C11.24 761 10.602 761.7 10.37 758.4C11.298 757.2 12.226 759.7 13.154 760.1C13.444 760.2 13.734 759.2 13.966 759.3C16.17 759.8 18.316 763.1 20.346 761.8C22.26 764.7 24 764.3 26.204 763.5C26.784 760.4 25.334 759 25.914 756C26.726 757.2 27.48 756 28.002 756C30.148 756 31.888 763.2 34.382 761.9C34.962 764.1 35.948 766.8 36.586 766.1C36.992 762.9 36.354 760.1 36.296 756.9C35.02 755.5 33.976 752.6 32.41 752.7C31.192 749.5 30.032 749.5 28.814 747.7C28.234 746.9 27.654 745.3 27.132 744.4C26.668 743.5 26.262 743.1 26.03 742.7C25.508 741.9 24.928 741.6 24.348 741.9C23.42 739.5 22.202 738.5 20.868 738.6C18.954 733.3 16.054 734.2 14.314 727.7C16.17 726.4 18.026 727.1 19.766 728.5C20.578 729.2 21.274 730.5 21.854 731C22.202 731.3 22.608 730.7 22.956 731C23.246 731.2 23.594 732.2 23.942 732.7C24.87 734 25.682 733.7 26.726 734.4C27.016 734.6 27.306 735.7 27.538 736.1C29.278 738.1 31.076 736.9 32.816 738.6C33.222 739.4 33.57 741.5 34.092 741.9C34.44 742.2 34.73 741.7 35.194 741.9C35.484 738.9 34.846 738 35.194 734.4C35.02 732.1 34.498 731.8 34.382 729.4C34.034 728.7 34.324 724.3 33.802 724.4C33.28 723 32.816 721.4 32.004 721.9C31.54 719.7 30.67 719.2 30.032 720.2C29.568 718.6 28.93 718.4 28.234 718.5C27.712 715.1 26.9 715.9 26.146 715.2C25.856 714.9 25.624 714 25.334 713.5C25.16 713.2 24.928 713.7 24.754 713.5C24.696 713.4 24.406 711.9 24.348 711.8C23.304 710.5 22.202 709.8 21.564 710.1C21.1 708.7 20.636 706.5 20.056 708.4C19.824 707.8 19.824 705.7 19.476 705.9C18.374 706.5 17.968 703.2 16.808 704.2C16.46 701.4 15.242 702.4 14.836 700.9C14.546 699.8 13.734 700.8 13.85 697.6C14.43 695.4 15.126 696.9 15.822 696.8C16.924 696.5 18.316 695.9 19.708 696C20.172 696 20.636 696 21.1 696C22.144 695.9 22.956 696.2 23.594 696.8C24.638 697.9 25.508 699.7 26.494 697.6C26.726 687 25.218 689 23.826 688.4C23.072 688.1 22.608 686.6 21.738 687.6C20.578 684.6 19.128 683.7 17.562 683.4C17.33 682.4 16.982 682.4 16.866 680.9C16.286 680.5 15.59 680.9 15.358 678.4C14.72 678.4 13.908 679.1 13.966 675.1C14.43 673 15.01 675.7 15.474 675.9C17.504 675.2 20.404 676.3 22.55 677.6C23.014 680.4 24.232 681.1 24.638 677.6C24.58 673.9 24.058 673.2 23.942 670.1C22.898 670.6 22.086 665.4 21.274 669.3C20.404 664.5 18.896 665.3 17.678 663.4C17.446 663.1 17.33 661.9 17.098 661.7C16.866 661.4 16.576 661.9 16.286 661.7C15.59 659.5 14.662 658.1 13.792 656.7C12.922 655.3 11.994 654.1 11.124 652.5C9.78998 650.1 8.51398 647.5 7.52798 644.1C7.29598 643.3 6.54198 643 6.83198 639.9C8.91998 641.7 11.414 640.8 13.502 640.7C14.314 643.3 15.358 643.2 16.286 644C17.272 645 18.316 646.6 19.36 646.5C20.288 649.3 21.506 650.4 22.84 650.7C23.246 652.4 23.71 652.5 24.232 653.2C25.74 655.4 27.306 657.9 28.988 659.1C29.452 660.5 29.916 662.1 30.67 661.6C31.018 657.5 30.322 655.6 30.09 650.7C28.988 647.1 27.132 648.5 26.03 644.8C25.624 644.9 25.45 646.3 25.044 646.5C24.174 644.8 23.304 644.1 22.376 643.2C21.1 641.8 20.114 639.8 18.78 639.9C17.91 637.9 16.924 636.5 15.706 636.6C15.068 634.4 14.43 632.1 13.328 632.4C12.864 630.4 12.226 629.6 11.646 628.2C11.066 626.3 10.08 626.6 9.96398 623.2C10.95 619.9 12.98 622.9 14.14 620.7C14.256 621.8 14.43 622.3 14.72 622.4C15.822 620.9 17.736 624.5 18.78 623.2C19.302 624.7 19.94 625.8 20.752 625.7C21.1 626 20.984 628.6 21.448 628.2C22.028 628.2 22.434 629 22.724 630.7C23.884 630.3 25.218 635.4 26.088 631.5C26.204 625.7 25.45 625.3 25.276 621.5C24.638 622 24.29 620.8 24 619C22.898 621.1 21.912 616.9 20.636 617.3C20.346 615.9 20.114 614.3 19.65 614C18.316 615.1 17.214 610.8 16.17 609.8C15.59 609.2 14.72 612.8 14.488 607.3C16.17 606.5 17.91 607.8 19.766 608.1C20.288 610.5 21.216 610.6 22.144 610.6C22.956 612.5 24 616.4 24.928 614.8C25.16 607 24.116 606.8 23.652 603.1C22.782 602.3 22.028 601.8 21.274 600.6C20.752 599.8 20.288 598.1 19.766 597.3C19.186 596.4 18.664 595.6 17.968 595.6C17.794 592.6 16.924 594.2 16.692 591.4C16.344 591.4 15.938 591.4 15.59 591.4C15.358 589.3 14.894 588.3 14.488 587.2C13.908 585.3 12.806 586.7 12.806 581.3C15.01 581.3 17.156 580.3 19.186 581.3C20.636 582 21.912 585.3 23.246 585.5C23.594 586.7 23.826 588.6 24.522 588C24.522 587 24.58 586 24.812 586.3C24.928 582.1 24.58 580.6 24.406 577.9C24.116 577.7 23.942 575.9 23.71 575.4C23.536 575 23.42 576.3 23.304 576.2C23.304 576.2 23.072 574.6 23.014 574.5C22.492 573.5 21.854 573.6 21.332 571.2C20.636 571 19.94 570.6 19.534 568.7C19.186 568.4 19.244 570.2 18.838 569.5C18.606 567.8 18.026 568.2 17.852 566.2C16.866 565.3 15.764 565.4 14.952 563.7C14.778 563.4 14.604 561.7 14.372 561.2C14.082 560.4 13.502 561.7 13.676 558.7C14.198 558.7 14.488 557.2 15.068 557C15.648 556.8 16.344 557.9 16.576 557.8C16.75 557.8 16.75 556.8 16.982 557C17.214 557.1 17.446 558.4 17.678 558.7C18.548 559.7 19.476 558.8 20.346 559.5C20.578 559.7 20.81 560.9 21.042 561.2C21.332 561.5 21.622 561 21.854 561.2C23.362 562.6 24.928 568.1 26.436 565.4C26.436 558.5 25.74 555.6 25.16 552C24.174 551.7 23.188 548.8 22.086 547.8C21.1 547 19.94 548.6 19.302 544.5C18.954 544.5 18.548 544.5 18.2 544.5C17.736 542.4 17.098 541 16.228 541.2C15.474 539.1 14.604 536.3 14.024 534.5C13.792 533.8 13.27 534.5 13.328 532C14.604 530 16.692 530.3 17.794 530.3C18.374 530.3 19.012 530.6 19.592 530.3C21.042 529.5 22.55 533.2 23.884 531.1C24.29 526.6 23.594 524.1 23.478 520.2C22.318 518.6 21.506 514.9 19.998 515.2C19.186 510.9 17.446 510.2 16.518 507.7C16.054 506.4 15.358 504.8 15.01 502.7C16.692 501 18.548 500.3 19.882 501.9C20.23 502.4 20.462 503.5 20.578 503.6C20.81 503.8 20.868 502.8 20.984 502.8C21.158 502.8 21.274 503.6 21.564 503.6C21.97 503.7 22.434 503.3 22.84 503.6C23.942 504.5 25.102 508.7 26.32 506.1C26.378 503.1 26.088 502.1 26.03 499.4C25.392 495.8 23.652 494.8 22.666 496.1C22.55 494.9 22.434 493.4 22.086 493.6C21.738 493.6 21.332 493.6 20.984 493.6C20.752 491.6 20.172 491.8 19.592 491.9C18.954 488.6 17.562 489.7 17.098 485.2C16.46 484.7 15.648 484.9 15.59 481C17.214 479.3 18.954 479.1 20.752 476.8C21.448 479.2 22.55 478.2 23.536 478.5C24.696 478.9 26.146 481.8 26.436 476C26.378 470.6 25.218 471.7 25.16 466C24.058 465.7 23.13 461.6 22.086 463.5C21.158 461.9 20.23 460.3 19.012 460.2C18.722 458.2 18.026 458.2 17.736 456C16.808 457.4 15.88 453 14.952 451.8C14.836 449 13.792 451.4 13.85 447.6C14.256 444.1 15.242 445 16.054 444.3C17.562 442.9 20.172 439.5 21.506 443.5C22.318 442.9 23.42 443 24.406 443.5C25.16 443.9 25.856 446.4 26.378 443.5C26.378 439 25.972 435.6 25.392 434.3C24.754 432.8 23.826 434.6 23.014 435.1C21.796 433.5 19.998 431.9 18.722 433.4C18.258 432.2 17.852 430.2 17.33 431.7C16.75 429.3 16.054 427.6 15.126 427.5C14.72 425.8 14.314 424 13.618 424.2C13.096 418.7 11.472 419.6 11.124 413.3C11.82 409.8 12.806 412.7 13.618 412.5C13.966 412.4 14.256 411.1 14.604 410.8C15.88 409.7 17.562 410.1 18.896 410.8C19.244 411 19.592 412.2 19.882 412.5C20.346 412.9 20.81 412.3 21.274 412.5C22.492 413 23.768 414.8 24.87 415C25.334 415.1 25.74 415 25.856 414.2C25.914 413.6 26.03 415.1 25.972 415C26.146 415.1 26.378 415.1 26.552 415C27.074 414.7 27.712 414.3 28.06 412.5C28.118 407.1 27.422 406.4 27.248 402.5C26.552 402.2 26.146 400.2 25.566 399.2C23.768 400.9 22.318 395.2 20.114 396.7C19.476 394.4 19.128 394.5 18.316 394.2C17.562 391.6 16.634 389.9 15.532 389.2C14.778 385.3 13.386 385.4 12.748 380.8C12.226 379.8 11.704 378.7 11.356 376.6C10.834 375.2 10.022 375.6 10.254 369.9C12.516 368.9 14.952 369 17.33 369.1C17.794 369 17.794 371.3 18.316 370.8C19.824 369.5 20.752 373 22.086 374.1C22.434 374.4 23.072 375 23.478 374.9C23.884 374.8 24.58 375.7 24.58 371.6C24.638 368.3 24 369.5 23.884 367.4C24.232 366.2 23.478 364.8 23.478 363.2C22.492 361.8 21.274 361.8 20.404 359.9C19.824 359.3 19.592 360.7 19.128 360.7C18.548 359.2 17.91 357.5 17.156 356.5C16.924 356.2 16.576 356.8 16.344 356.5C15.764 356 15.184 354.2 14.662 353.2C14.082 352.1 13.27 352.7 13.154 349C13.618 349.1 14.488 346.6 14.836 346.5C15.126 346.4 15.3 347.6 15.532 347.3C15.59 347.3 15.88 345.7 15.938 345.6C16.17 345.3 16.402 345.8 16.634 345.6C17.504 344.8 18.258 343.4 18.838 343.1C20.404 342.3 22.028 344.4 23.71 342.3C24.406 342.2 24.638 343.8 25.102 341.5C25.45 335.6 24.58 336.2 24.406 331.5C23.652 329 23.072 329.8 22.318 329.8C20.462 329.9 19.302 323.5 17.562 324.8C16.634 320.9 14.952 321.5 14.198 316.4C14.778 314.5 15.358 316.2 15.996 315.6C16.692 315 17.388 312.5 18.084 312.3C18.548 312.1 19.012 313.1 19.476 313.1C19.882 313.1 20.172 312.3 20.578 312.3C21.1 312.2 21.796 314.3 22.26 311.5C22.376 307 21.738 306.7 21.68 303.1C19.766 299.4 17.156 300 15.822 293.1C15.474 291.4 14.662 292.4 14.72 288.1C15.01 283.8 15.938 283.1 16.924 283.1C17.968 277.8 20.23 280 21.216 274.7C21.332 272.3 21.448 270.4 21.332 268C21.216 264.6 20.404 263.1 19.94 261.3C19.418 259.3 19.244 258.9 18.664 258C18.026 256.9 17.33 255.3 16.692 253.8C16.518 253.3 16.286 252.6 16.112 252.1C15.474 250.5 14.546 248.8 14.43 245.4C14.662 242.3 15.126 239.3 15.532 237C15.648 236.4 15.822 236.7 15.938 236.2C16.054 235.7 16.112 234.2 16.228 233.7C16.982 230.1 17.794 228.1 18.606 225.3C18.49 222.8 18.78 221.6 18.722 220.3C18.664 216.1 17.968 216.3 17.91 211.9C18.084 208.3 18.722 206.8 19.012 205.2C19.128 204.5 19.302 204.2 19.418 203.5C19.534 202.8 19.708 202.5 19.824 201.8C20.056 200.4 20.52 199.1 20.636 198.5C20.694 198.1 20.868 198.1 20.926 197.7C21.042 197 20.984 195.1 21.042 194.4C21.158 193.7 21.506 194.3 21.448 192.7C21.738 191.5 21.738 188.2 22.144 187.7C22.202 182 22.492 177.9 22.434 172.7C22.376 168.1 21.854 163.6 22.028 158.5C22.782 149.4 23.942 142.8 24.406 131.8C25.334 125.8 26.03 118.6 25.798 105.9C25.624 103.4 25.044 101.1 24.986 97.5C24.87 90.7 25.682 87.1 25.798 82.5C25.856 80.5 25.682 77.5 25.682 75.8C25.682 70.7 25.856 65.8 25.798 60.8C25.682 52.4 25.16 45.2 24.986 37.4C24.754 35.4 24.464 33.8 24.58 29.9C24.174 27.9 24.058 25.6 24 23.2C23.478 17.9 23.188 11.2 22.608 6.5C22.144 5.1 22.26 0.199999 21.622 -0.200001C21.332 1.7 21.68 0.699999 21.738 2.3C22.028 2.4 21.796 5.9 21.854 7.3C22.434 9.7 22.492 14.4 22.666 18.2C22.898 22.1 23.304 26 23.246 30.7C23.71 32.2 23.768 36 23.942 39.1C24.116 41.9 24.406 45.2 24.522 48.3C24.754 55.4 24.696 64 24.638 70C24.58 77.1 24.522 81.1 24.348 85.9C24.29 87.5 23.826 86.6 23.942 89.2C23.942 91.2 23.942 93.1 23.942 95.1C23.884 98 23.13 96.8 22.956 99.3C23.072 101.4 23.594 101.1 23.536 104.3C23.826 105.6 24.406 105.2 24.522 107.6C24.232 109.6 24.406 114.3 24.406 117.6C24.116 120 23.942 123 23.826 126.8C23.072 131.2 22.782 137.7 22.318 142.7C22.144 144.7 21.738 146 21.738 148.6C21.1 151.6 20.346 154.2 20.23 160.3C20.288 163.1 20.752 163.3 20.926 165.3C20.926 169.4 21.332 172 21.332 175.3C21.39 180.8 20.752 184.6 20.52 189.5C19.824 193.9 18.954 196.8 18.316 200.4C18.084 201.7 17.968 203.9 17.62 204.6C17.098 204.3 16.692 204.7 16.344 205.4C16.344 208.4 15.938 209.1 15.938 212.1C16.228 215.9 16.982 216.8 17.04 222.1C16.634 224.8 16.112 226.4 15.532 228C15.184 231.4 14.662 233.2 14.256 236.4C13.734 237.4 13.27 238.8 12.98 241.4C12.922 245 13.096 246.9 13.096 249.8C14.198 256 15.88 258.7 17.272 263.2C17.504 263.2 17.736 263.2 17.968 263.2C18.374 267.1 19.708 265.6 19.766 271.6C19.36 272.8 19.07 271.1 18.49 272.4C17.968 275.6 16.75 274.8 16.112 277.4C15.358 277.5 14.72 278.5 14.14 279.9C13.212 278.9 12.922 281.4 12.632 284.1C12.748 296.3 14.836 297 15.996 303.3C16.692 303.2 17.214 304.4 17.504 306.6C16.402 307.6 15.532 310.2 14.604 308.3C14.256 309.4 13.966 310.7 13.502 310.8C12.806 309.4 11.994 308.1 11.53 311.6C11.472 317.6 12.4 320.2 13.212 322.5C13.908 324.4 14.778 326.3 15.416 327.5C15.474 327.6 15.648 329 15.706 329.2C16.46 330.5 17.736 330.6 18.374 331.7C19.418 333.6 20.578 334 21.564 335.9C22.26 336 22.84 333.8 22.956 338.4C21.564 339.5 20.172 337.4 18.78 337.6C17.736 337.7 16.402 340.4 15.3 340.1C14.952 340 14.72 339.1 14.488 339.3C13.792 339.8 12.806 342.8 12.4 341.8C12.284 341.5 12.168 342.6 12.11 342.6C11.878 342.6 11.762 342.4 11.53 342.6C11.066 343.1 10.718 343.3 10.254 344.3C10.254 349.1 10.718 351.1 10.95 354.3C11.878 355.9 12.806 357.1 13.444 360.2C14.314 360.2 14.894 361.7 15.416 363.5C13.502 364.9 11.414 358.9 9.73198 364.3C8.91998 362.1 7.64398 362.5 7.52798 367.6C7.41198 371.7 8.16598 373.7 8.33998 375.1C9.03598 380 10.544 383.6 11.24 386C13.154 392.1 14.894 395 16.112 398.5C16.46 398.5 16.75 398.5 17.098 398.5C17.736 400 18.432 402.6 19.302 403.5C19.766 404 20.346 403.2 20.81 403.5C21.158 403.7 21.448 404.8 21.796 405.2C23.188 406.6 24.928 404.4 25.856 409.4C24.986 411.7 24.058 408.9 23.362 407.7C20.81 410.1 17.968 402.8 15.3 406C14.546 401.7 13.038 407 12.11 404.3C11.414 406.6 10.428 407 9.61598 406C9.32598 408 8.86198 408.6 8.80398 411.9C8.86198 415.8 9.61598 418.8 9.90598 420.3C10.138 421.5 10.37 422 10.602 422.8C10.66 423.1 10.776 424.1 10.892 424.5C11.762 427.5 12.98 428.5 13.676 432.9C14.314 433.6 14.952 434 15.358 436.2C14.604 438.2 13.618 438.4 12.98 441.2C12.748 440 12.342 439.6 11.878 439.5C11.762 441.4 10.95 439.5 11.066 442.8C10.776 444 11.356 447.1 11.356 449.5C12.11 452.1 12.98 453.8 13.56 457C15.01 458.3 15.822 463.5 17.446 463.7C18.2 466.8 19.302 468.3 20.636 467.9C20.984 470.9 22.318 467.9 22.434 472.1C21.506 472.7 20.346 471 19.07 471.3C18.838 471.4 18.49 472 18.258 472.1C16.286 473.1 14.372 469.7 12.98 473.8C12.864 478.1 13.154 480.1 13.27 483C13.966 486.5 14.894 489.2 15.648 491.4C15.88 492.1 16.402 492.2 16.344 494.7C15.59 497 14.024 494.1 13.27 496.4C12.806 493.7 11.588 494.1 11.472 498.1C11.646 504.1 12.632 505.1 13.154 509C14.604 509.9 15.3 515.7 16.924 515.7C17.446 518.4 18.432 519.1 18.896 520.7C19.012 521.1 19.07 522 19.186 522.4C19.36 523 19.94 522.4 19.882 524.9C18.084 524.6 14.546 520.5 13.038 525.7C12.342 523.8 11.472 525.6 10.95 527.4C10.834 530.2 11.124 531.9 11.066 535.8C12.284 540.4 13.966 542.3 15.242 546.7C15.59 546.7 15.88 546.7 16.228 546.7C16.866 550.2 18.2 549.3 18.896 552.6C19.186 553.2 19.998 551.1 19.882 554.3C17.91 553.8 16.866 552.2 15.3 550.1C15.184 553.1 14.488 550.1 14.024 550.1C13.212 552.9 12.4 551.1 11.53 552.6C11.182 551.3 10.544 548.5 10.022 550.9C9.73198 554 10.254 554.3 10.138 558.4C11.414 563.4 13.212 568.3 14.894 570.9C15.068 571.2 15.3 570.6 15.474 570.9C15.532 571 15.706 572.5 15.764 572.6C15.938 572.9 16.634 570.9 16.46 574.3C14.604 575.7 13.328 570.7 12.168 575.1C11.414 572.9 10.428 572 9.78998 575.9C9.67398 579.4 10.08 579.9 10.08 582.6C11.414 589 13.328 594.2 14.952 597.6C15.184 598.1 15.764 596.8 15.648 600.1C15.532 603.1 15.126 601.2 14.836 600.9C14.546 600.6 14.082 599.4 13.734 599.2C13.444 599.1 13.038 600.1 12.632 600C11.588 599.8 10.776 598.4 10.254 601.7C10.138 607.3 10.95 607.6 11.24 610.9C11.936 610.8 12.516 611.1 12.632 614.2C11.24 614.3 10.022 616.4 8.16598 615.9C7.58598 615.7 7.35398 613 6.77398 615.1C6.54198 618.8 6.88998 619.4 6.88998 623.5C7.06398 625.4 7.58598 625 7.87598 626C7.99198 626.4 8.04998 628.1 8.16598 628.5C8.39798 629.2 8.62998 628.8 8.86198 629.3C9.15198 630 9.55798 631.2 9.84798 631.8C10.138 632.5 10.834 631.9 10.834 635.1C10.486 636.5 9.90598 633.9 9.32598 634.3C7.70198 635.5 5.84598 631.9 4.74398 635.1C4.85998 637.2 4.91798 639.6 4.85998 642.6C5.32398 645.8 6.19398 646.3 6.54198 650.1C6.88998 649.2 7.06398 650.9 7.35398 651.8C7.99198 653.5 8.45598 654 9.03598 655.1C9.26798 655.5 9.49998 657.2 9.73198 657.6C10.022 658.1 10.428 658.1 10.718 658.4C11.646 659.7 12.574 660.5 13.386 663.4C13.908 662.6 14.43 664.2 14.894 665.1C15.358 665.8 16.228 664.7 16.17 669.3C15.068 668.2 14.082 670.5 13.27 670.1C12.632 669.8 12.168 667.1 11.472 667.6C11.066 670.1 11.182 670.8 11.066 674.3C12.168 683.2 14.778 683.3 16.518 688.5C15.126 691 13.676 688 12.226 688.5C11.588 688.7 10.95 690.7 10.254 690.2C9.84798 690.8 9.90598 694.3 9.55798 695.2C9.26798 696.2 8.97798 697.4 8.45598 696.9C8.62998 700.6 7.99198 699.1 8.04998 701.9C8.39798 707.9 9.73198 708.1 10.254 712.8C10.95 713.2 11.82 714.9 12.226 716.1C12.4 716.6 12.748 717 12.632 718.6C11.472 718.2 10.428 718.7 9.73198 721.1C9.26798 723.1 10.312 726.4 9.61598 727.8C8.80398 725.8 7.70198 725.8 7.12198 722.8C6.71598 722.2 6.71598 724.2 6.30998 723.6C5.20798 722.6 2.65598 715.7 2.24998 725.3C2.71398 731.2 4.39598 731.5 5.14998 733.7C6.54198 737.5 7.93398 739.4 9.90598 738.7C9.90598 741.3 10.834 738.8 10.718 742C9.15198 742.1 7.52798 742.5 6.13598 745.3C5.72998 747.1 6.07798 748.1 5.84598 750.3C5.43998 751 4.85998 751.2 4.85998 754.5C5.14998 759 5.84598 761.3 6.83198 762C7.41198 765.2 8.68798 764.1 9.20998 767.8C8.74598 771.2 8.62998 767.6 7.93398 767.8C6.65798 767 4.16398 761.8 3.35198 768.6C3.46798 773.2 3.98998 775.2 4.85998 775.3C5.26598 778.6 6.19398 778.3 6.83198 780.3C7.41198 782.8 8.22398 782.6 9.03598 783.6C9.20998 783.8 9.32598 785.1 9.44198 785.3C10.138 786.5 10.892 784.3 11.124 787.8C10.312 791.8 9.15198 786.3 7.93398 787.8C7.64398 787.3 7.41198 786.4 7.12198 786.1C6.59998 785.7 5.72998 786.9 5.61398 786.9C5.43998 786.9 5.43998 785.9 5.20798 786.1C4.56998 786.6 3.87398 788 3.40998 789.4C3.40998 799.1 5.32398 799.5 6.30998 801.9C6.65798 802.7 7.29598 802.4 7.12198 805.2C6.13598 805 5.03398 802.9 4.04798 802.7C3.87398 802.7 3.69998 803.5 3.64198 803.5C3.46798 803.5 3.40998 802.3 3.06198 802.7C2.77198 803.1 2.07598 804.2 2.07598 806.9C1.90198 810.8 2.30798 810.1 2.48198 811.1C2.59798 811.7 2.88798 814 3.06198 814.4C3.23598 814.8 3.46798 814.1 3.64198 814.4C3.69998 814.5 3.93198 815.9 4.04798 816.1C4.39598 816.6 4.85998 815.4 5.03398 817.8C4.91798 821.6 3.87398 819.8 3.75798 823.7C3.87398 831 5.26598 830.9 5.96198 834.6C6.25198 834.6 6.54198 834.6 6.77398 834.6C7.12198 837.8 8.22398 836.5 8.45598 840.5C7.87598 842.1 7.17998 839.8 6.36798 839.7C5.78798 839.6 5.14998 840.4 4.39598 840.5C3.64198 840.6 2.77198 839.1 2.30798 839.7C1.78598 840.3 1.37998 842.5 1.03198 843.9C1.08998 849.2 1.84398 851.2 2.42398 852.3C2.88798 853.1 3.06198 852.5 3.40998 853.1C3.46798 853.2 3.64198 854.7 3.69998 854.8C4.91798 856.7 6.54198 855.8 7.29598 860.7C6.48398 860.8 5.84598 861.9 5.20798 863.2C5.03398 871.4 6.42598 870.3 6.88998 874.9C7.23798 876.3 8.04998 874.5 7.99198 878.2C7.70198 876.4 7.46998 878.4 7.17998 879C5.72998 876.7 3.29398 874.9 2.19198 879.8C2.07598 882.2 2.24998 882.9 2.30798 884C2.36598 885 2.30798 886.7 2.42398 887.3C2.48198 887.6 2.65598 887 2.71398 887.3C3.00398 889 3.17798 889.3 3.52598 889.8C3.69998 890.1 3.69998 891.2 3.81598 891.5C4.22198 892.6 4.80198 893.2 5.20798 894C5.67198 894.9 6.19398 895.3 6.48398 897.3C5.38198 899.4 4.10598 895.8 3.00398 897.3C2.88798 899.2 2.07598 897.3 2.19198 900.6C1.95998 905.2 3.40998 906.6 3.69998 910.6C3.52598 915.2 4.10598 915.3 4.27998 918.1C4.80198 919.4 5.61398 920.5 5.96198 921.4C6.30998 922.3 6.88998 923.3 6.77398 925.6C5.72998 927.1 3.46798 923.3 2.71398 928.9C2.65598 936.2 3.98998 935.1 4.51198 938.9C6.25198 939.4 7.29598 943.8 8.80398 945.6C8.28198 947.3 7.70198 950.1 7.12198 950.6C6.83198 950.9 6.42598 950.1 6.13598 949.8C5.72998 949.3 5.26598 949 4.85998 948.1C4.33798 950 3.52598 950 2.88798 951.4C3.29398 960.4 4.33798 959.4 5.67198 961.4C6.59998 962.8 7.52798 964.8 8.45598 965.6C8.28198 969 7.52798 970.9 6.94798 971.5C6.54198 971.8 6.19398 970.9 5.67198 970.7C4.10598 970 2.82998 972.2 1.78598 973.2C1.78598 975.4 1.78598 977.7 1.78598 979.9C4.04798 987.3 7.58598 986.7 9.84798 994.1C11.414 994.9 12.632 998.1 13.908 1000.8C14.256 1002.3 15.068 1001.2 15.01 1005C14.082 1004 12.922 1005.2 11.82 1004.2C11.588 1004 11.53 1003.1 11.24 1002.5C10.544 1001.1 10.08 1002.2 9.44198 1002.5C7.58598 1003.3 4.27998 1001.5 3.17798 1004.2C2.82998 1005.1 2.01798 1005.2 2.07598 1008.4C2.36598 1017.4 4.04798 1018.2 5.26598 1021.8C5.20798 1026.9 5.55598 1029.6 5.84598 1032.7C5.38198 1035.8 4.97598 1038.7 5.26598 1044.4C5.72998 1045.7 6.30998 1046.4 6.65798 1048.6C8.80398 1050 10.95 1054.1 12.922 1056.1C13.618 1056.8 14.488 1056.1 15.01 1059.4C13.676 1059.9 11.994 1061.6 10.544 1060.2C10.196 1059.9 9.90598 1058.5 9.55798 1058.5C8.62998 1058.5 8.22398 1060.6 7.75998 1061.8C7.52798 1062.5 6.83198 1061.4 7.06398 1064.3C7.12198 1070.1 8.16598 1070.4 8.74598 1071.8C8.91998 1072.3 9.49998 1072.1 9.44198 1074.3C8.86198 1074.4 8.28198 1074.6 8.04998 1072.6C6.19398 1075.8 3.29398 1066.7 1.90198 1074.3C1.61198 1074.7 1.08998 1073.2 1.20598 1076C1.08998 1084.4 3.06198 1080.6 3.58398 1085.2C4.45398 1084.9 5.72998 1087.4 6.25198 1088.5C6.48398 1089 6.59998 1089.2 6.83198 1089.3C8.16598 1090.4 9.67398 1087.6 10.312 1094.3C9.73198 1096.4 9.20998 1098.8 8.22398 1098.5C8.10798 1102.4 8.45598 1103.9 8.51398 1106.9C9.26798 1108.5 10.254 1108.7 11.008 1110.2C10.022 1112 8.39798 1111.9 7.41198 1109.4C6.77398 1112.8 4.74398 1107.8 5.03398 1116.9C6.19398 1122.2 8.28198 1122.1 9.78998 1125.3C10.022 1129 9.90598 1129.7 10.196 1132.8C10.892 1136.1 12.748 1132.4 13.27 1136.1C13.038 1140.8 12.168 1136.5 11.472 1136.9C11.008 1137.2 10.718 1139 10.37 1139.4C10.312 1142.3 10.428 1144.1 10.486 1146.1C11.066 1149.1 11.936 1148.5 12.69 1149.4C13.444 1150.3 14.14 1151.9 14.894 1152.7C15.126 1152.9 15.474 1152.5 15.706 1152.7C16.054 1153 16.344 1154.1 16.692 1154.4C17.736 1155.4 18.838 1155.8 19.766 1156.9C20.056 1157.3 20.578 1156.2 20.578 1159.4C20.114 1161.5 19.418 1159.6 19.07 1158.6C18.896 1160.7 18.316 1160.2 17.794 1160.3C17.504 1159.8 17.156 1158.9 16.808 1158.6C15.474 1157.5 13.56 1158.1 12.052 1158.6C11.762 1158.7 11.472 1160.2 11.24 1160.3C10.776 1160.5 10.602 1158.4 10.254 1159.5C10.138 1161.8 9.55798 1161.3 9.26798 1162.8C9.20998 1165.5 9.49998 1166.3 9.38398 1169.5C10.544 1171.8 12.458 1173.7 13.27 1175.4C14.894 1177.5 16.228 1177 17.33 1179.6C17.794 1180 17.794 1178.1 18.316 1178.8C19.476 1182.8 21.622 1179.8 23.072 1183.8C24.406 1183.5 26.146 1184.1 27.654 1184.6C27.944 1184.7 28.234 1186.1 28.466 1186.3C28.756 1186.5 29.104 1185.3 29.452 1185.5C29.742 1185.6 30.09 1186.4 30.264 1187.2C30.032 1189.8 29.22 1188.9 28.582 1188C27.886 1191.6 26.668 1186.9 26.088 1190.5C24.986 1186.6 23.072 1188.8 21.796 1188.8C21.448 1188.5 21.564 1185.9 21.1 1186.3C20.81 1186.7 20.868 1188.7 20.404 1188C19.708 1186.6 18.722 1185.9 17.736 1185.5C16.982 1185.2 16.112 1184.6 15.532 1184.7C15.01 1184.8 14.604 1185.5 14.256 1186.4C13.618 1183.3 12.516 1185.7 11.356 1185.6C11.066 1185.6 10.834 1184.9 10.544 1184.8C8.45598 1184 6.71598 1184.1 5.55598 1189C5.43998 1191.9 5.78798 1192.2 5.67198 1194.9C6.54198 1197.9 7.64398 1199.1 8.74598 1200.8C9.26798 1201.6 9.78998 1202.8 10.254 1203.3C10.892 1204 11.53 1203.6 12.226 1204.1C13.154 1204.9 14.082 1207.2 15.01 1207.4C15.184 1207.5 15.532 1206.8 15.706 1206.6C16.518 1209 17.852 1209.3 18.896 1209.9C19.36 1210.2 20.056 1208.6 20.288 1211.6C19.592 1213.6 18.896 1213.4 18.316 1210.8C18.2 1212 18.084 1213.4 17.736 1213.3C17.04 1210.5 15.88 1210.1 14.836 1211.6C14.43 1208.7 13.734 1210.9 13.038 1210.8C12.4 1210.6 11.936 1210.5 11.356 1210.8C10.718 1211.1 10.022 1209.8 9.38398 1210C8.33998 1210.3 7.35398 1212.7 6.59998 1214.2C6.48398 1218.4 6.88998 1219.2 7.00598 1221.7C8.04998 1223.6 9.20998 1225 10.08 1225.9C10.544 1226.4 10.892 1226.2 11.356 1226.7C11.53 1226.9 11.646 1228.1 11.762 1228.4C11.994 1228.8 12.226 1228.1 12.458 1228.4C13.27 1229.3 14.198 1231 15.126 1231.7C15.938 1232.4 16.808 1232.8 17.62 1233.4C18.49 1234 19.302 1234.8 20.114 1235.1C21.97 1235.7 23.13 1237.5 24.696 1236.8C25.392 1239 26.204 1238.1 27.19 1238.5C27.886 1238.8 28.872 1238.4 28.988 1241.8C27.364 1243.8 25.914 1242.3 24 1242.6C23.594 1242.8 23.594 1240.7 23.188 1240.9C22.666 1243.2 22.086 1240.2 21.39 1240.9C20.81 1240.4 20.81 1243.1 20.288 1242.6C20.114 1241.9 19.882 1240.6 19.592 1240.1C19.36 1239.7 19.302 1241.2 19.012 1240.9C19.012 1240.9 18.896 1239.3 18.896 1239.2C18.316 1237.5 17.504 1239.9 16.924 1240C16.402 1237.8 15.996 1238.9 15.416 1240C15.242 1238.3 14.778 1238.1 14.43 1237.5C12.516 1238.2 11.182 1235.7 10.254 1238.3C10.138 1237.1 10.138 1235.1 9.67398 1235.8C7.87598 1236.3 5.61398 1234.2 4.39598 1238.3C4.27998 1241.4 4.62798 1241.9 4.51198 1245C4.91798 1246.9 5.49798 1248.1 6.30998 1247.5C6.77398 1250.6 7.58598 1250.6 8.28198 1251.7C8.97798 1252.8 9.61598 1254.5 10.37 1255C10.602 1255.2 10.95 1254.7 11.182 1255C11.588 1255.5 11.878 1257.1 12.284 1257.5C12.806 1258.1 13.444 1257.7 13.966 1258.3C14.43 1258.9 14.894 1260.4 15.358 1260.8C16.634 1262 18.084 1261.4 19.418 1262.5C19.94 1262.9 20.868 1264.8 21.216 1265C21.332 1265.1 21.39 1264.1 21.506 1264.2C22.26 1264.7 23.014 1266.2 23.71 1266.7C24.754 1267.4 25.566 1267 26.378 1267.5C27.306 1268.1 27.944 1269.2 28.466 1270C28.698 1270.4 29.22 1269 29.278 1271.7C28.93 1275.5 27.886 1274.1 27.074 1274.2C25.45 1274.3 23.768 1273.4 22.782 1274.2C22.434 1272.7 21.97 1272.5 21.506 1272.5C21.1 1272.5 20.81 1274 20.404 1274.2C20.172 1274.3 19.534 1273.8 19.302 1273.4C19.128 1273.1 18.78 1272.3 18.722 1270.9C18.258 1270.8 18.258 1273.1 17.736 1272.6C17.504 1271.5 17.388 1269.8 16.924 1270.1C16.17 1269.6 15.59 1270.5 15.126 1271.8C14.894 1271.4 15.01 1269.2 14.546 1270.1C12.98 1271.6 11.124 1268.9 9.38398 1270.9C9.09398 1270.4 8.97798 1268.8 8.57198 1269.2C7.99198 1270.7 7.41198 1272.1 6.59998 1272.5C6.30998 1282.3 7.75998 1281.9 8.68798 1283.4C9.09398 1284.1 9.55798 1285.2 9.96398 1285.9C10.544 1286.9 11.182 1286.7 11.472 1289.2C11.994 1289.7 12.516 1289.5 12.98 1290C13.154 1290.2 13.328 1291.4 13.56 1291.7C13.792 1292 14.14 1291.4 14.372 1291.7C15.474 1293 16.402 1294.3 17.446 1295C17.968 1295.4 18.606 1295.1 19.128 1295.8C19.418 1296.2 19.534 1297.3 19.824 1297.5C20.752 1298.2 21.738 1297.5 22.724 1298.3C23.362 1298.8 23.942 1300.5 24.522 1300.8C24.87 1301 25.16 1300.5 25.508 1300.8C25.856 1301.1 26.262 1302.3 26.61 1302.5C27.828 1303.1 28.64 1301.8 29.104 1305.8C26.61 1308.1 24 1305 21.738 1303.3C21.158 1302.9 20.81 1303.8 20.462 1305C20.288 1300.8 18.954 1303.4 18.49 1300.8C18.084 1301.9 17.388 1301.4 16.982 1302.5C16.634 1301.1 16.17 1300.6 15.706 1300C13.908 1301.3 11.414 1294.8 9.73198 1300.8C9.84798 1303.2 9.90598 1306 10.022 1308.3C10.544 1310.1 11.066 1309.5 11.53 1310C13.386 1313.7 15.474 1317.5 17.388 1319.2C19.36 1321 21.1 1322.4 22.956 1324.2C23.71 1324.9 24.464 1326 25.16 1326.7C26.726 1328.3 28.582 1328.9 29.742 1331.7C30.206 1331.4 30.612 1331.9 31.018 1332.5C31.308 1333 31.83 1333.9 31.83 1335.8C31.598 1339.1 30.438 1336.7 29.742 1337.5C29.394 1337.8 29.162 1338.5 28.93 1339.2C28.118 1335.8 27.074 1340 26.262 1336.7C25.392 1338.3 24.58 1337.4 24.058 1335.9C23.71 1335.8 23.652 1337.2 23.362 1337.6C23.362 1334.3 22.492 1336 22.26 1334.3C21.158 1336.5 19.65 1336.1 18.49 1333.5C17.156 1336.3 15.3 1329.3 14.024 1334.3C13.676 1334 13.792 1331.4 13.328 1331.8C12.632 1333.8 11.762 1332 10.95 1332.6C10.776 1332.8 10.602 1334 10.37 1334.3C10.022 1334.8 9.73198 1333.7 9.55798 1335.1C9.67398 1343.7 10.95 1345.2 12.342 1346C13.096 1349.2 13.908 1349.1 14.72 1350.2C15.358 1351 15.88 1351.9 16.518 1352.7C17.794 1354.3 19.012 1355.4 20.114 1357.7C21.506 1358.8 22.898 1360.5 24.406 1361.9C24.754 1362.2 25.16 1362.5 25.508 1362.7C26.726 1363.6 27.712 1366.1 28.698 1366.9C29.394 1367.4 30.38 1364.2 30.67 1370.2C28.466 1371.1 26.958 1367.9 24.812 1368.5C24.58 1368.1 24.29 1367.1 24 1366.8C23.826 1366.6 23.71 1367.7 23.594 1367.6C22.434 1367.4 20.926 1364.3 19.998 1366.8C19.708 1364.2 19.012 1365.3 18.49 1366C18.258 1362.1 17.504 1366.1 17.388 1366C17.388 1366 17.156 1364.5 17.098 1364.3C16.576 1362.4 15.01 1363.5 14.604 1363.5C14.604 1363.5 14.314 1362.8 14.198 1362.7C13.154 1362 11.124 1360.6 10.138 1361.9C9.90598 1362.2 9.26798 1363.6 9.32598 1365.2C9.20998 1371.7 10.428 1372.9 11.124 1374.4C12.284 1377 13.386 1378.6 14.604 1380.3C14.894 1380.7 15.3 1381.6 15.59 1382C16.054 1382.5 16.518 1382.3 16.982 1382.8C17.446 1383.4 17.91 1384.7 18.374 1385.3C19.186 1386.3 20.056 1386.1 20.868 1387C21.506 1387.7 22.144 1389.6 22.84 1390.3C23.188 1390.7 23.594 1390.8 23.942 1391.1C24.812 1392 26.204 1393.1 26.842 1394.4C27.538 1394.6 28.466 1393.4 28.524 1397.7C27.016 1399.5 25.276 1395.8 23.768 1398.5C23.42 1398.6 23.304 1397.2 23.188 1396C22.84 1396 22.782 1397.4 22.376 1396.8C21.448 1393 20.23 1395.3 18.896 1395.1C18.49 1394.4 18.2 1393.1 17.794 1392.6C17.214 1392.1 17.214 1394.8 16.692 1394.3C16.112 1390.8 15.242 1392.7 14.604 1392.6C13.676 1392.5 12.69 1390 12.11 1392.6C11.646 1390.7 10.66 1390.2 9.90598 1390.9C9.49998 1391.3 8.91998 1392.5 8.91998 1394.2C8.74598 1401 10.138 1401.9 10.892 1403.4C11.124 1403.9 11.298 1403.7 11.588 1404.2C11.994 1405.1 12.4 1405.9 12.864 1406.7C13.096 1407.2 13.386 1408.1 13.56 1408.4C13.85 1408.8 14.256 1408.1 14.546 1408.4C14.894 1408.8 15.3 1410.4 15.648 1410.9C16.634 1412.3 17.562 1413.2 18.432 1414.2C19.186 1415.1 19.882 1415.2 20.636 1415.9C20.926 1416.2 21.158 1417.3 21.448 1417.6C22.318 1418.5 23.362 1418.3 24.232 1419.3C24.522 1419.6 24.754 1420.7 25.044 1421C25.798 1421.6 26.61 1420.4 27.248 1423.5C27.886 1422.5 28.64 1422.8 28.756 1426.8C26.03 1428 22.898 1424.7 20.288 1425.1C20.056 1424 19.94 1423.7 19.592 1423.4C18.722 1422.7 17.504 1422.7 16.808 1423.4C16.112 1420.4 15.126 1422.3 14.024 1421.7C13.038 1421.2 12.226 1419.5 11.53 1420C11.182 1420.3 10.66 1422.5 10.254 1422.5C10.312 1425 10.254 1428.2 10.66 1428.4C10.892 1429.8 11.356 1430 11.472 1431.7C12.168 1431.1 12.458 1433.1 13.154 1432.5C13.56 1435.8 14.604 1435.4 15.242 1437.5C15.59 1437.5 15.996 1437.5 16.344 1437.5C17.098 1439.5 17.968 1441 19.128 1440.8C19.476 1441.5 19.65 1443.1 20.114 1443.3C22.434 1445.7 24.928 1446.7 26.958 1450.8C27.654 1449.7 28.582 1449.8 29.162 1450.8C29.51 1451.3 30.032 1452.5 29.974 1454.1C29.8 1458.9 29.162 1456.3 28.582 1455.8C26.842 1458.5 24.406 1454.9 23.13 1456.6C22.492 1454.4 21.68 1454.3 20.926 1454.1C20.346 1453.9 19.824 1454.4 19.244 1454.1C18.664 1453.8 17.968 1452.7 17.272 1452.4C16.46 1452.1 15.59 1452.8 14.778 1452.4C14.43 1452.2 14.198 1451.1 13.792 1450.7C13.386 1450.3 12.922 1451.1 12.516 1449.9C12.342 1450.7 12.11 1451.3 11.936 1452.4C11.646 1452.8 11.124 1451.3 11.24 1454.1C11.24 1455.5 11.24 1456.9 11.24 1458.3C11.762 1461.4 12.574 1461.4 13.328 1462.5C14.43 1464.1 15.358 1466.8 16.518 1466.7C16.75 1467.9 17.156 1467.8 17.33 1469.2C17.678 1469.2 17.736 1467.8 18.142 1468.4C19.882 1472 22.028 1473.5 24.29 1474.3C25.218 1478.7 27.596 1474.6 28.466 1479.3C25.044 1481.8 22.26 1478.1 19.418 1476.8C18.258 1476.2 17.04 1476.9 15.938 1476C15.532 1475.6 15.184 1474.6 14.836 1474.3C13.502 1473.4 11.994 1472.6 10.66 1476C10.602 1481.3 11.182 1482.9 11.936 1483.5C13.386 1486.1 14.894 1488.8 16.402 1490.2C17.214 1491 18.2 1490.9 18.78 1491.9C20.056 1494.1 21.448 1494.6 22.84 1496.1C24.232 1497.6 25.682 1499.5 27.132 1499.4C27.48 1500.8 27.944 1501.3 28.408 1501.9C29.278 1501.8 30.264 1501.3 30.496 1505.2C29.858 1507.9 29.046 1506.8 28.292 1506.9C25.566 1507.2 22.898 1504.5 20.752 1505.2C19.708 1502.1 18.664 1503.6 17.678 1503.5C17.33 1503.5 17.156 1501.8 16.982 1501.8C16.982 1501.8 16.75 1503.3 16.576 1503.5C15.764 1504.4 15.416 1502.2 14.894 1501.8C14.72 1501.7 14.372 1502.7 14.198 1502.6C13.676 1502.5 13.038 1501 12.516 1500.9C12.226 1500.9 11.82 1501.6 11.53 1501.7C10.486 1502.2 9.38398 1500.3 8.45598 1504.2C8.51398 1506.9 8.62998 1507.8 8.86198 1509.2C9.32598 1511.9 10.022 1513.2 10.544 1514.2C10.776 1514.6 11.008 1513.8 11.24 1514.2C11.356 1514.5 11.414 1515.6 11.646 1515.9C11.878 1516.2 12.11 1515.7 12.342 1515.9C13.502 1520.5 15.416 1520.2 16.808 1523.4C18.896 1523.9 20.346 1528.2 22.492 1528.4C23.246 1531.8 24.406 1530.5 25.392 1531.7C25.798 1532.2 26.204 1533.8 26.668 1534.2C27.712 1535.3 28.698 1534.9 29.336 1536.7C29.51 1537.2 29.974 1538.5 29.916 1540C29.278 1542.8 28.118 1541.7 27.132 1541.7C25.972 1541.7 24.87 1541.2 24.058 1542.5C22.55 1539.5 20.114 1542.2 18.2 1540C17.794 1540.1 17.62 1541.5 17.214 1541.7C16.808 1541 16.518 1539.1 16.112 1538.4C14.662 1540.9 13.096 1537.7 11.646 1538.4C11.414 1538.5 11.24 1539.8 10.95 1540.1C10.312 1540.8 9.90598 1539.7 9.67398 1540.9C9.44198 1542.2 9.03598 1542 8.86198 1542.6C8.80398 1546.4 9.15198 1547.6 9.26798 1550.1C10.196 1551.4 11.182 1553.1 11.936 1554.3C12.11 1554.6 12.342 1554 12.516 1554.3C12.632 1554.6 12.69 1555.6 12.922 1556C13.444 1556.7 14.024 1556.2 14.604 1556.8C14.836 1557.1 15.184 1558.1 15.416 1558.5C16.75 1560.4 18.084 1560.8 19.476 1561C19.824 1561.7 19.998 1563.3 20.462 1563.5C21.738 1563.2 22.956 1563.6 23.652 1566.8C23.014 1568 22.376 1566.3 21.564 1566C20.752 1565.7 19.766 1566.7 18.896 1566C18.084 1565.4 17.214 1562.9 16.402 1565.2C15.88 1564.1 15.126 1563.8 14.314 1563.5C12.632 1563 10.776 1562 9.73198 1566C9.61598 1569.4 9.96398 1570.3 9.84798 1573.5C9.32598 1575.4 8.22398 1573.8 8.16598 1578.5C8.10798 1583.4 8.91998 1584 9.44198 1585.2C10.08 1586.7 10.776 1587.6 11.414 1588.5C12.052 1589.5 12.69 1590.9 13.386 1591.8C14.14 1592.8 14.894 1592.5 15.59 1593.5C16.228 1594.4 16.75 1596.3 17.388 1596.8C17.736 1597.1 18.2 1596.7 18.49 1596.8C19.302 1597.2 20.172 1598.5 20.984 1599.3C22.492 1600.7 24.232 1601.2 25.45 1603.5C25.682 1604 26.262 1602.8 26.146 1606C25.624 1607.8 25.16 1606 25.044 1606C24.754 1606 24.87 1608.5 24.464 1607.7C23.942 1605 23.188 1606.3 22.492 1606C21.912 1605.8 21.274 1604.2 20.694 1604.3C20.52 1604.3 20.462 1605.2 20.114 1605.1C19.36 1604.9 18.606 1603.7 17.91 1603.4C17.678 1603.3 17.62 1604.2 17.504 1604.2C17.214 1604.3 17.214 1603.4 16.924 1603.4C15.822 1603.2 15.01 1602.1 14.256 1601.7C12.922 1601.1 11.994 1602.5 11.182 1604.2C11.008 1612.6 12.284 1611.9 13.386 1612.6C14.256 1615.7 15.416 1614.7 16.17 1615.9C16.75 1616.9 17.388 1617.8 17.968 1618.4C18.896 1619.3 19.998 1619.1 20.752 1620.1C20.984 1620.4 21.216 1621.6 21.448 1621.8C21.854 1622.1 22.144 1621.5 22.55 1621.8C23.13 1622.2 23.71 1623.7 24.348 1624.3C25.45 1625.4 26.436 1626 27.538 1626C28.176 1628.1 29.684 1628.7 30.206 1628.5C30.844 1629.6 31.888 1628.3 32.004 1632.7C30.728 1634.3 29.394 1631.6 27.944 1631C27.712 1630.9 27.654 1631.8 27.538 1631.8C27.364 1631.9 27.248 1631 27.132 1631C25.798 1630.7 24.986 1629.7 23.942 1629.3C23.594 1629.2 23.188 1629.5 22.84 1629.3C21.506 1628.5 20.172 1626.5 18.954 1626C18.316 1625.7 17.736 1626.5 17.156 1626C16.808 1625.7 16.518 1624.5 16.17 1624.3C15.822 1624.1 15.474 1625.1 15.474 1625.1C15.358 1625.2 15.3 1624.3 15.358 1624.3C14.72 1624.5 14.314 1624.7 14.082 1625.1C13.502 1626.1 13.27 1625.7 13.096 1629.3C13.328 1635 14.372 1633.4 15.3 1634.3C15.648 1634.6 15.996 1635.5 16.286 1636C16.634 1636.5 17.272 1635.9 17.272 1638.5C15.184 1639.6 13.444 1633.2 11.82 1638.5C11.704 1642.3 12.168 1642.7 12.226 1645.2C15.184 1647.9 18.2 1652 21.158 1652.7C21.332 1653.5 21.506 1654.1 21.738 1654.4C22.608 1655.6 23.768 1656 24.812 1656.9C25.914 1657.8 27.132 1657.2 27.596 1661.1C27.016 1664.6 26.61 1660.8 25.914 1660.3C25.102 1661.8 24.348 1659.3 23.42 1658.6C22.434 1657.9 21.274 1658.1 20.346 1658.6C20.114 1657.4 19.94 1657.2 19.65 1656.9C18.084 1655.6 16.112 1656 14.662 1657.7C14.546 1661.1 14.894 1662 14.778 1665.2C15.3 1667 16.344 1666 16.17 1671.9C15.822 1673.6 15.01 1672.2 14.778 1674.4C14.662 1678.3 14.952 1679.4 15.068 1681.9C15.764 1682.9 16.286 1684.5 17.156 1684.4C17.62 1687.9 18.49 1689.1 18.838 1693.6C20.056 1694.2 20.694 1698.6 22.028 1698.6C22.26 1702.9 23.652 1700.6 23.826 1705.3C23.478 1710.3 22.434 1706.7 21.622 1706.1C20.868 1705.6 20.056 1706.7 19.534 1704.4C19.012 1703.8 19.012 1706.2 18.548 1706.1C18.2 1706.3 18.432 1702.9 17.968 1703.6C17.33 1704.1 17.098 1702.1 16.46 1702.8C15.822 1700.4 13.328 1696.2 12.98 1702.8C12.98 1707.4 13.734 1708 14.256 1709.5C14.314 1709.7 14.43 1711 14.546 1711.2C14.72 1711.5 14.952 1710.8 15.126 1711.2C15.184 1711.3 15.3 1712.6 15.416 1712.9C15.996 1714.8 16.518 1715.2 16.808 1717.9C17.098 1720.3 17.504 1718.6 17.794 1719.6C17.736 1721.6 17.504 1723.1 17.794 1724.6C18.374 1723.4 18.78 1726.1 18.896 1726.3C19.592 1727.2 20.694 1725.9 20.404 1730.5C19.592 1728.4 18.664 1730.7 17.736 1730.5C16.692 1730.3 15.59 1727.5 14.836 1731.3C14.72 1734.9 15.068 1735.9 15.416 1737.2C15.764 1738.5 15.822 1741.5 16.228 1742.2C16.924 1741.4 17.62 1741 17.91 1744.7C17.504 1745.5 18.084 1746.9 18.026 1748C17.62 1750.2 16.692 1749.3 16.228 1751.3C16.286 1753.3 16.518 1754.8 16.228 1756.3C16.518 1757.7 16.982 1759.1 17.504 1760.5C17.968 1761.9 18.838 1761.3 18.606 1764.7C17.794 1767.3 16.866 1762.9 16.112 1763C15.648 1763.1 15.358 1764.7 15.01 1765.5C15.184 1774.6 17.098 1773.4 18.49 1775.5C18.838 1778.8 19.998 1777.6 20.462 1780.5C21.332 1781.2 22.492 1779.8 22.434 1786.4C21.912 1789.2 21.1 1783.8 20.636 1786.4C20.752 1790 20.694 1790.1 20.752 1793.1C21.738 1794.3 22.666 1795.6 23.42 1798.1C24.348 1796.3 25.044 1798 25.624 1798.9C26.668 1800.5 27.828 1800 28.118 1804.8C27.77 1804.9 27.48 1805.3 27.306 1806.5C26.958 1806 27.016 1803.3 26.494 1804C25.856 1804.5 25.624 1802.5 24.986 1803.2C24.522 1803.4 25.334 1806.3 24.87 1806.5C24.522 1806.4 24.174 1806.4 24.058 1807.3C23.884 1810.8 24 1811 24.058 1814.8C23.652 1814.6 23.304 1814.7 23.362 1817.3C23.42 1821.3 23.768 1823.6 24.348 1824.8C24.812 1826.8 25.044 1830.2 25.74 1830.7C25.566 1834.4 26.146 1833.7 26.436 1834.9C26.61 1837.5 27.074 1839.2 27.422 1841.6C27.712 1843.8 28.234 1845.6 28.002 1849.1C27.828 1851.5 27.248 1846.8 27.016 1849.1C26.9 1852.2 27.306 1852.3 27.306 1854.9C27.538 1855.9 28.234 1855.9 27.886 1858.2C27.364 1860.1 27.248 1857.2 26.61 1857.4C26.262 1855.6 26.494 1854.1 26.32 1852.4C26.03 1852.6 25.856 1851.7 25.914 1849.9C25.74 1847.9 25.508 1851.4 25.334 1849.1C25.45 1844.6 24.232 1846.4 24.638 1842.4C24.348 1840.8 24.406 1842.9 23.942 1842.4C23.71 1840.9 23.942 1836.8 23.246 1838.2C23.188 1842.3 23.768 1842.2 24.058 1844.1C24.348 1845.9 24.464 1848.7 24.87 1850C25.334 1852.5 25.856 1854.6 26.146 1858.4C26.204 1860.1 26.784 1858.6 26.726 1860.9C27.19 1868 28.002 1872.8 28.118 1881.8C28.64 1885 28.872 1890.1 29.394 1893.5C29.336 1895.1 29.104 1895.6 29.104 1897.7C29.51 1897.8 29.394 1900.6 29.51 1901.9C29.858 1905.1 30.496 1906.7 30.786 1910.3C31.25 1912 31.83 1912.9 31.888 1917C32.99 1915.8 33.106 1924.6 33.976 1922C34.266 1916.8 33.338 1919.3 33.28 1916.1C32.932 1914.2 33.338 1912.8 33.28 1910.3C33.222 1909 32.7 1906.8 32.99 1906.1C33.164 1902.4 32.526 1903.4 32.584 1900.2C32.816 1897.6 32.526 1895.6 32.294 1893.5C32.584 1893.4 32.584 1891.4 32.584 1889.3C32.294 1887.3 32.004 1885.1 31.888 1881.8C31.714 1880 31.134 1880.1 31.076 1877.6C31.772 1875.2 31.366 1870.1 31.076 1866.7C30.496 1865.9 30.554 1869 30.09 1869.2C29.916 1869 29.568 1865.8 29.394 1868.4C28.814 1869.2 28.988 1865.9 28.408 1866.7C28.64 1862.7 28.118 1862.4 28.408 1857.5C28.872 1858.9 29.162 1857.9 29.684 1857.5C30.206 1859.6 29.974 1866.1 30.496 1864.2C30.496 1863.1 31.192 1862.5 30.786 1861.7C30.554 1860 30.844 1859.4 30.786 1857.5C30.728 1855.3 30.09 1854.1 30.206 1850.8C29.916 1849.6 29.51 1849.6 29.394 1847.5C29.858 1846.3 29.22 1843.4 29.51 1842.5C29.684 1843.7 29.916 1842.9 30.206 1843.3C30.496 1843.8 30.67 1845 30.902 1845C31.598 1845 31.772 1844.8 32.178 1841.7C32.236 1840 31.946 1839.9 31.888 1839.2C31.83 1838.7 31.83 1836.6 31.772 1835.9C31.598 1834.5 31.192 1832 30.96 1830.9C30.728 1829.9 30.438 1830.1 30.148 1829.2C30.09 1828.9 29.974 1827.9 29.858 1827.5C29.162 1825.1 28.466 1823.7 27.886 1821.6C27.596 1819.8 27.538 1816.4 27.074 1815.7C26.9 1814.1 26.494 1817.8 25.972 1816.5C25.798 1814.4 25.218 1814.4 25.392 1809.8C27.422 1809.4 29.162 1814.8 30.96 1813.1C31.192 1815.9 32.294 1816.7 32.642 1813.9C32.642 1812.9 32.642 1811.5 32.758 1811.4C32.584 1806.6 31.83 1805.3 31.25 1803C30.612 1803 29.858 1807 29.568 1802.2C29.684 1800.4 30.206 1800.8 30.38 1799.7C30.38 1797.6 30.38 1795.6 30.67 1795.5C31.366 1795.6 32.062 1795.4 32.352 1793C32.468 1784.9 30.844 1786.8 30.264 1783C29.916 1781 30.38 1779.4 30.264 1776.3C29.626 1774.3 28.756 1773.7 28.466 1769.6C29.22 1770.5 29.162 1766.7 29.568 1765.4C30.206 1765.4 30.554 1763.5 30.844 1761.2C30.96 1757.1 30.496 1756.7 30.438 1753.7C30.496 1752.1 30.96 1753 30.844 1750.4C30.67 1749 30.032 1750.4 30.032 1747.9C30.322 1746.1 30.554 1743.9 30.612 1740.4C30.438 1736.8 29.626 1736.9 29.336 1733.7C28.64 1735.4 28.002 1730.6 27.248 1729.5C26.204 1728 24.986 1728.9 23.768 1727.8C23.42 1727.5 23.536 1724.9 23.072 1725.3C22.898 1725.6 22.782 1726.5 22.492 1726.1C22.144 1723.5 21.274 1723.8 20.984 1721.1C22.55 1717.8 24.29 1721.8 25.856 1721.9C26.784 1722 27.596 1720.5 28.35 1722.7C28.756 1725.3 28.814 1730 29.336 1731.9C29.684 1728.6 28.698 1725 29.22 1721C30.206 1721.5 30.844 1720 31.308 1717.7C31.134 1715.2 31.192 1713.5 31.424 1711.8C30.96 1712.1 31.192 1709.5 31.018 1708.5C30.902 1707.9 30.67 1707.6 30.438 1706.8C29.858 1704.5 29.278 1702.2 28.64 1701C28.176 1700.1 27.596 1700.3 27.132 1699.3C26.958 1698.9 26.784 1698.1 26.552 1697.6C26.378 1697.2 25.914 1697.1 25.972 1695.1C28.176 1695.4 30.09 1697.1 31.946 1699.3C32.468 1696.5 32.758 1689.8 32.062 1686.8C32.352 1684.8 32.7 1683.3 32.642 1679.3C31.83 1672.1 30.264 1674.4 28.756 1673.4C28.524 1673.2 28.176 1672 27.944 1671.7C27.306 1671 26.552 1671.7 25.856 1670.9C25.566 1670.6 25.276 1669.4 25.044 1669.2C24.464 1668.9 23.884 1669.4 23.362 1669.2C22.608 1666.2 21.042 1668.3 20.462 1664.2C21.622 1664.9 22.26 1663.6 23.13 1665.9C23.826 1664.8 25.218 1665.9 25.914 1667.6C27.828 1666.9 29.916 1667.3 31.772 1668.4C32.004 1666.4 32.294 1664.8 32.178 1660.9C31.946 1658.3 31.366 1657.1 30.902 1655.9C30.612 1655.2 30.322 1655.6 30.09 1655.1C29.8 1654.5 29.742 1652.2 29.394 1652.6C28.93 1654.4 27.654 1653.8 27.422 1650.9C28.234 1649.4 29.452 1651.9 30.496 1651.7C30.728 1650.6 30.496 1646.7 30.902 1646.7C30.844 1641.6 29.684 1642.7 29.51 1638.3C30.438 1637.6 32.41 1639.2 33.28 1639.1C33.57 1636.5 33.802 1638.7 34.382 1637.4C34.614 1634.7 34.904 1632.8 34.788 1628.2C34.324 1626.2 33.686 1624.2 32.99 1623.2C32.758 1622.9 32.41 1623.4 32.178 1623.2C31.772 1622.9 31.424 1621.7 31.076 1621.5C29.626 1620.6 28.582 1620.6 27.886 1620.7C27.828 1618.9 27.422 1618.6 27.074 1618.2C26.088 1617.1 24.754 1617.4 24 1618.2C23.478 1617.3 23.13 1615.6 22.608 1614.9C22.028 1614.9 21.506 1614.9 20.926 1614.9C20.404 1615.1 20.404 1612.4 19.94 1612.4C19.534 1612.3 19.128 1615.9 18.954 1612.4C19.012 1609.2 19.476 1611.7 19.766 1611.6C20.114 1611.5 20.52 1610.6 20.868 1610.8C21.448 1611 22.028 1612.2 22.666 1612.5C23.188 1612.7 23.71 1612.1 24.174 1612.5C24.58 1612.8 24.87 1614.1 25.276 1614.2C26.436 1614.5 27.48 1613.1 28.35 1610.9C28.35 1607.3 28.582 1605.1 28.466 1600.9C27.886 1599.7 27.306 1598.2 26.784 1596.7C24.058 1596.3 22.086 1591.4 19.244 1591.7C18.664 1588.3 17.156 1590.2 16.46 1587.5C16.228 1588.2 15.938 1588.9 15.648 1589.2C15.242 1588.7 15.3 1585.7 14.836 1585.9C14.198 1585.9 13.444 1586.3 13.444 1582.6C14.43 1581.8 15.184 1584.8 15.938 1582.6C16.866 1585.4 18.316 1582.3 19.302 1585.9C19.65 1585.4 19.94 1584.7 20.404 1585.1C21.564 1586.3 23.014 1588.5 24 1589.3C24.348 1589.6 24.696 1589.1 25.102 1589.3C25.624 1589.5 26.146 1590.8 26.61 1591C26.842 1591.1 27.074 1590.2 27.306 1590.2C28.408 1590.2 29.452 1591.9 30.09 1588.5C30.148 1588.3 30.032 1587.1 30.09 1586.8C30.206 1585.8 30.67 1585.2 30.496 1583.5C30.148 1579.9 29.684 1579.4 29.104 1578.5C28.93 1578.2 28.698 1577 28.524 1576.8C28.292 1576.5 28.06 1577.7 27.944 1577.6C27.77 1577.5 27.712 1576 27.538 1575.9C27.248 1575.7 26.668 1578.5 26.552 1575.1C27.596 1572.8 29.568 1578.1 30.438 1571.8C30.322 1568.7 30.67 1567.3 30.438 1565.9C29.742 1560.6 28.466 1562.8 27.248 1561.7C26.958 1561.4 26.726 1560.2 26.436 1560C25.74 1559.6 25.102 1560.6 24.464 1560C24.116 1559.7 23.826 1557.8 23.478 1558.3C23.014 1557.9 22.724 1558.6 22.376 1559.1C22.086 1557.9 21.796 1556.9 21.39 1556.6C18.316 1555.2 15.706 1551 12.748 1549.1C12.806 1546.1 11.936 1549.1 12.052 1545.8C17.968 1543 24.464 1551.3 30.844 1547.5C31.192 1544.7 31.54 1542.1 31.424 1536.6C31.018 1532 29.974 1530.3 29.22 1529.1C28.524 1528.1 28.002 1528.2 27.248 1527.4C25.682 1525.6 24.058 1522 22.666 1523.2C22.376 1522.8 22.318 1521.4 21.97 1521.5C21.622 1521.2 21.68 1523 21.274 1522.3C20.984 1521.6 20.868 1519.8 20.462 1519.8C19.128 1519.6 18.258 1516.3 16.866 1516.5C15.822 1513.5 14.14 1511.1 12.806 1512.3C12.98 1508.6 11.994 1512.3 11.994 1509.8C12.284 1506.9 12.922 1508.2 13.27 1508.1C13.85 1508 14.314 1508.9 14.778 1508.9C15.068 1508.9 15.474 1508.1 15.764 1508.1C17.446 1507.9 19.244 1510.6 21.042 1510.6C21.274 1510.6 21.506 1509.7 21.738 1509.8C22.144 1510 22.55 1511.2 23.014 1511.5C23.42 1511.8 23.884 1511.3 24.29 1511.5C24.638 1511.7 25.044 1512.9 25.392 1513.2C25.682 1513.4 25.798 1512.4 25.972 1512.4C26.204 1512.3 26.494 1513.2 26.668 1513.2C28.002 1513.4 29.104 1514.6 30.148 1514C30.438 1513.9 30.728 1512.7 30.96 1512.3C31.366 1511.8 31.714 1512.6 32.062 1511.5C32.294 1508.8 32.526 1505.8 32.468 1501.5C31.134 1493.8 28.64 1493.2 26.204 1492.3C25.682 1490 24.928 1491.3 24.232 1490.6C24 1490.4 23.652 1489.1 23.42 1488.9C23.014 1488.6 22.492 1489.1 22.028 1488.9C21.738 1488.5 21.68 1487.1 21.332 1487.2C20.694 1486.6 19.824 1487.4 19.65 1483.9C20.172 1482.4 20.752 1484.5 21.332 1484.7C21.97 1485 22.666 1484.2 23.304 1484.7C23.71 1485 24.058 1486.2 24.406 1486.4C24.754 1486.5 25.044 1485.6 25.392 1485.6C25.566 1485.6 25.566 1486.4 25.798 1486.4C26.32 1486.4 26.726 1486.3 27.306 1486.4C28.988 1486.6 30.496 1488.8 31.772 1484.7C31.946 1481.4 31.83 1481.6 31.888 1478C30.96 1471 28.872 1472 27.016 1470.5C26.552 1470.1 26.204 1469.1 25.74 1468.8C25.392 1468.6 25.102 1469.1 24.754 1468.8C23.536 1467.7 22.376 1463.8 21.39 1467.1C21.274 1463.6 20.23 1465.7 19.998 1462.9C19.592 1462.1 18.606 1464.7 18.606 1461.2C18.896 1458 19.592 1460.5 19.998 1461.2C20.81 1460.2 21.68 1461.8 22.666 1462C23.246 1462.1 23.826 1461.8 24.464 1462C25.218 1462.3 26.03 1463.5 26.842 1463.7C27.132 1463.7 27.48 1462.9 27.828 1462.9C28.176 1462.9 28.582 1463.8 28.93 1463.7C29.568 1463.5 30.032 1461.4 30.612 1462.9C31.018 1461.3 31.366 1459.7 31.714 1457.9C31.598 1454.8 31.888 1453.9 31.83 1451.2C31.598 1448.5 31.134 1447.2 30.728 1446.2C30.206 1444.9 30.148 1445.3 29.452 1444.5C29.22 1444.2 28.988 1443 28.756 1442.8C28.292 1442.4 27.422 1441.9 27.248 1442C27.074 1442.1 27.074 1443 26.842 1442.8C26.668 1442.7 26.494 1441.5 26.262 1441.1C24.754 1438.9 23.246 1438.7 21.796 1437.8C21.39 1438 21.39 1435.9 20.984 1436.1C20.52 1435.4 20.462 1437.3 19.998 1436.9C19.766 1435.4 19.302 1435.1 19.012 1433.6C17.562 1433.7 16.46 1429.8 15.126 1431.9C15.068 1429.6 14.546 1430.4 14.43 1428.6C17.736 1426.4 21.332 1431.9 24.87 1432.8C25.102 1432.9 25.334 1431.9 25.566 1432C26.842 1432.1 28.176 1432.9 29.626 1432.8C30.09 1430.2 30.38 1424.3 30.032 1419.4C28.524 1414.6 26.146 1414.9 24.348 1411.9C22.434 1412.5 20.81 1407 19.186 1408.6C18.548 1404.5 16.982 1405.6 16.112 1402.7C15.474 1403 14.952 1402.6 14.72 1401.9C14.372 1400.6 13.676 1401.5 13.618 1398.6C14.894 1398.4 16.17 1398.2 17.504 1398.6C20.23 1399.4 22.55 1402.7 25.044 1403.6C26.204 1404 27.364 1403.6 28.524 1403.6C29.22 1403.6 29.916 1405.7 30.496 1401.9C30.67 1398.1 30.554 1395.4 30.496 1391.9C30.322 1390.5 30.09 1391 29.8 1390.2C29.568 1389.6 29.336 1388.1 29.104 1387.7C28.872 1387.2 28.582 1388.1 28.292 1387.7C28.06 1387.4 27.828 1386.3 27.596 1386C27.306 1385.7 27.016 1385.5 26.784 1385.2C25.914 1384.2 25.16 1383.9 24.406 1384.4C24.116 1384.4 24.232 1382.1 23.826 1382.7C22.318 1382.4 21.216 1379.5 19.65 1379.4C19.128 1377.3 18.49 1377.7 17.852 1376.9C17.504 1376.5 17.098 1375.7 16.75 1375.2C16.054 1374.3 15.184 1374.2 14.662 1371.9C14.198 1372.1 13.734 1373.9 13.56 1371.1C13.792 1367.4 14.488 1368.5 14.952 1368.6C15.416 1368.6 16.054 1370.1 16.46 1370.3C16.75 1370.4 16.75 1369.4 17.04 1369.5C17.214 1369.5 17.33 1370.2 17.62 1370.3C18.78 1370.8 19.998 1370.5 21.216 1371.1C21.796 1371.4 21.97 1372.7 22.318 1371.9C22.434 1371.6 22.55 1372.7 22.608 1372.7C23.42 1373 24.116 1372.4 24.812 1372.7C25.682 1375.7 26.726 1374.7 27.886 1375.2C29.394 1375.9 31.25 1378.8 32.758 1375.2C32.932 1371.3 33.048 1369.5 32.874 1365.2C32.468 1364.4 32.178 1362.6 31.772 1361.9C30.67 1359.4 29.162 1359.2 28.002 1356.9C27.48 1356 27.596 1359 27.19 1358.6C27.016 1357.2 26.9 1355.3 26.494 1355.3C26.262 1356 25.972 1356.7 25.682 1357C25.45 1356 25.218 1354.8 24.986 1353.7C24.638 1354.4 24.232 1354.8 23.71 1354.5C23.652 1353 23.246 1353.8 23.13 1353.7C22.782 1353 22.724 1352.3 22.434 1352C21.796 1351.4 21.1 1351.1 20.462 1352C20.172 1351 20.056 1348.9 19.65 1348.7C19.65 1350.5 19.07 1349.1 18.838 1349.5C18.432 1346.9 17.388 1348.1 16.75 1347C16.634 1346.2 16.46 1345.3 16.344 1344.5C15.358 1343.9 14.43 1343.3 13.85 1340.3C13.56 1339.9 13.27 1342.9 13.27 1339.5C14.256 1338.9 15.416 1339.5 16.054 1339.5C16.344 1339.5 16.518 1338.5 16.75 1338.7C17.214 1338.9 17.678 1340.1 18.142 1340.4C19.186 1340.9 20.52 1340.9 21.216 1341.2C21.912 1341.6 22.898 1341.3 23.014 1341.2C23.246 1341.1 23.478 1341.1 23.71 1341.2C26.03 1341.8 28.814 1346.1 30.786 1343.7C30.902 1343.6 30.902 1344.5 30.902 1344.5C31.888 1344.9 32.526 1343 33.28 1342C33.57 1340 33.628 1336.7 33.57 1332.8C33.222 1328.3 32.526 1327.5 31.772 1326.1C31.714 1326 31.54 1324.6 31.482 1324.4C31.25 1324 30.902 1324.7 30.67 1324.4C30.38 1324.1 30.206 1323 29.974 1322.7C28.872 1321.5 27.77 1320.2 26.784 1319.4C26.146 1318.9 25.508 1319.2 24.986 1318.6C24.754 1318.3 24.406 1317.2 24.174 1316.9C23.884 1316.6 23.536 1317.1 23.188 1316.9C22.376 1316.2 21.564 1314 20.81 1313.6C20.404 1313.3 20.056 1313.8 19.708 1313.6C18.954 1311.5 17.736 1311.3 16.924 1310.3C16.692 1310 16.054 1310.1 16.112 1307.8C16.344 1303.9 16.75 1308.9 17.388 1307.8C22.086 1308 26.552 1317.8 30.902 1310.3C31.018 1307.9 31.076 1305.1 31.192 1302.8C30.96 1300.3 30.728 1299.7 30.38 1298.6C29.916 1297.2 29.51 1297.7 28.988 1296.9C28.64 1296.3 28.292 1294.8 27.886 1294.4C26.146 1292.6 24.174 1293.9 22.724 1290.2C22.202 1289.7 22.202 1292 21.738 1291.9C21.448 1290.7 21.158 1289.7 20.752 1289.4C18.316 1289.5 16.75 1284.5 14.372 1284.4C13.618 1281.2 12.226 1281.5 11.298 1279.4C11.356 1277.1 11.704 1277.9 11.994 1277.7C12.516 1277.3 13.444 1277.4 13.676 1277.7C13.792 1277.8 13.792 1276.9 13.792 1276.9C14.952 1276.8 15.764 1277.3 16.576 1276.9C17.446 1276.5 18.374 1277.7 19.244 1276.9C19.708 1277.9 20.404 1279.4 21.216 1279.4C21.448 1279.4 21.796 1278.5 22.028 1278.6C22.492 1278.8 22.956 1280 23.42 1280.3C24.29 1280.7 25.624 1281.1 26.204 1281.1C26.494 1281.1 26.784 1280.2 27.016 1280.3C29.162 1281.1 32.12 1280.8 31.192 1266.1C29.916 1261.5 28.292 1261.4 26.726 1260.2C26.146 1259.8 25.624 1258.8 25.044 1258.5C24.638 1258.3 24.174 1258.8 23.768 1258.5C23.362 1258.2 23.014 1257.1 22.666 1256.8C22.144 1256.5 21.622 1257.1 21.158 1256.8C19.998 1256.2 18.838 1254.2 17.678 1253.5C17.33 1253.3 16.924 1253.8 16.576 1253.5C15.996 1253 15.358 1251.5 14.778 1251C13.908 1250.3 12.922 1250.2 12.11 1249.3C11.646 1248.8 11.182 1247.4 10.718 1246.8C10.196 1246.1 9.55798 1246.9 9.20998 1244.3C9.67398 1242.2 10.196 1243.5 10.718 1243.5C12.98 1243.4 14.662 1245.6 16.576 1246C17.156 1246.1 17.678 1245.1 18.258 1245.2C19.012 1245.2 19.708 1246.6 20.462 1246.9C21.68 1247.4 22.666 1247.1 23.652 1247.7C24 1247.9 24.406 1249.2 24.754 1249.4C24.986 1249.5 25.16 1248.5 25.45 1248.6C27.422 1248.8 29.568 1250.6 31.134 1245.3C31.366 1241.9 31.018 1239.9 31.25 1236.1C30.786 1234.2 30.148 1232 29.452 1231.1C29.162 1230.8 28.756 1231.3 28.35 1231.1C26.262 1230.2 23.478 1227.2 21.68 1228.6C20.81 1226.1 19.766 1226.6 18.78 1226.1C17.678 1225.5 16.634 1223.6 15.59 1222.8C14.894 1222.3 14.372 1222.5 13.908 1222C13.618 1221.6 13.328 1221.4 13.096 1221.2C12.574 1220.7 11.936 1221.1 11.588 1218.7C13.328 1218.3 15.416 1217.3 17.446 1217.9C18.084 1218.1 18.664 1219 19.244 1218.7C19.65 1218.5 19.998 1217.8 20.346 1217.9C21.042 1218.1 21.68 1220 22.434 1220.4C23.072 1220.8 23.884 1220.2 24.522 1220.4C26.436 1220.9 28.06 1222.1 29.8 1221.2C30.496 1220.9 31.134 1220.1 31.598 1217.9C31.598 1213.6 31.83 1212.4 31.598 1208.7C30.67 1205.3 28.64 1204.4 27.422 1205.4C27.016 1203.4 26.494 1204.7 26.03 1204.6C25.624 1204.5 25.276 1203.8 25.044 1203.8C24.87 1203.7 24.87 1204.7 24.638 1204.6C23.478 1204.2 22.26 1202.4 21.042 1202.1C20.81 1202 20.578 1203 20.346 1202.9C18.316 1202.6 16.576 1198.9 14.894 1200.4C13.792 1195.8 11.53 1198.3 10.428 1193.7C10.95 1192.4 11.53 1193.1 12.11 1192.9C12.574 1192.7 13.038 1191.9 13.502 1192.1C16.054 1192.8 19.07 1192.2 21.854 1193.8C22.318 1194.1 22.898 1195.3 23.362 1195.5C23.594 1195.6 23.942 1194.7 24.174 1194.7C24.406 1194.7 24.696 1195.5 24.986 1195.5C25.218 1195.5 25.392 1194.7 25.682 1194.7C25.914 1194.7 26.088 1195.5 26.378 1195.5C26.61 1195.5 26.958 1194.6 27.074 1194.7C27.306 1194.9 27.422 1196.3 27.77 1196.4C29.8 1197.1 32.12 1195.6 32.932 1190.5C32.816 1187.3 33.164 1185.2 32.932 1183.8C32.236 1177.9 30.322 1179.5 29.046 1177.1C28.524 1176.2 28.64 1179.2 28.234 1178.8C27.48 1175.4 26.146 1177.1 25.45 1177.1C24.812 1177.1 24.232 1175.5 23.652 1175.4C23.072 1174.4 23.13 1177.2 22.666 1177.1C21.796 1172.5 20.346 1173.9 19.07 1172.9C18.78 1172.7 18.548 1171.5 18.258 1171.2C17.91 1170.9 17.504 1171.6 17.156 1171.2C16.808 1170.9 16.518 1169.8 16.17 1169.5C15.88 1169.2 15.184 1171.2 15.068 1167.8C16.866 1166.5 18.722 1165.3 20.636 1165.3C22.666 1165.3 24.754 1167.5 26.784 1167C28.002 1166.7 29.336 1165.9 30.38 1162C30.264 1158.9 30.554 1158 30.496 1155.3C29.684 1152.3 28.93 1153.6 28.002 1153.6C27.248 1153.6 26.32 1153.4 25.624 1152.8C25.276 1152.5 24.986 1151.3 24.638 1151.1C24.406 1151 24.174 1151.9 24.058 1151.9C23.42 1152 22.608 1149.7 21.97 1151.9C21.622 1152.1 21.854 1148.7 21.39 1149.4C20.81 1151.7 19.766 1151.4 19.418 1147.7C20.288 1146.8 21.158 1148.5 21.912 1148.5C22.202 1148.5 22.376 1147.5 22.608 1147.7C23.014 1147.9 23.42 1149.1 23.884 1149.4C24.522 1149.8 25.276 1148.3 25.856 1150.2C26.204 1147.9 27.132 1150.2 27.828 1150.2C28.234 1150.2 28.64 1149.3 29.104 1149.4C30.206 1149.5 32.7 1153.2 32.99 1145.2C33.048 1143.4 32.816 1142.5 32.99 1141C32.758 1137.5 31.482 1140.2 31.308 1136C32.12 1134.9 32.874 1136 33.976 1135.2C34.382 1132.6 34.904 1130.6 34.788 1125.2C34.498 1119.6 33.338 1121.2 33.976 1117.7C34.382 1115.5 33.86 1112.4 33.976 1110.2C33.976 1107.8 34.556 1108.7 34.556 1106C34.556 1103.2 34.556 1100.4 34.556 1097.6C31.888 1092.4 28.292 1093.7 25.102 1092.6C22.956 1091.9 20.984 1087.9 19.128 1090.1C18.78 1089.4 18.606 1087.8 18.142 1087.6C17.446 1086.8 17.156 1088.6 16.866 1085.9C18.2 1084.3 19.998 1085.8 21.332 1084.2C22.492 1088.5 24.406 1085.3 25.624 1089.2C26.958 1087.6 28.872 1090.3 30.612 1090.9C31.598 1091.2 32.584 1089.9 32.99 1092.6C34.382 1090.8 36.064 1094 37.456 1095.1C37.92 1093.4 38.5 1092.6 39.138 1091.8C39.254 1089.3 39.544 1088.2 39.428 1084.3C39.138 1082.4 38.616 1080.3 38.036 1079.3C37.398 1078.2 36.528 1079.8 36.064 1076.8C35.832 1071.8 36.702 1073.4 36.644 1069.3C36.876 1067.9 36.76 1064.4 36.76 1061.8C36.354 1057.9 35.368 1057.3 34.672 1055.1C34.846 1052.3 35.774 1053.8 36.064 1051.8C36.354 1046.6 36.006 1044.4 35.658 1040.9C35.774 1039.1 36.006 1037.2 35.774 1035.9C35.136 1035.5 34.614 1033.2 33.976 1032.6C33.28 1031.9 32.468 1032 31.772 1031.8C28.118 1030.7 23.884 1032.2 20.346 1028.5C19.766 1028.5 19.824 1032.7 19.244 1032.7C18.78 1029.9 17.62 1031.3 16.866 1030.2C17.04 1029 17.04 1028.1 16.866 1026.9C15.822 1026.5 14.662 1026.6 13.966 1024.4C15.996 1021.3 17.968 1025.6 19.534 1021.9C19.824 1022.4 19.94 1024 20.346 1023.6C25.624 1023.6 29.394 1024.7 33.57 1023.6C33.976 1022.3 34.208 1020.2 34.672 1019.4C35.774 1020 37.456 1020 38.558 1019.4C39.892 1018.7 41.632 1022 42.328 1016.1C42.386 1012.5 41.864 1012.7 41.922 1009.4C41.052 1007.3 40.124 1005.7 39.022 1005.2C38.384 1004.9 37.34 1004.3 37.05 1004.4C36.992 1004.4 36.76 1005.3 36.47 1005.2C35.658 1004.9 34.846 1003.7 34.092 1003.5C32.236 1003 31.018 1002.6 29.8 999.3C29.684 1000.5 29.336 1000.5 29.104 1001C28.814 999.8 28.524 999.1 28.118 998.5C27.596 1000 27.19 997.9 26.726 996.8C26.378 997.6 25.914 998.2 25.74 996C25.16 995.2 25.334 998.5 24.754 997.7C24.812 994.6 24.232 995.2 23.942 994.4C22.492 995.3 22.086 993.6 20.752 994.4C20.346 993 19.766 991.9 19.244 993.6C19.128 992 18.896 991.4 18.548 991.1C16.924 991.2 15.126 988.8 13.792 989.4C13.096 986.6 12.284 985.8 11.298 986.9C11.24 984.2 10.37 986.2 10.602 981.9C13.386 982.6 15.648 986 18.258 984.4C18.49 985.4 18.606 986.8 18.954 986.9C20.23 985.7 21.564 988.1 23.014 988.6C23.478 988.8 24.058 988.2 24.522 988.6C24.87 988.9 25.16 990.1 25.508 990.3C26.088 990.6 26.726 989.8 27.306 990.3C27.596 990.6 27.944 991.8 28.292 992C28.582 992.1 28.872 991.2 29.104 991.2C32.004 991.2 35.136 995.1 37.746 988.7C38.5 988.6 39.428 989.4 39.834 987C40.066 981.2 39.486 980.1 39.428 976.1C41.168 977 42.56 976.1 42.328 965.2C40.588 951.9 35.832 960.1 33.164 956C32.584 955.4 32.7 958.7 32.062 957.7C31.946 955.5 31.25 956.9 31.25 954.4C32.352 953.7 33.396 955.7 34.324 954.4C34.904 953.6 35.194 951 35.716 950.2C38.036 949.7 40.066 951.3 41.864 950.2C42.154 948 42.038 942.5 41.864 940.2C39.95 933.5 37.34 935.1 34.672 934ZM28.118 1873.6C28.408 1873.3 28.582 1873.7 28.698 1874.4C28.814 1875.1 28.756 1876.1 28.814 1876.9C28.93 1877.8 29.278 1879.2 29.394 1880.2C29.452 1880.6 29.336 1881.5 29.394 1881.9C29.626 1883.6 29.8 1885.2 30.09 1886.1C30.206 1891.2 30.902 1893.1 31.076 1897.8C31.482 1897 32.526 1895.4 32.352 1900.3C31.83 1901.1 31.772 1897 31.366 1899.5C31.25 1902.2 31.83 1900.7 31.946 1902C32.004 1904.5 32.526 1904.1 32.352 1907.9C31.83 1907.5 31.656 1904.7 31.076 1904.6C30.728 1900 30.322 1895.8 29.684 1892.9C29.51 1887.1 28.814 1884.6 28.698 1878.7C28.582 1877.5 28.466 1876.1 28.118 1876.2C28.118 1875.3 28.118 1874.4 28.118 1873.6ZM4.85998 1011.8C4.85998 1011 5.03398 1011.2 5.14998 1011C5.55598 1008.7 5.72998 1011.8 6.13598 1011.8C8.16598 1009.2 10.602 1009.2 12.98 1010.1C14.894 1010.9 17.04 1009.8 18.664 1010.9C18.954 1011.1 19.418 1011.3 19.65 1011.7C19.766 1011.9 20.288 1012 20.23 1014.2C16.112 1015.6 12.11 1012.2 8.39798 1014.2C7.87598 1014.5 7.46998 1015.1 7.00598 1015.9C6.19398 1014.8 5.43998 1013.9 4.85998 1011.8ZM7.12198 1024.3C8.68798 1026.2 9.84798 1030.4 11.588 1031C11.588 1033.8 10.95 1033.3 10.602 1033.5C9.44198 1034.2 7.99198 1031.8 7.23798 1030.2C7.23798 1028.6 7.12198 1027.4 6.94798 1026.9C6.94798 1025.5 7.12198 1025.4 7.12198 1024.3ZM6.94798 890.6C7.46998 887 9.26798 887.5 10.022 889.8C10.544 890.1 10.95 889.7 11.298 889C12.284 892.1 14.082 891.5 15.88 893.2C17.736 894.9 19.766 897.8 21.564 900.7C22.318 901.9 22.956 902.5 23.768 903.2C23.884 903.3 24.464 902.3 24.348 904.9C23.362 904.5 22.376 905.4 21.448 904.9C21.1 904.7 20.868 903.6 20.462 903.2C20.114 902.8 19.708 903.5 19.36 903.2C19.012 903 18.722 901.9 18.374 901.5C17.678 900.8 16.982 900.5 16.17 899.8C15.068 898.9 13.444 898.8 12.284 897.3C12.052 897 11.936 895.9 11.704 895.6C11.066 894.7 10.428 895.2 9.90598 893.1C9.26798 892.1 9.38398 895.4 8.80398 894.8C8.51398 891.3 7.35398 893.3 6.94798 890.6ZM8.22398 937.4C8.22398 936.6 8.22398 935.7 8.22398 934.9C10.08 933.1 11.704 934.9 13.502 935.7C13.85 935.9 14.256 935.4 14.604 935.7C15.3 936.3 15.996 938.2 16.692 939C17.388 939.8 18.142 939.4 18.78 941.5C18.954 944.3 18.374 943.6 18.2 944C17.794 945.5 16.46 942.9 15.532 944.8C15.126 944.9 14.894 943.8 14.546 943.1C14.14 942.5 14.256 945.4 13.85 944.8C13.502 941.8 12.342 943.9 11.762 942.3C11.24 941.6 11.24 944.3 10.95 944.8C10.486 944.6 9.84798 945.4 9.55798 944C9.67398 942.3 10.254 943.8 10.138 940.7C9.61598 939.1 9.03598 937.5 8.22398 937.4ZM8.62998 1083.7C8.68798 1080.2 10.312 1079.7 10.428 1082C10.66 1085 9.96398 1082.5 10.022 1084.5C9.38398 1083.5 9.15198 1085.3 8.62998 1083.7ZM8.80398 814.5C8.91998 814.9 9.03598 815.4 9.20998 815.3C9.15198 816 9.09398 816.7 9.09398 817.8C8.62998 818.2 8.57198 815.7 8.80398 814.5ZM10.718 742.6C10.718 742 10.718 741.5 10.718 740.9C10.834 741 10.834 740.6 10.834 740.1C10.95 740.1 11.008 740.1 11.124 740.1C11.124 740.8 11.182 740.9 11.24 740.9C11.24 741.5 11.24 742 11.24 742.6C11.124 742.5 11.124 742.9 11.124 743.4C11.008 743.4 10.95 743.4 10.834 743.4C10.892 742.7 10.834 742.6 10.718 742.6ZM11.008 964.9C11.008 964.1 11.008 963.2 11.008 962.4C11.646 963.3 12.458 963 12.806 965.7C13.096 965.3 13.502 964 13.792 965.7C13.038 967.9 11.704 966.2 11.008 964.9ZM11.414 975.8C11.356 974.4 11.53 974.4 11.53 973.3C11.878 973.2 11.936 974.6 12.226 975C12.226 976.8 11.646 975.3 11.414 975.8ZM12.284 1034.3C12.458 1034.3 12.632 1034.3 12.864 1034.3C12.922 1036.5 12.806 1037.9 12.458 1037.6C12.284 1036.9 12.226 1035.8 12.284 1034.3ZM12.4 1096.2C12.69 1094.9 13.386 1093.6 13.386 1097C12.922 1097.4 12.864 1095.5 12.4 1096.2ZM12.516 1119.6C13.618 1119.1 15.532 1117.4 16.692 1120.4C17.736 1119.9 19.012 1119.1 20.288 1120.4C20.578 1120.7 21.216 1119.7 21.1 1122.9C20.868 1124.4 20.636 1122.3 20.404 1122.1C18.374 1120.4 15.3 1123.4 13.038 1122.1C13.038 1120.4 12.748 1120.4 12.516 1119.6ZM12.69 710.8C12.69 710.2 12.69 709.7 12.69 709.1C12.574 705.8 13.27 708.4 13.386 709.1C14.082 709 14.836 709.2 15.474 709.9C16.982 711.7 18.664 714.8 20.346 716.6C21.738 718.1 23.188 718.3 24.522 721.6C26.146 721.9 27.306 724.8 28.814 725.8C28.06 728.8 27.016 727.6 26.03 726.6C25.682 726.3 25.392 726.1 25.044 725.8C24.754 725.5 24.464 724.4 24.232 724.1C22.782 722.8 21.274 723.5 20.462 719.9C19.998 721.3 19.94 719.7 19.36 719.9C17.62 716.5 15.474 715.5 13.908 710.7C13.328 710.7 13.154 712.3 12.69 710.8ZM12.98 720C12.864 716.8 13.908 718.2 13.676 720.8C13.328 721.1 13.096 720.7 12.98 720ZM13.386 1068.6C13.444 1067.4 13.792 1068.3 13.792 1066.9C14.836 1066.2 16.054 1067.5 17.156 1067.7C17.504 1067.8 17.852 1066.9 18.258 1066.9C19.882 1066.9 22.202 1067.9 24.116 1068.6C24.58 1068.8 25.218 1068.9 25.624 1069.4C25.914 1069.8 26.494 1070.4 26.61 1072.7C24.87 1074.3 21.854 1075.4 19.534 1074.4C19.244 1074.3 19.012 1073.5 18.722 1073.6C18.258 1073.7 17.91 1075 17.446 1075.3C16.46 1075.9 15.59 1074.1 14.662 1074.5C14.546 1071.9 15.068 1072.9 14.952 1070.3C14.372 1069.9 13.792 1069.6 13.386 1068.6ZM14.894 752.6C14.778 749.7 15.242 748.9 15.474 750.1C15.474 752.3 15.242 752.9 14.894 752.6ZM15.3 1106.2C15.3 1105.2 15.358 1104.7 15.416 1104.5C15.764 1103.4 16.054 1105.5 16.402 1105.3C16.576 1105.2 16.75 1103.6 17.214 1103.6C17.91 1103.6 18.664 1104.8 19.418 1105.3C19.824 1105.6 20.23 1105 20.694 1105.3C20.984 1105.5 21.332 1106.8 21.68 1107C21.912 1107.1 22.144 1106.2 22.376 1106.2C22.956 1106.1 23.478 1107.6 24.058 1107.9C27.422 1109.4 30.612 1106.6 32.526 1115.4C32.468 1120.5 31.424 1117.3 30.728 1117.1C29.452 1116.7 27.886 1117.3 26.958 1115.4C26.668 1113.7 26.668 1115.8 26.378 1116.2C25.74 1114.5 25.044 1114.4 24.406 1115.4C23.884 1113.4 23.188 1114.4 22.434 1113.7C22.202 1113.5 21.97 1112.3 21.738 1112C20.984 1111.2 20.172 1111.2 19.36 1110.3C18.316 1109.1 17.33 1107.8 16.46 1106.1C16.17 1107.3 15.706 1107.3 15.3 1106.2ZM15.88 752.6C15.88 751.8 15.88 750.9 15.88 750.1C16.46 748.9 17.04 750.9 17.678 750.9C18.316 750.9 18.838 749.9 19.476 750.1C20.694 750.5 21.854 752.8 22.956 753.4C22.086 756.8 19.998 755.1 19.186 752.6C18.2 754.9 17.098 751.7 15.88 752.6ZM16.576 978.3C16.634 975.6 17.504 976.4 17.388 979.1C16.982 979.8 16.924 978.3 16.576 978.3ZM16.576 959.9C16.518 958.3 17.214 957.2 17.272 959.1C17.388 962.1 16.692 960.6 16.576 959.9ZM17.968 1712.3C18.142 1709.8 19.07 1710.6 19.07 1714C18.606 1712.1 18.432 1713.6 17.968 1712.3ZM18.084 1149.7C17.91 1146.2 19.07 1146.2 18.896 1149.7C18.432 1149 18.374 1151.2 18.084 1149.7ZM18.78 785.2C19.012 783 19.476 784.8 19.882 785.2C20.288 785.5 21.042 784.5 20.984 787.7C20.114 787.8 19.824 786.6 19.012 787.7C19.07 786.3 18.954 785.6 18.78 785.2ZM19.36 936.5C19.36 935.7 19.36 934.8 19.36 934C19.766 934.1 20.172 934.3 20.056 937.3C19.65 938.1 19.708 936.2 19.36 936.5ZM20.462 1212.4C20.636 1208.5 22.202 1209.4 22.55 1211.6C22.086 1218.2 21.274 1209.2 20.462 1212.4ZM20.868 1574.3C20.752 1571.4 21.332 1571.3 21.564 1572.6C21.506 1574.4 21.158 1576.1 20.868 1574.3ZM21.448 1731.5C21.68 1730.2 22.086 1732.6 22.434 1733.2C22.434 1736.4 21.1 1735.3 21.448 1731.5ZM21.854 1575.2C21.854 1572 23.594 1573.6 23.942 1574.4C23.304 1577.1 22.666 1575.1 21.854 1575.2ZM22.724 944.1C22.782 943.4 22.84 942.6 23.014 942.4C24.232 942.3 25.508 942.1 26.204 944.9C26.9 943.7 27.48 942.6 28.002 945.7C28.002 949.4 27.306 946.5 27.016 946.5C26.784 946.5 26.726 947.4 26.436 947.3C25.276 947.1 23.826 944.7 22.724 944.1ZM23.13 1785C23.594 1785.2 24.058 1785.7 23.942 1789.2C23.71 1789.2 23.478 1789.2 23.246 1789.2C23.362 1786.8 23.072 1787 23.13 1785ZM23.13 1213.2C23.072 1211.9 23.246 1211.8 23.246 1210.7C23.594 1209.9 23.942 1211.4 24.232 1211.5C24.464 1211.6 24.58 1210.1 24.812 1210.7C24.812 1210.8 24.928 1212.4 24.928 1212.4C25.276 1212.5 25.74 1211.4 26.204 1211.6C26.726 1211.8 27.306 1212.4 27.886 1213.3C28.002 1216.3 27.306 1214.8 27.19 1214.1C26.784 1213.9 26.784 1216 26.378 1215.8C25.45 1212.2 24 1215.2 23.13 1213.2ZM23.42 1048.5C23.362 1044.9 24.174 1047.6 24.406 1047.7C24.29 1049.6 23.71 1048 23.42 1048.5ZM26.03 1716.4C26.03 1715.6 26.03 1714.7 26.03 1713.9C26.378 1712.2 27.19 1713.2 27.132 1716.4C26.784 1716.4 26.436 1716.4 26.03 1716.4ZM26.204 1823.4C26.32 1825.1 27.016 1822.9 26.9 1825.9C26.494 1826.1 26.088 1826.1 26.204 1823.4ZM26.204 1127.1C26.494 1125.4 26.784 1125.4 27.19 1126.3C27.19 1130.5 26.436 1128.2 26.204 1127.1ZM26.436 1013.4C26.842 1011.7 27.19 1013.8 27.828 1012.6C27.77 1015.2 27.132 1014.6 26.842 1015.9C26.784 1014.7 26.668 1013.9 26.436 1013.4ZM27.016 1707.3C28.176 1706 30.09 1709.4 29.8 1716.5C29.104 1716.5 28.408 1716.5 27.712 1716.5C27.596 1712.7 26.842 1712.8 27.016 1707.3ZM27.712 963.3C27.77 962.6 27.828 961.8 28.002 961.6C28.756 962.9 29.742 962.9 30.496 964.1C29.974 967.1 28.35 964.9 27.712 963.3ZM27.712 786.9C27.828 785.4 27.944 784 28.408 784.4C28.524 787.6 27.944 788.3 27.712 786.9ZM28.002 942.4C28.06 941.3 28.234 941.1 28.292 939.9C28.524 939.8 28.582 940.9 28.872 940.7C28.872 943.4 28.234 943.7 28.002 942.4ZM28.814 1047.7C28.698 1044.7 29.394 1046.2 29.51 1046.9C29.394 1049.7 29.278 1047.3 28.814 1047.7ZM28.814 946.6C28.872 943.5 29.568 944.1 29.916 944.9C29.916 947.5 29.22 946.3 28.814 946.6ZM29.22 1128C29.22 1127 29.278 1126.5 29.336 1126.3C29.684 1125.2 30.554 1125.2 31.308 1125.5C31.946 1125.7 32.874 1125.3 32.7 1128C32.816 1130.7 32.12 1129.6 31.888 1129.7C31.134 1130 30.322 1129.2 29.684 1128.9C29.452 1129 29.394 1128 29.22 1128ZM29.394 728.4C29.278 724.6 30.322 725.3 30.09 729.2C29.742 729.5 29.568 729.1 29.394 728.4ZM31.076 1076.1C31.366 1074.8 31.598 1073.1 31.888 1071.9C32.468 1074.1 34.092 1070.5 34.092 1076.1C33.28 1077.9 31.83 1078.8 31.076 1076.1ZM31.076 966.6C31.076 964.3 31.714 964.6 31.888 965.8C31.888 967.6 31.308 966.1 31.076 966.6ZM32.004 944.1C31.888 946.6 31.772 948.9 31.308 949.1C30.96 946.3 31.482 943.7 32.004 944.1ZM31.598 1014.3C31.714 1012.4 32.526 1013.6 32.41 1016C31.946 1016.6 31.83 1015 31.598 1014.3ZM32.468 1911.2C32.468 1917.7 33.512 1911.7 32.468 1911.2V1911.2ZM32.468 944.9C32.352 942.1 32.874 943.6 33.164 943.2C33.222 946.1 32.642 946.2 32.468 944.9ZM33.86 966.6C33.918 965.9 33.976 965.1 34.15 964.9C35.658 965.8 37.746 963.7 39.138 964.9C39.544 965.2 40.24 965 40.24 968.2C38.79 968.1 38.268 969 36.76 969C36.818 970.6 36.818 972.6 37.166 972.3C36.586 974.2 35.426 972.7 35.484 968.1C34.788 967.5 34.44 970.2 33.86 966.6Z" fill="#EBFF00"/>
<path fill-rule="evenodd" clip-rule="evenodd" d="M24.116 1832.6C25.044 1833.3 26.262 1838.1 26.32 1846.8C26.262 1849 26.842 1847.5 26.726 1850.1C26.32 1851.4 26.204 1848.2 26.03 1846.8C25.798 1845.2 25.45 1844.4 25.45 1840.9C25.276 1839.6 24.754 1840 24.638 1838.4C24.638 1836.6 24.754 1835.7 25.044 1835.9C24.87 1834 24 1836.3 24.116 1832.6Z" fill="#EBFF00"/>
</svg>
