<svg width="45" height="1931" viewBox="0 0 45 1931" fill="none" xmlns="http://www.w3.org/2000/svg">
<path fill-rule="evenodd" clip-rule="evenodd" d="M21.6599 1830.3C21.6599 1828.2 21.8999 1827.7 21.9599 1826.1C22.5599 1826.2 23.2199 1828.3 22.7999 1823.6C23.0399 1824 23.1599 1824.8 23.3999 1825.3C23.3399 1828.3 22.9199 1829.3 22.3799 1829.5C22.4399 1834.3 23.3999 1833.6 23.2199 1839.5C22.6199 1836.8 22.3799 1832.1 21.6599 1830.3Z" fill="#EBFF00"/>
<path fill-rule="evenodd" clip-rule="evenodd" d="M28.1399 1913.9C28.6199 1917.3 29.2199 1919.8 29.5799 1923.9C30.4799 1923.4 30.5999 1927.5 31.0199 1929.8C30.1799 1932.7 29.5199 1928.6 28.9799 1925.6C28.7399 1924.2 28.4399 1923.5 28.3799 1923.1C28.3199 1922.5 28.4399 1921.2 28.3799 1920.6C28.3799 1920 27.6599 1916.2 28.1399 1913.9Z" fill="#EBFF00"/>
<path fill-rule="evenodd" clip-rule="evenodd" d="M29.7 1773.4C29.88 1771.3 30.18 1771.9 30.54 1772.6C30.9 1770.6 30.3 1771 30.42 1768.4C30.96 1769.2 31.44 1770.3 31.44 1774.3C30.84 1774 30.06 1775.1 29.7 1773.4Z" fill="#EBFF00"/>
<path fill-rule="evenodd" clip-rule="evenodd" d="M35.04 935C34.38 934.7 33.66 933.6 33 933.3C32.4 933.1 31.86 933.6 31.26 933.3C30.72 933 30.18 932 29.7 931.6C29.28 931.3 28.92 931.8 28.56 931.6C26.34 930.7 24.06 927.4 21.78 929.1C21 925.7 19.74 926.6 18.6 925.8C18.36 925.6 18.06 924.3 17.76 924.1C16.98 923.6 16.62 923.5 16.2 922.4C15.72 921.4 16.08 925.1 15.6 924.1C15 920.4 13.44 919.3 12.42 918.2C12.12 917.9 11.7 914.5 11.58 918.2C11.88 918.6 12.42 917.1 12.3 919.9C11.34 920.2 10.74 918.3 10.56 914C11.7 912 14.04 913.1 15.3 914C16.74 915 18.24 913.7 19.62 914.8C19.98 915.1 20.28 916.2 20.64 916.5C21.18 916.8 21.78 916.2 22.38 916.5C22.74 916.7 23.16 917.9 23.52 918.2C23.94 918.5 24.36 917.9 24.84 918.2C25.32 918.5 25.8 919.6 26.28 919.9C26.82 920.2 27.42 919.7 28.02 919.9C29.22 920.3 30.54 921.8 31.74 922.4C32.7 922.9 33.66 922.4 34.5 923.2C34.92 923.6 35.16 924.8 35.52 924.9C35.82 925 36.18 924.2 36.54 924.1C37.32 923.8 37.92 924.7 38.4 924.9C38.58 925 38.76 924.1 38.82 924.1C39 924.1 39.12 924.9 39.42 924.9C40.92 925.2 42.66 925.9 44.34 927.4C44.7 924.6 44.4 923 44.64 919C41.28 912.1 35.7 911.8 32.1 914C31.8 910.2 30.48 912.2 29.94 909.8C29.94 907.8 29.94 905.9 29.94 903.9C28.08 903.9 27.3 902.2 25.62 902.2C25.38 899.8 24.54 901.3 24.3 898.9C23.7 898.5 22.74 900.2 22.74 896.4C23.7 895.4 24.6 897.6 25.62 898.1C26.04 898.3 26.58 897.7 27.06 898.1C27.42 898.4 27.84 899.6 28.2 899.8C29.22 900.3 30.18 899.5 31.2 899.8C33.12 900.3 35.82 902.3 37.56 902.3C37.8 902.3 37.92 901.2 38.16 901.5C38.16 901.5 38.28 903.1 38.28 903.2C38.4 903.5 38.58 903.1 38.7 903.2C39.84 903.8 40.86 903.1 41.88 904C42.66 904.7 43.38 907.9 44.16 905.7C44.52 903.1 43.98 900.6 44.46 899C43.86 895.4 43.14 893.8 42.3 893.1C39.54 891.1 36.12 894 32.82 893.1C31.5 892.7 30.24 891.3 28.92 890.6C27.24 889.7 25.62 890 24.18 888.9C23.88 888.7 23.52 887.4 23.16 887.2C22.26 886.6 21.78 887.1 21.3 885.5C20.88 884.9 20.76 886.4 20.46 886.3C18.42 882.9 15.24 881.6 12.54 879.6C11.76 876.1 9.89999 876.8 9.35999 873.8C9.11999 872.5 8.63999 873.4 8.63999 871.3C10.02 866.2 12.06 869.8 14.4 870.5C16.02 871 17.46 869.3 18.3 872.2C20.4 870.3 22.38 874.7 24.66 875.5C27.3 876.5 30 875.5 32.58 874.7C32.7 873.1 32.82 871.6 32.88 869.7C32.46 863.7 31.2 865.1 29.88 864.7C28.68 864.3 27.36 863.2 26.28 863.9C25.74 863 25.86 866 25.44 865.6C25.32 863.1 24.6 863.9 24.12 863.1C23.64 862.7 23.58 864.3 23.28 864.8C23.04 862.6 22.38 862.6 21.96 862.3C21.48 861.9 20.76 861.4 20.22 861.5C19.98 861.5 19.62 862.5 19.38 862.3C18.06 861.8 16.8 859.1 15.48 859C15.12 859 15.18 861.6 14.76 861.5C14.46 861.2 14.64 858.3 14.16 859C13.26 859.2 12.42 857.2 11.58 856.5C11.22 856.2 10.8 856.8 10.44 856.5C10.02 856.2 9.59999 855.3 9.11999 854.8C8.69999 854.4 8.75999 855.1 8.51999 854.8C8.33999 854.5 8.15999 853.3 7.91999 853.1C7.49999 852.7 6.89999 852.8 6.47999 852.3C6.11999 851.9 5.33999 852.3 5.33999 849C7.91999 847.6 10.5 850.8 12.54 850.7C12.84 850.7 13.14 849.8 13.38 849.9C13.8 850.1 14.22 851.4 14.7 851.6C14.88 851.7 15.24 850.8 15.42 850.8C16.26 850.8 17.22 852.6 18.18 853.3C19.5 854.3 20.88 855.6 22.2 855.8C22.86 855.9 23.94 857.2 24.66 857.5C25.08 857.7 25.44 857.2 25.8 857.5C26.1 857.7 26.4 858.9 26.64 859.2C27.6 860.2 28.62 858.8 29.52 861.7C30.36 861.6 31.62 861 32.82 861.7C33.42 862.1 33.9 863.8 34.38 863.4C34.92 862.9 35.64 860.7 35.7 856.7C35.04 852.2 33.84 852.1 32.7 851.7C32.16 851.5 31.5 852 30.96 851.7C29.34 850.9 27.42 849.6 25.8 849.2C25.56 849.1 25.32 850.1 25.08 850C24.6 849.9 24.06 848.7 23.52 848.3C22.68 847.8 21.72 848.2 20.94 847.5C20.64 847.2 20.28 846.1 19.92 845.8C18.9 845.1 17.88 845.1 16.92 844.1C16.44 843.6 16.08 842.8 15.6 842.4C15.12 841.9 14.52 842.1 14.04 841.6C13.8 841.3 13.68 840.3 13.44 839.9C13.14 839.4 12.84 839.4 12.6 839.1C11.46 837.5 10.5 836.7 9.59999 834.9C9.23999 834.2 8.45999 834.1 8.45999 830.7C9.41999 829.3 10.08 829.3 11.04 829.9C12.12 830.5 12.96 831.5 13.8 832.4C14.04 832.6 14.28 832.1 14.52 832.4C14.82 832.8 14.88 833.8 15.12 834.1C16.26 835.2 17.4 834.7 18.6 835.8C19.08 836.2 19.56 837.8 20.04 838.3C20.64 838.9 21.18 838.6 21.78 839.1C22.32 839.5 22.8 840.3 23.34 840.8C23.94 841.3 24.6 841.2 25.2 841.6C27.12 842.9 28.86 846 30.66 846.6C31.08 846.7 31.56 846.3 31.98 846.6C32.58 847 33.12 848.7 33.72 849.1C34.74 849.8 35.7 849.2 36.6 849.9C37.56 850.6 38.34 852.9 39.36 852.4C39.18 849.3 39.72 850 39.66 847.4C39.48 844.2 38.94 843.3 38.52 842.4C38.04 841.5 36.66 840.7 36.36 840.7C36.18 840.7 36.12 841.8 35.76 841.5C35.4 841.2 35.1 840 34.74 839.8C34.26 839.5 33.84 840.1 33.3 839.8C32.94 839.6 32.52 838.3 32.16 838.1C31.74 837.9 31.38 838.4 31.02 838.1C30.66 837.9 30.36 836.7 30 836.4C28.26 834.8 26.34 835.2 24.84 832.2C23.82 833.2 23.04 831 22.56 830.5C22.14 830.1 21.66 830.8 21.24 830.5C20.58 830 20.04 827.8 19.38 827.2C18.54 826.4 17.64 826.2 16.8 825.5C15.54 824.5 14.46 823.2 13.2 823C12.18 819.2 10.02 822.1 9.29999 816.3C10.56 816.9 11.82 816.3 12.9 817.1C13.26 817.4 13.56 818.6 13.92 818.8C14.16 818.9 14.4 818 14.64 818C15 818 15.72 818.4 16.2 818.8C17.04 819.6 17.46 820.7 18.06 821.3C18.96 822.1 19.92 822.7 20.94 823C21.96 827 23.46 826.1 24.84 827.2C26.28 828.4 27.9 831.7 29.28 830.5C29.46 831.8 29.76 832.6 30.12 833C30.54 833.6 30.42 830.7 30.84 831.3C30.78 833.5 31.02 834 31.44 833.8C32.82 832.9 33.48 836.4 34.92 835.5C35.16 836.7 35.58 836.6 35.76 838C36.72 836.5 37.32 839.9 38.64 838.8C38.76 835.9 38.64 834.9 38.76 831.3C37.86 828 36.72 825.9 35.46 824.6C34.92 823.7 35.22 827.7 34.74 827.1C34.38 826.8 34.68 823.1 34.14 823.8C33 824.2 32.16 822.9 31.38 822.1C30.9 821.6 30.42 820.7 29.94 820.4C29.4 820.1 28.92 820.8 28.38 820.4C28.02 820.2 27.66 819 27.36 818.7C26.52 817.9 25.68 817.5 24.9 817C23.88 816.4 22.8 817.3 21.9 814.5C21.78 815.7 21.54 816.3 21.18 816.2C20.16 811.9 18.48 811.9 16.86 811.2C16.02 807.7 14.82 809.1 13.86 807.9C13.38 807.3 12.9 805.2 12.42 804.6C12.12 804.2 11.88 804.1 11.58 803.8C10.44 802.5 9.05999 801.3 8.27999 799.6C8.03999 799.1 7.55999 799.7 7.67999 797.1C11.04 794.5 13.74 798.5 17.16 798.8C17.52 799.9 18 800.2 18.3 801.3C19.44 800 20.34 804.4 21.18 802.1C22.02 805.7 23.22 804.5 24.18 805.4C24.48 805.7 24.78 806.7 25.02 807.1C26.16 808.5 27.3 808.5 28.32 809.6C29.16 810.5 30 813.4 31.08 812.1C31.32 812.2 31.2 814.2 31.5 813.8C32.7 813.7 33.24 817.1 34.5 816.3C34.86 818.1 35.58 818.5 36.06 817.1C36.66 814.4 35.76 811.7 36.36 808.7C36.9 810.3 37.62 809.1 38.1 807.9C37.86 804.8 37.86 805.4 37.98 801.2C37.2 797.8 36.42 798.4 35.22 797.9C34.08 797.3 32.7 795.4 31.92 794.6C31.2 793.9 29.94 795.4 29.76 791.3C30.24 788.7 30.6 792.1 31.08 792.1C32.52 790 34.08 794 35.7 793.8C36.06 796 37.02 796 37.44 793.8C37.38 789.9 37.38 791 37.32 787.1C36.42 782.8 34.86 782.4 33.6 781.2C32.16 780 30.78 778.1 29.58 779.5C29.28 777.3 28.98 778.2 28.44 778.7C26.76 775.8 24.54 776.6 22.56 775.4C22.26 775.2 21.96 774 21.72 773.7C20.7 772.8 19.56 773.1 18.54 772C18.36 771.8 18.12 770.5 17.94 770.3C17.64 769.9 17.4 770.6 17.1 770.3C15.9 768.9 14.52 767.7 13.5 766.1C12.96 765.2 12.54 765.1 11.94 764.4C11.7 764.1 11.46 763.1 11.22 762.7C10.8 762 10.14 762.7 9.89999 759.4C10.86 758.2 11.82 760.7 12.78 761.1C13.08 761.2 13.38 760.2 13.62 760.3C15.9 760.8 18.12 764.1 20.22 762.8C22.2 765.7 24 765.3 26.28 764.5C26.88 761.4 25.38 760 25.98 757C26.82 758.2 27.6 757 28.14 757C30.36 757 32.16 764.2 34.74 762.9C35.34 765.1 36.36 767.8 37.02 767.1C37.44 763.9 36.78 761.1 36.72 757.9C35.4 756.5 34.32 753.6 32.7 753.7C31.44 750.5 30.24 750.5 28.98 748.7C28.38 747.9 27.78 746.3 27.24 745.4C26.76 744.5 26.34 744.1 26.1 743.7C25.56 742.9 24.96 742.6 24.36 742.9C23.4 740.5 22.14 739.5 20.76 739.6C18.78 734.3 15.78 735.2 13.98 728.7C15.9 727.4 17.82 728.1 19.62 729.5C20.46 730.2 21.18 731.5 21.78 732C22.14 732.3 22.56 731.7 22.92 732C23.22 732.2 23.58 733.2 23.94 733.7C24.9 735 25.74 734.7 26.82 735.4C27.12 735.6 27.42 736.7 27.66 737.1C29.46 739.1 31.32 737.9 33.12 739.6C33.54 740.4 33.9 742.5 34.44 742.9C34.8 743.2 35.1 742.7 35.58 742.9C35.88 739.9 35.22 739 35.58 735.4C35.4 733.1 34.86 732.8 34.74 730.4C34.38 729.7 34.68 725.3 34.14 725.4C33.6 724 33.12 722.4 32.28 722.9C31.8 720.7 30.9 720.2 30.24 721.2C29.76 719.6 29.1 719.4 28.38 719.5C27.84 716.1 27 716.9 26.22 716.2C25.92 715.9 25.68 715 25.38 714.5C25.2 714.2 24.96 714.7 24.78 714.5C24.72 714.4 24.42 712.9 24.36 712.8C23.28 711.5 22.14 710.8 21.48 711.1C21 709.7 20.52 707.5 19.92 709.4C19.68 708.8 19.68 706.7 19.32 706.9C18.18 707.5 17.76 704.2 16.56 705.2C16.2 702.4 14.94 703.4 14.52 701.9C14.22 700.8 13.38 701.8 13.5 698.6C14.1 696.4 14.82 697.9 15.54 697.8C16.68 697.5 18.12 696.9 19.56 697C20.04 697 20.52 697 21 697C22.08 696.9 22.92 697.2 23.58 697.8C24.66 698.9 25.56 700.7 26.58 698.6C26.82 688 25.26 690 23.82 689.4C23.04 689.1 22.56 687.6 21.66 688.6C20.46 685.6 18.96 684.7 17.34 684.4C17.1 683.4 16.74 683.4 16.62 681.9C16.02 681.5 15.3 681.9 15.06 679.4C14.4 679.4 13.56 680.1 13.62 676.1C14.1 674 14.7 676.7 15.18 676.9C17.28 676.2 20.28 677.3 22.5 678.6C22.98 681.4 24.24 682.1 24.66 678.6C24.6 674.9 24.06 674.2 23.94 671.1C22.86 671.6 22.02 666.4 21.18 670.3C20.28 665.5 18.72 666.3 17.46 664.4C17.22 664.1 17.1 662.9 16.86 662.7C16.62 662.4 16.32 662.9 16.02 662.7C15.3 660.5 14.34 659.1 13.44 657.7C12.54 656.3 11.58 655.1 10.68 653.5C9.29999 651.1 7.97999 648.5 6.95999 645.1C6.71999 644.3 5.93999 644 6.23999 640.9C8.39999 642.7 10.98 641.8 13.14 641.7C13.98 644.3 15.06 644.2 16.02 645C17.04 646 18.12 647.6 19.2 647.5C20.16 650.3 21.42 651.4 22.8 651.7C23.22 653.4 23.7 653.5 24.24 654.2C25.8 656.4 27.42 658.9 29.16 660.1C29.64 661.5 30.12 663.1 30.9 662.6C31.26 658.5 30.54 656.6 30.3 651.7C29.16 648.1 27.24 649.5 26.1 645.8C25.68 645.9 25.5 647.3 25.08 647.5C24.18 645.8 23.28 645.1 22.32 644.2C21 642.8 19.98 640.8 18.6 640.9C17.7 638.9 16.68 637.5 15.42 637.6C14.76 635.4 14.1 633.1 12.96 633.4C12.48 631.4 11.82 630.6 11.22 629.2C10.62 627.3 9.59999 627.6 9.47999 624.2C10.5 620.9 12.6 623.9 13.8 621.7C13.92 622.8 14.1 623.3 14.4 623.4C15.54 621.9 17.52 625.5 18.6 624.2C19.14 625.7 19.8 626.8 20.64 626.7C21 627 20.88 629.6 21.36 629.2C21.96 629.2 22.38 630 22.68 631.7C23.88 631.3 25.26 636.4 26.16 632.5C26.28 626.7 25.5 626.3 25.32 622.5C24.66 623 24.3 621.8 24 620C22.86 622.1 21.84 617.9 20.52 618.3C20.22 616.9 19.98 615.3 19.5 615C18.12 616.1 16.98 611.8 15.9 610.8C15.3 610.2 14.4 613.8 14.16 608.3C15.9 607.5 17.7 608.8 19.62 609.1C20.16 611.5 21.12 611.6 22.08 611.6C22.92 613.5 24 617.4 24.96 615.8C25.2 608 24.12 607.8 23.64 604.1C22.74 603.3 21.96 602.8 21.18 601.6C20.64 600.8 20.16 599.1 19.62 598.3C19.02 597.4 18.48 596.6 17.76 596.6C17.58 593.6 16.68 595.2 16.44 592.4C16.08 592.4 15.66 592.4 15.3 592.4C15.06 590.3 14.58 589.3 14.16 588.2C13.56 586.3 12.42 587.7 12.42 582.3C14.7 582.3 16.92 581.3 19.02 582.3C20.52 583 21.84 586.3 23.22 586.5C23.58 587.7 23.82 589.6 24.54 589C24.54 588 24.6 587 24.84 587.3C24.96 583.1 24.6 581.6 24.42 578.9C24.12 578.7 23.94 576.9 23.7 576.4C23.52 576 23.4 577.3 23.28 577.2C23.28 577.2 23.04 575.6 22.98 575.5C22.44 574.5 21.78 574.6 21.24 572.2C20.52 572 19.8 571.6 19.38 569.7C19.02 569.4 19.08 571.2 18.66 570.5C18.42 568.8 17.82 569.2 17.64 567.2C16.62 566.3 15.48 566.4 14.64 564.7C14.46 564.4 14.28 562.7 14.04 562.2C13.74 561.4 13.14 562.7 13.32 559.7C13.86 559.7 14.16 558.2 14.76 558C15.36 557.8 16.08 558.9 16.32 558.8C16.5 558.8 16.5 557.8 16.74 558C16.98 558.1 17.22 559.4 17.46 559.7C18.36 560.7 19.32 559.8 20.22 560.5C20.46 560.7 20.7 561.9 20.94 562.2C21.24 562.5 21.54 562 21.78 562.2C23.34 563.6 24.96 569.1 26.52 566.4C26.52 559.5 25.8 556.6 25.2 553C24.18 552.7 23.16 549.8 22.02 548.8C21 548 19.8 549.6 19.14 545.5C18.78 545.5 18.36 545.5 18 545.5C17.52 543.4 16.86 542 15.96 542.2C15.18 540.1 14.28 537.3 13.68 535.5C13.44 534.8 12.9 535.5 12.96 533C14.28 531 16.44 531.3 17.58 531.3C18.18 531.3 18.84 531.6 19.44 531.3C20.94 530.5 22.5 534.2 23.88 532.1C24.3 527.6 23.58 525.1 23.46 521.2C22.26 519.6 21.42 515.9 19.86 516.2C19.02 511.9 17.22 511.2 16.26 508.7C15.78 507.4 15.06 505.8 14.7 503.7C16.44 502 18.36 501.3 19.74 502.9C20.1 503.4 20.34 504.5 20.46 504.6C20.7 504.8 20.76 503.8 20.88 503.8C21.06 503.8 21.18 504.6 21.48 504.6C21.9 504.7 22.38 504.3 22.8 504.6C23.94 505.5 25.14 509.7 26.4 507.1C26.46 504.1 26.16 503.1 26.1 500.4C25.44 496.8 23.64 495.8 22.62 497.1C22.5 495.9 22.38 494.4 22.02 494.6C21.66 494.6 21.24 494.6 20.88 494.6C20.64 492.6 20.04 492.8 19.44 492.9C18.78 489.6 17.34 490.7 16.86 486.2C16.2 485.7 15.36 485.9 15.3 482C16.98 480.3 18.78 480.1 20.64 477.8C21.36 480.2 22.5 479.2 23.52 479.5C24.72 479.9 26.22 482.8 26.52 477C26.46 471.6 25.26 472.7 25.2 467C24.06 466.7 23.1 462.6 22.02 464.5C21.06 462.9 20.1 461.3 18.84 461.2C18.54 459.2 17.82 459.2 17.52 457C16.56 458.4 15.6 454 14.64 452.8C14.52 450 13.44 452.4 13.5 448.6C13.92 445.1 14.94 446 15.78 445.3C17.34 443.9 20.04 440.5 21.42 444.5C22.26 443.9 23.4 444 24.42 444.5C25.2 444.9 25.92 447.4 26.46 444.5C26.46 440 26.04 436.6 25.44 435.3C24.78 433.8 23.82 435.6 22.98 436.1C21.72 434.5 19.86 432.9 18.54 434.4C18.06 433.2 17.64 431.2 17.1 432.7C16.5 430.3 15.78 428.6 14.82 428.5C14.4 426.8 13.98 425 13.26 425.2C12.72 419.7 11.04 420.6 10.68 414.3C11.4 410.8 12.42 413.7 13.26 413.5C13.62 413.4 13.92 412.1 14.28 411.8C15.6 410.7 17.34 411.1 18.72 411.8C19.08 412 19.44 413.2 19.74 413.5C20.22 413.9 20.7 413.3 21.18 413.5C22.44 414 23.76 415.8 24.9 416C25.38 416.1 25.8 416 25.92 415.2C25.98 414.6 26.1 416.1 26.04 416C26.22 416.1 26.46 416.1 26.64 416C27.18 415.7 27.84 415.3 28.2 413.5C28.26 408.1 27.54 407.4 27.36 403.5C26.64 403.2 26.22 401.2 25.62 400.2C23.76 401.9 22.26 396.2 19.98 397.7C19.32 395.4 18.96 395.5 18.12 395.2C17.34 392.6 16.38 390.9 15.24 390.2C14.46 386.3 13.02 386.4 12.36 381.8C11.82 380.8 11.28 379.7 10.92 377.6C10.38 376.2 9.53999 376.6 9.77999 370.9C12.12 369.9 14.64 370 17.1 370.1C17.58 370 17.58 372.3 18.12 371.8C19.68 370.5 20.64 374 22.02 375.1C22.38 375.4 23.04 376 23.46 375.9C23.88 375.8 24.6 376.7 24.6 372.6C24.66 369.3 24 370.5 23.88 368.4C24.24 367.2 23.46 365.8 23.46 364.2C22.44 362.8 21.18 362.8 20.28 360.9C19.68 360.3 19.44 361.7 18.96 361.7C18.36 360.2 17.7 358.5 16.92 357.5C16.68 357.2 16.32 357.8 16.08 357.5C15.48 357 14.88 355.2 14.34 354.2C13.74 353.1 12.9 353.7 12.78 350C13.26 350.1 14.16 347.6 14.52 347.5C14.82 347.4 15 348.6 15.24 348.3C15.3 348.3 15.6 346.7 15.66 346.6C15.9 346.3 16.14 346.8 16.38 346.6C17.28 345.8 18.06 344.4 18.66 344.1C20.28 343.3 21.96 345.4 23.7 343.3C24.42 343.2 24.66 344.8 25.14 342.5C25.5 336.6 24.6 337.2 24.42 332.5C23.64 330 23.04 330.8 22.26 330.8C20.34 330.9 19.14 324.5 17.34 325.8C16.38 321.9 14.64 322.5 13.86 317.4C14.46 315.5 15.06 317.2 15.72 316.6C16.44 316 17.16 313.5 17.88 313.3C18.36 313.1 18.84 314.1 19.32 314.1C19.74 314.1 20.04 313.3 20.46 313.3C21 313.2 21.72 315.3 22.2 312.5C22.32 308 21.66 307.7 21.6 304.1C19.62 300.4 16.92 301 15.54 294.1C15.18 292.4 14.34 293.4 14.4 289.1C14.7 284.8 15.66 284.1 16.68 284.1C17.76 278.8 20.1 281 21.12 275.7C21.24 273.3 21.36 271.4 21.24 269C21.12 265.6 20.28 264.1 19.8 262.3C19.26 260.3 19.08 259.9 18.48 259C17.82 257.9 17.1 256.3 16.44 254.8C16.26 254.3 16.02 253.6 15.84 253.1C15.18 251.5 14.22 249.8 14.1 246.4C14.34 243.3 14.82 240.3 15.24 238C15.36 237.4 15.54 237.7 15.66 237.2C15.78 236.7 15.84 235.2 15.96 234.7C16.74 231.1 17.58 229.1 18.42 226.3C18.3 223.8 18.6 222.6 18.54 221.3C18.48 217.1 17.76 217.3 17.7 212.9C17.88 209.3 18.54 207.8 18.84 206.2C18.96 205.5 19.14 205.2 19.26 204.5C19.38 203.8 19.56 203.5 19.68 202.8C19.92 201.4 20.4 200.1 20.52 199.5C20.58 199.1 20.76 199.1 20.82 198.7C20.94 198 20.88 196.1 20.94 195.4C21.06 194.7 21.42 195.3 21.36 193.7C21.66 192.5 21.66 189.2 22.08 188.7C22.14 183 22.44 178.9 22.38 173.7C22.32 169.1 21.78 164.6 21.96 159.5C22.74 150.4 23.94 143.8 24.42 132.8C25.38 126.8 26.1 119.6 25.86 106.9C25.68 104.4 25.08 102.1 25.02 98.5C24.9 91.7 25.74 88.1 25.86 83.5C25.92 81.5 25.74 78.5 25.74 76.8C25.74 71.7 25.92 66.8 25.86 61.8C25.74 53.4 25.2 46.2 25.02 38.4C24.78 36.4 24.48 34.8 24.6 30.9C24.18 28.9 24.06 26.6 24 24.2C23.46 18.9 23.16 12.2 22.56 7.5C22.08 6.1 22.2 1.2 21.54 0.799999C21.24 2.7 21.6 1.7 21.66 3.3C21.96 3.4 21.72 6.9 21.78 8.3C22.38 10.7 22.44 15.4 22.62 19.2C22.86 23.1 23.28 27 23.22 31.7C23.7 33.2 23.76 37 23.94 40.1C24.12 42.9 24.42 46.2 24.54 49.3C24.78 56.4 24.72 65 24.66 71C24.6 78.1 24.54 82.1 24.36 86.9C24.3 88.5 23.82 87.6 23.94 90.2C23.94 92.2 23.94 94.1 23.94 96.1C23.88 99 23.1 97.8 22.92 100.3C23.04 102.4 23.58 102.1 23.52 105.3C23.82 106.6 24.42 106.2 24.54 108.6C24.24 110.6 24.42 115.3 24.42 118.6C24.12 121 23.94 124 23.82 127.8C23.04 132.2 22.74 138.7 22.26 143.7C22.08 145.7 21.66 147 21.66 149.6C21 152.6 20.22 155.2 20.1 161.3C20.16 164.1 20.64 164.3 20.82 166.3C20.82 170.4 21.24 173 21.24 176.3C21.3 181.8 20.64 185.6 20.4 190.5C19.68 194.9 18.78 197.8 18.12 201.4C17.88 202.7 17.76 204.9 17.4 205.6C16.86 205.3 16.44 205.7 16.08 206.4C16.08 209.4 15.66 210.1 15.66 213.1C15.96 216.9 16.74 217.8 16.8 223.1C16.38 225.8 15.84 227.4 15.24 229C14.88 232.4 14.34 234.2 13.92 237.4C13.38 238.4 12.9 239.8 12.6 242.4C12.54 246 12.72 247.9 12.72 250.8C13.86 257 15.6 259.7 17.04 264.2C17.28 264.2 17.52 264.2 17.76 264.2C18.18 268.1 19.56 266.6 19.62 272.6C19.2 273.8 18.9 272.1 18.3 273.4C17.76 276.6 16.5 275.8 15.84 278.4C15.06 278.5 14.4 279.5 13.8 280.9C12.84 279.9 12.54 282.4 12.24 285.1C12.36 297.3 14.52 298 15.72 304.3C16.44 304.2 16.98 305.4 17.28 307.6C16.14 308.6 15.24 311.2 14.28 309.3C13.92 310.4 13.62 311.7 13.14 311.8C12.42 310.4 11.58 309.1 11.1 312.6C11.04 318.6 12 321.2 12.84 323.5C13.56 325.4 14.46 327.3 15.12 328.5C15.18 328.6 15.36 330 15.42 330.2C16.2 331.5 17.52 331.6 18.18 332.7C19.26 334.6 20.46 335 21.48 336.9C22.2 337 22.8 334.8 22.92 339.4C21.48 340.5 20.04 338.4 18.6 338.6C17.52 338.7 16.14 341.4 15 341.1C14.64 341 14.4 340.1 14.16 340.3C13.44 340.8 12.42 343.8 12 342.8C11.88 342.5 11.76 343.6 11.7 343.6C11.46 343.6 11.34 343.4 11.1 343.6C10.62 344.1 10.26 344.3 9.77999 345.3C9.77999 350.1 10.26 352.1 10.5 355.3C11.46 356.9 12.42 358.1 13.08 361.2C13.98 361.2 14.58 362.7 15.12 364.5C13.14 365.9 10.98 359.9 9.23999 365.3C8.39999 363.1 7.07999 363.5 6.95999 368.6C6.83999 372.7 7.61999 374.7 7.79999 376.1C8.51999 381 10.08 384.6 10.8 387C12.78 393.1 14.58 396 15.84 399.5C16.2 399.5 16.5 399.5 16.86 399.5C17.52 401 18.24 403.6 19.14 404.5C19.62 405 20.22 404.2 20.7 404.5C21.06 404.7 21.36 405.8 21.72 406.2C23.16 407.6 24.96 405.4 25.92 410.4C25.02 412.7 24.06 409.9 23.34 408.7C20.7 411.1 17.76 403.8 15 407C14.22 402.7 12.66 408 11.7 405.3C10.98 407.6 9.95999 408 9.11999 407C8.81999 409 8.33999 409.6 8.27999 412.9C8.33999 416.8 9.11999 419.8 9.41999 421.3C9.65999 422.5 9.89999 423 10.14 423.8C10.2 424.1 10.32 425.1 10.44 425.5C11.34 428.5 12.6 429.5 13.32 433.9C13.98 434.6 14.64 435 15.06 437.2C14.28 439.2 13.26 439.4 12.6 442.2C12.36 441 11.94 440.6 11.46 440.5C11.34 442.4 10.5 440.5 10.62 443.8C10.32 445 10.92 448.1 10.92 450.5C11.7 453.1 12.6 454.8 13.2 458C14.7 459.3 15.54 464.5 17.22 464.7C18 467.8 19.14 469.3 20.52 468.9C20.88 471.9 22.26 468.9 22.38 473.1C21.42 473.7 20.22 472 18.9 472.3C18.66 472.4 18.3 473 18.06 473.1C16.02 474.1 14.04 470.7 12.6 474.8C12.48 479.1 12.78 481.1 12.9 484C13.62 487.5 14.58 490.2 15.36 492.4C15.6 493.1 16.14 493.2 16.08 495.7C15.3 498 13.68 495.1 12.9 497.4C12.42 494.7 11.16 495.1 11.04 499.1C11.22 505.1 12.24 506.1 12.78 510C14.28 510.9 15 516.7 16.68 516.7C17.22 519.4 18.24 520.1 18.72 521.7C18.84 522.1 18.9 523 19.02 523.4C19.2 524 19.8 523.4 19.74 525.9C17.88 525.6 14.22 521.5 12.66 526.7C11.94 524.8 11.04 526.6 10.5 528.4C10.38 531.2 10.68 532.9 10.62 536.8C11.88 541.4 13.62 543.3 14.94 547.7C15.3 547.7 15.6 547.7 15.96 547.7C16.62 551.2 18 550.3 18.72 553.6C19.02 554.2 19.86 552.1 19.74 555.3C17.7 554.8 16.62 553.2 15 551.1C14.88 554.1 14.16 551.1 13.68 551.1C12.84 553.9 12 552.1 11.1 553.6C10.74 552.3 10.08 549.5 9.53999 551.9C9.23999 555 9.77999 555.3 9.65999 559.4C10.98 564.4 12.84 569.3 14.58 571.9C14.76 572.2 15 571.6 15.18 571.9C15.24 572 15.42 573.5 15.48 573.6C15.66 573.9 16.38 571.9 16.2 575.3C14.28 576.7 12.96 571.7 11.76 576.1C10.98 573.9 9.95999 573 9.29999 576.9C9.17999 580.4 9.59999 580.9 9.59999 583.6C10.98 590 12.96 595.2 14.64 598.6C14.88 599.1 15.48 597.8 15.36 601.1C15.24 604.1 14.82 602.2 14.52 601.9C14.22 601.6 13.74 600.4 13.38 600.2C13.08 600.1 12.66 601.1 12.24 601C11.16 600.8 10.32 599.4 9.77999 602.7C9.65999 608.3 10.5 608.6 10.8 611.9C11.52 611.8 12.12 612.1 12.24 615.2C10.8 615.3 9.53999 617.4 7.61999 616.9C7.01999 616.7 6.77999 614 6.17999 616.1C5.93999 619.8 6.29999 620.4 6.29999 624.5C6.47999 626.4 7.01999 626 7.31999 627C7.43999 627.4 7.49999 629.1 7.61999 629.5C7.85999 630.2 8.09999 629.8 8.33999 630.3C8.63999 631 9.05999 632.2 9.35999 632.8C9.65999 633.5 10.38 632.9 10.38 636.1C10.02 637.5 9.41999 634.9 8.81999 635.3C7.13999 636.5 5.21999 632.9 4.07999 636.1C4.19999 638.2 4.25999 640.6 4.19999 643.6C4.67999 646.8 5.57999 647.3 5.93999 651.1C6.29999 650.2 6.47999 651.9 6.77999 652.8C7.43999 654.5 7.91999 655 8.51999 656.1C8.75999 656.5 8.99999 658.2 9.23999 658.6C9.53999 659.1 9.95999 659.1 10.26 659.4C11.22 660.7 12.18 661.5 13.02 664.4C13.56 663.6 14.1 665.2 14.58 666.1C15.06 666.8 15.96 665.7 15.9 670.3C14.76 669.2 13.74 671.5 12.9 671.1C12.24 670.8 11.76 668.1 11.04 668.6C10.62 671.1 10.74 671.8 10.62 675.3C11.76 684.2 14.46 684.3 16.26 689.5C14.82 692 13.32 689 11.82 689.5C11.16 689.7 10.5 691.7 9.77999 691.2C9.35999 691.8 9.41999 695.3 9.05999 696.2C8.75999 697.2 8.45999 698.4 7.91999 697.9C8.09999 701.6 7.43999 700.1 7.49999 702.9C7.85999 708.9 9.23999 709.1 9.77999 713.8C10.5 714.2 11.4 715.9 11.82 717.1C12 717.6 12.36 718 12.24 719.6C11.04 719.2 9.95999 719.7 9.23999 722.1C8.75999 724.1 9.83999 727.4 9.11999 728.8C8.27999 726.8 7.13999 726.8 6.53999 723.8C6.11999 723.2 6.11999 725.2 5.69999 724.6C4.55999 723.6 1.91999 716.7 1.49999 726.3C1.97999 732.2 3.71999 732.5 4.49999 734.7C5.93999 738.5 7.37999 740.4 9.41999 739.7C9.41999 742.3 10.38 739.8 10.26 743C8.63999 743.1 6.95999 743.5 5.51999 746.3C5.09999 748.1 5.45999 749.1 5.21999 751.3C4.79999 752 4.19999 752.2 4.19999 755.5C4.49999 760 5.21999 762.3 6.23999 763C6.83999 766.2 8.15999 765.1 8.69999 768.8C8.21999 772.2 8.09999 768.6 7.37999 768.8C6.05999 768 3.47999 762.8 2.63999 769.6C2.75999 774.2 3.29999 776.2 4.19999 776.3C4.61999 779.6 5.57999 779.3 6.23999 781.3C6.83999 783.8 7.67999 783.6 8.51999 784.6C8.69999 784.8 8.81999 786.1 8.93999 786.3C9.65999 787.5 10.44 785.3 10.68 788.8C9.83999 792.8 8.63999 787.3 7.37999 788.8C7.07999 788.3 6.83999 787.4 6.53999 787.1C5.99999 786.7 5.09999 787.9 4.97999 787.9C4.79999 787.9 4.79999 786.9 4.55999 787.1C3.89999 787.6 3.17999 789 2.69999 790.4C2.69999 800.1 4.67999 800.5 5.69999 802.9C6.05999 803.7 6.71999 803.4 6.53999 806.2C5.51999 806 4.37999 803.9 3.35999 803.7C3.17999 803.7 2.99999 804.5 2.93999 804.5C2.75999 804.5 2.69999 803.3 2.33999 803.7C2.03999 804.1 1.31999 805.2 1.31999 807.9C1.13999 811.8 1.55999 811.1 1.73999 812.1C1.85999 812.7 2.15999 815 2.33999 815.4C2.51999 815.8 2.75999 815.1 2.93999 815.4C2.99999 815.5 3.23999 816.9 3.35999 817.1C3.71999 817.6 4.19999 816.4 4.37999 818.8C4.25999 822.6 3.17999 820.8 3.05999 824.7C3.17999 832 4.61999 831.9 5.33999 835.6C5.63999 835.6 5.93999 835.6 6.17999 835.6C6.53999 838.8 7.67999 837.5 7.91999 841.5C7.31999 843.1 6.59999 840.8 5.75999 840.7C5.15999 840.6 4.49999 841.4 3.71999 841.5C2.93999 841.6 2.03999 840.1 1.55999 840.7C1.01999 841.3 0.59999 843.5 0.23999 844.9C0.29999 850.2 1.07999 852.2 1.67999 853.3C2.15999 854.1 2.33999 853.5 2.69999 854.1C2.75999 854.2 2.93999 855.7 2.99999 855.8C4.25999 857.7 5.93999 856.8 6.71999 861.7C5.87999 861.8 5.21999 862.9 4.55999 864.2C4.37999 872.4 5.81999 871.3 6.29999 875.9C6.65999 877.3 7.49999 875.5 7.43999 879.2C7.13999 877.4 6.89999 879.4 6.59999 880C5.09999 877.7 2.57999 875.9 1.43999 880.8C1.31999 883.2 1.49999 883.9 1.55999 885C1.61999 886 1.55999 887.7 1.67999 888.3C1.73999 888.6 1.91999 888 1.97999 888.3C2.27999 890 2.45999 890.3 2.81999 890.8C2.99999 891.1 2.99999 892.2 3.11999 892.5C3.53999 893.6 4.13999 894.2 4.55999 895C5.03999 895.9 5.57999 896.3 5.87999 898.3C4.73999 900.4 3.41999 896.8 2.27999 898.3C2.15999 900.2 1.31999 898.3 1.43999 901.6C1.19999 906.2 2.69999 907.6 2.99999 911.6C2.81999 916.2 3.41999 916.3 3.59999 919.1C4.13999 920.4 4.97999 921.5 5.33999 922.4C5.69999 923.3 6.29999 924.3 6.17999 926.6C5.09999 928.1 2.75999 924.3 1.97999 929.9C1.91999 937.2 3.29999 936.1 3.83999 939.9C5.63999 940.4 6.71999 944.8 8.27999 946.6C7.73999 948.3 7.13999 951.1 6.53999 951.6C6.23999 951.9 5.81999 951.1 5.51999 950.8C5.09999 950.3 4.61999 950 4.19999 949.1C3.65999 951 2.81999 951 2.15999 952.4C2.57999 961.4 3.65999 960.4 5.03999 962.4C5.99999 963.8 6.95999 965.8 7.91999 966.6C7.73999 970 6.95999 971.9 6.35999 972.5C5.93999 972.8 5.57999 971.9 5.03999 971.7C3.41999 971 2.09999 973.2 1.01999 974.2C1.01999 976.4 1.01999 978.7 1.01999 980.9C3.35999 988.3 7.01999 987.7 9.35999 995.1C10.98 995.9 12.24 999.1 13.56 1001.8C13.92 1003.3 14.76 1002.2 14.7 1006C13.74 1005 12.54 1006.2 11.4 1005.2C11.16 1005 11.1 1004.1 10.8 1003.5C10.08 1002.1 9.59999 1003.2 8.93999 1003.5C7.01999 1004.3 3.59999 1002.5 2.45999 1005.2C2.09999 1006.1 1.25999 1006.2 1.31999 1009.4C1.61999 1018.4 3.35999 1019.2 4.61999 1022.8C4.55999 1027.9 4.91999 1030.6 5.21999 1033.7C4.73999 1036.8 4.31999 1039.7 4.61999 1045.4C5.09999 1046.7 5.69999 1047.4 6.05999 1049.6C8.27999 1051 10.5 1055.1 12.54 1057.1C13.26 1057.8 14.16 1057.1 14.7 1060.4C13.32 1060.9 11.58 1062.6 10.08 1061.2C9.71999 1060.9 9.41999 1059.5 9.05999 1059.5C8.09999 1059.5 7.67999 1061.6 7.19999 1062.8C6.95999 1063.5 6.23999 1062.4 6.47999 1065.3C6.53999 1071.1 7.61999 1071.4 8.21999 1072.8C8.39999 1073.3 8.99999 1073.1 8.93999 1075.3C8.33999 1075.4 7.73999 1075.6 7.49999 1073.6C5.57999 1076.8 2.57999 1067.7 1.13999 1075.3C0.83999 1075.7 0.29999 1074.2 0.41999 1077C0.29999 1085.4 2.33999 1081.6 2.87999 1086.2C3.77999 1085.9 5.09999 1088.4 5.63999 1089.5C5.87999 1090 5.99999 1090.2 6.23999 1090.3C7.61999 1091.4 9.17999 1088.6 9.83999 1095.3C9.23999 1097.4 8.69999 1099.8 7.67999 1099.5C7.55999 1103.4 7.91999 1104.9 7.97999 1107.9C8.75999 1109.5 9.77999 1109.7 10.56 1111.2C9.53999 1113 7.85999 1112.9 6.83999 1110.4C6.17999 1113.8 4.07999 1108.8 4.37999 1117.9C5.57999 1123.2 7.73999 1123.1 9.29999 1126.3C9.53999 1130 9.41999 1130.7 9.71999 1133.8C10.44 1137.1 12.36 1133.4 12.9 1137.1C12.66 1141.8 11.76 1137.5 11.04 1137.9C10.56 1138.2 10.26 1140 9.89999 1140.4C9.83999 1143.3 9.95999 1145.1 10.02 1147.1C10.62 1150.1 11.52 1149.5 12.3 1150.4C13.08 1151.3 13.8 1152.9 14.58 1153.7C14.82 1153.9 15.18 1153.5 15.42 1153.7C15.78 1154 16.08 1155.1 16.44 1155.4C17.52 1156.4 18.66 1156.8 19.62 1157.9C19.92 1158.3 20.46 1157.2 20.46 1160.4C19.98 1162.5 19.26 1160.6 18.9 1159.6C18.72 1161.7 18.12 1161.2 17.58 1161.3C17.28 1160.8 16.92 1159.9 16.56 1159.6C15.18 1158.5 13.2 1159.1 11.64 1159.6C11.34 1159.7 11.04 1161.2 10.8 1161.3C10.32 1161.5 10.14 1159.4 9.77999 1160.5C9.65999 1162.8 9.05999 1162.3 8.75999 1163.8C8.69999 1166.5 8.99999 1167.3 8.87999 1170.5C10.08 1172.8 12.06 1174.7 12.9 1176.4C14.58 1178.5 15.96 1178 17.1 1180.6C17.58 1181 17.58 1179.1 18.12 1179.8C19.32 1183.8 21.54 1180.8 23.04 1184.8C24.42 1184.5 26.22 1185.1 27.78 1185.6C28.08 1185.7 28.38 1187.1 28.62 1187.3C28.92 1187.5 29.28 1186.3 29.64 1186.5C29.94 1186.6 30.3 1187.4 30.48 1188.2C30.24 1190.8 29.4 1189.9 28.74 1189C28.02 1192.6 26.76 1187.9 26.16 1191.5C25.02 1187.6 23.04 1189.8 21.72 1189.8C21.36 1189.5 21.48 1186.9 21 1187.3C20.7 1187.7 20.76 1189.7 20.28 1189C19.56 1187.6 18.54 1186.9 17.52 1186.5C16.74 1186.2 15.84 1185.6 15.24 1185.7C14.7 1185.8 14.28 1186.5 13.92 1187.4C13.26 1184.3 12.12 1186.7 10.92 1186.6C10.62 1186.6 10.38 1185.9 10.08 1185.8C7.91999 1185 6.11999 1185.1 4.91999 1190C4.79999 1192.9 5.15999 1193.2 5.03999 1195.9C5.93999 1198.9 7.07999 1200.1 8.21999 1201.8C8.75999 1202.6 9.29999 1203.8 9.77999 1204.3C10.44 1205 11.1 1204.6 11.82 1205.1C12.78 1205.9 13.74 1208.2 14.7 1208.4C14.88 1208.5 15.24 1207.8 15.42 1207.6C16.26 1210 17.64 1210.3 18.72 1210.9C19.2 1211.2 19.92 1209.6 20.16 1212.6C19.44 1214.6 18.72 1214.4 18.12 1211.8C18 1213 17.88 1214.4 17.52 1214.3C16.8 1211.5 15.6 1211.1 14.52 1212.6C14.1 1209.7 13.38 1211.9 12.66 1211.8C12 1211.6 11.52 1211.5 10.92 1211.8C10.26 1212.1 9.53999 1210.8 8.87999 1211C7.79999 1211.3 6.77999 1213.7 5.99999 1215.2C5.87999 1219.4 6.29999 1220.2 6.41999 1222.7C7.49999 1224.6 8.69999 1226 9.59999 1226.9C10.08 1227.4 10.44 1227.2 10.92 1227.7C11.1 1227.9 11.22 1229.1 11.34 1229.4C11.58 1229.8 11.82 1229.1 12.06 1229.4C12.9 1230.3 13.86 1232 14.82 1232.7C15.66 1233.4 16.56 1233.8 17.4 1234.4C18.3 1235 19.14 1235.8 19.98 1236.1C21.9 1236.7 23.1 1238.5 24.72 1237.8C25.44 1240 26.28 1239.1 27.3 1239.5C28.02 1239.8 29.04 1239.4 29.16 1242.8C27.48 1244.8 25.98 1243.3 24 1243.6C23.58 1243.8 23.58 1241.7 23.16 1241.9C22.62 1244.2 22.02 1241.2 21.3 1241.9C20.7 1241.4 20.7 1244.1 20.16 1243.6C19.98 1242.9 19.74 1241.6 19.44 1241.1C19.2 1240.7 19.14 1242.2 18.84 1241.9C18.84 1241.9 18.72 1240.3 18.72 1240.2C18.12 1238.5 17.28 1240.9 16.68 1241C16.14 1238.8 15.72 1239.9 15.12 1241C14.94 1239.3 14.46 1239.1 14.1 1238.5C12.12 1239.2 10.74 1236.7 9.77999 1239.3C9.65999 1238.1 9.65999 1236.1 9.17999 1236.8C7.31999 1237.3 4.97999 1235.2 3.71999 1239.3C3.59999 1242.4 3.95999 1242.9 3.83999 1246C4.25999 1247.9 4.85999 1249.1 5.69999 1248.5C6.17999 1251.6 7.01999 1251.6 7.73999 1252.7C8.45999 1253.8 9.11999 1255.5 9.89999 1256C10.14 1256.2 10.5 1255.7 10.74 1256C11.16 1256.5 11.46 1258.1 11.88 1258.5C12.42 1259.1 13.08 1258.7 13.62 1259.3C14.1 1259.9 14.58 1261.4 15.06 1261.8C16.38 1263 17.88 1262.4 19.26 1263.5C19.8 1263.9 20.76 1265.8 21.12 1266C21.24 1266.1 21.3 1265.1 21.42 1265.2C22.2 1265.7 22.98 1267.2 23.7 1267.7C24.78 1268.4 25.62 1268 26.46 1268.5C27.42 1269.1 28.08 1270.2 28.62 1271C28.86 1271.4 29.4 1270 29.46 1272.7C29.1 1276.5 28.02 1275.1 27.18 1275.2C25.5 1275.3 23.76 1274.4 22.74 1275.2C22.38 1273.7 21.9 1273.5 21.42 1273.5C21 1273.5 20.7 1275 20.28 1275.2C20.04 1275.3 19.38 1274.8 19.14 1274.4C18.96 1274.1 18.6 1273.3 18.54 1271.9C18.06 1271.8 18.06 1274.1 17.52 1273.6C17.28 1272.5 17.16 1270.8 16.68 1271.1C15.9 1270.6 15.3 1271.5 14.82 1272.8C14.58 1272.4 14.7 1270.2 14.22 1271.1C12.6 1272.6 10.68 1269.9 8.87999 1271.9C8.57999 1271.4 8.45999 1269.8 8.03999 1270.2C7.43999 1271.7 6.83999 1273.1 5.99999 1273.5C5.69999 1283.3 7.19999 1282.9 8.15999 1284.4C8.57999 1285.1 9.05999 1286.2 9.47999 1286.9C10.08 1287.9 10.74 1287.7 11.04 1290.2C11.58 1290.7 12.12 1290.5 12.6 1291C12.78 1291.2 12.96 1292.4 13.2 1292.7C13.44 1293 13.8 1292.4 14.04 1292.7C15.18 1294 16.14 1295.3 17.22 1296C17.76 1296.4 18.42 1296.1 18.96 1296.8C19.26 1297.2 19.38 1298.3 19.68 1298.5C20.64 1299.2 21.66 1298.5 22.68 1299.3C23.34 1299.8 23.94 1301.5 24.54 1301.8C24.9 1302 25.2 1301.5 25.56 1301.8C25.92 1302.1 26.34 1303.3 26.7 1303.5C27.96 1304.1 28.8 1302.8 29.28 1306.8C26.7 1309.1 24 1306 21.66 1304.3C21.06 1303.9 20.7 1304.8 20.34 1306C20.16 1301.8 18.78 1304.4 18.3 1301.8C17.88 1302.9 17.16 1302.4 16.74 1303.5C16.38 1302.1 15.9 1301.6 15.42 1301C13.56 1302.3 10.98 1295.8 9.23999 1301.8C9.35999 1304.2 9.41999 1307 9.53999 1309.3C10.08 1311.1 10.62 1310.5 11.1 1311C13.02 1314.7 15.18 1318.5 17.16 1320.2C19.2 1322 21 1323.4 22.92 1325.2C23.7 1325.9 24.48 1327 25.2 1327.7C26.82 1329.3 28.74 1329.9 29.94 1332.7C30.42 1332.4 30.84 1332.9 31.26 1333.5C31.56 1334 32.1 1334.9 32.1 1336.8C31.86 1340.1 30.66 1337.7 29.94 1338.5C29.58 1338.8 29.34 1339.5 29.1 1340.2C28.26 1336.8 27.18 1341 26.34 1337.7C25.44 1339.3 24.6 1338.4 24.06 1336.9C23.7 1336.8 23.64 1338.2 23.34 1338.6C23.34 1335.3 22.44 1337 22.2 1335.3C21.06 1337.5 19.5 1337.1 18.3 1334.5C16.92 1337.3 15 1330.3 13.68 1335.3C13.32 1335 13.44 1332.4 12.96 1332.8C12.24 1334.8 11.34 1333 10.5 1333.6C10.32 1333.8 10.14 1335 9.89999 1335.3C9.53999 1335.8 9.23999 1334.7 9.05999 1336.1C9.17999 1344.7 10.5 1346.2 11.94 1347C12.72 1350.2 13.56 1350.1 14.4 1351.2C15.06 1352 15.6 1352.9 16.26 1353.7C17.58 1355.3 18.84 1356.4 19.98 1358.7C21.42 1359.8 22.86 1361.5 24.42 1362.9C24.78 1363.2 25.2 1363.5 25.56 1363.7C26.82 1364.6 27.84 1367.1 28.86 1367.9C29.58 1368.4 30.6 1365.2 30.9 1371.2C28.62 1372.1 27.06 1368.9 24.84 1369.5C24.6 1369.1 24.3 1368.1 24 1367.8C23.82 1367.6 23.7 1368.7 23.58 1368.6C22.38 1368.4 20.82 1365.3 19.86 1367.8C19.56 1365.2 18.84 1366.3 18.3 1367C18.06 1363.1 17.28 1367.1 17.16 1367C17.16 1367 16.92 1365.5 16.86 1365.3C16.32 1363.4 14.7 1364.5 14.28 1364.5C14.28 1364.5 13.98 1363.8 13.86 1363.7C12.78 1363 10.68 1361.6 9.65999 1362.9C9.41999 1363.2 8.75999 1364.6 8.81999 1366.2C8.69999 1372.7 9.95999 1373.9 10.68 1375.4C11.88 1378 13.02 1379.6 14.28 1381.3C14.58 1381.7 15 1382.6 15.3 1383C15.78 1383.5 16.26 1383.3 16.74 1383.8C17.22 1384.4 17.7 1385.7 18.18 1386.3C19.02 1387.3 19.92 1387.1 20.76 1388C21.42 1388.7 22.08 1390.6 22.8 1391.3C23.16 1391.7 23.58 1391.8 23.94 1392.1C24.84 1393 26.28 1394.1 26.94 1395.4C27.66 1395.6 28.62 1394.4 28.68 1398.7C27.12 1400.5 25.32 1396.8 23.76 1399.5C23.4 1399.6 23.28 1398.2 23.16 1397C22.8 1397 22.74 1398.4 22.32 1397.8C21.36 1394 20.1 1396.3 18.72 1396.1C18.3 1395.4 18 1394.1 17.58 1393.6C16.98 1393.1 16.98 1395.8 16.44 1395.3C15.84 1391.8 14.94 1393.7 14.28 1393.6C13.32 1393.5 12.3 1391 11.7 1393.6C11.22 1391.7 10.2 1391.2 9.41999 1391.9C8.99999 1392.3 8.39999 1393.5 8.39999 1395.2C8.21999 1402 9.65999 1402.9 10.44 1404.4C10.68 1404.9 10.86 1404.7 11.16 1405.2C11.58 1406.1 12 1406.9 12.48 1407.7C12.72 1408.2 13.02 1409.1 13.2 1409.4C13.5 1409.8 13.92 1409.1 14.22 1409.4C14.58 1409.8 15 1411.4 15.36 1411.9C16.38 1413.3 17.34 1414.2 18.24 1415.2C19.02 1416.1 19.74 1416.2 20.52 1416.9C20.82 1417.2 21.06 1418.3 21.36 1418.6C22.26 1419.5 23.34 1419.3 24.24 1420.3C24.54 1420.6 24.78 1421.7 25.08 1422C25.86 1422.6 26.7 1421.4 27.36 1424.5C28.02 1423.5 28.8 1423.8 28.92 1427.8C26.1 1429 22.86 1425.7 20.16 1426.1C19.92 1425 19.8 1424.7 19.44 1424.4C18.54 1423.7 17.28 1423.7 16.56 1424.4C15.84 1421.4 14.82 1423.3 13.68 1422.7C12.66 1422.2 11.82 1420.5 11.1 1421C10.74 1421.3 10.2 1423.5 9.77999 1423.5C9.83999 1426 9.77999 1429.2 10.2 1429.4C10.44 1430.8 10.92 1431 11.04 1432.7C11.76 1432.1 12.06 1434.1 12.78 1433.5C13.2 1436.8 14.28 1436.4 14.94 1438.5C15.3 1438.5 15.72 1438.5 16.08 1438.5C16.86 1440.5 17.76 1442 18.96 1441.8C19.32 1442.5 19.5 1444.1 19.98 1444.3C22.38 1446.7 24.96 1447.7 27.06 1451.8C27.78 1450.7 28.74 1450.8 29.34 1451.8C29.7 1452.3 30.24 1453.5 30.18 1455.1C30 1459.9 29.34 1457.3 28.74 1456.8C26.94 1459.5 24.42 1455.9 23.1 1457.6C22.44 1455.4 21.6 1455.3 20.82 1455.1C20.22 1454.9 19.68 1455.4 19.08 1455.1C18.48 1454.8 17.76 1453.7 17.04 1453.4C16.2 1453.1 15.3 1453.8 14.46 1453.4C14.1 1453.2 13.86 1452.1 13.44 1451.7C13.02 1451.3 12.54 1452.1 12.12 1450.9C11.94 1451.7 11.7 1452.3 11.52 1453.4C11.22 1453.8 10.68 1452.3 10.8 1455.1C10.8 1456.5 10.8 1457.9 10.8 1459.3C11.34 1462.4 12.18 1462.4 12.96 1463.5C14.1 1465.1 15.06 1467.8 16.26 1467.7C16.5 1468.9 16.92 1468.8 17.1 1470.2C17.46 1470.2 17.52 1468.8 17.94 1469.4C19.74 1473 21.96 1474.5 24.3 1475.3C25.26 1479.7 27.72 1475.6 28.62 1480.3C25.08 1482.8 22.2 1479.1 19.26 1477.8C18.06 1477.2 16.8 1477.9 15.66 1477C15.24 1476.6 14.88 1475.6 14.52 1475.3C13.14 1474.4 11.58 1473.6 10.2 1477C10.14 1482.3 10.74 1483.9 11.52 1484.5C13.02 1487.1 14.58 1489.8 16.14 1491.2C16.98 1492 18 1491.9 18.6 1492.9C19.92 1495.1 21.36 1495.6 22.8 1497.1C24.24 1498.6 25.74 1500.5 27.24 1500.4C27.6 1501.8 28.08 1502.3 28.56 1502.9C29.46 1502.8 30.48 1502.3 30.72 1506.2C30.06 1508.9 29.22 1507.8 28.44 1507.9C25.62 1508.2 22.86 1505.5 20.64 1506.2C19.56 1503.1 18.48 1504.6 17.46 1504.5C17.1 1504.5 16.92 1502.8 16.74 1502.8C16.74 1502.8 16.5 1504.3 16.32 1504.5C15.48 1505.4 15.12 1503.2 14.58 1502.8C14.4 1502.7 14.04 1503.7 13.86 1503.6C13.32 1503.5 12.66 1502 12.12 1501.9C11.82 1501.9 11.4 1502.6 11.1 1502.7C10.02 1503.2 8.87999 1501.3 7.91999 1505.2C7.97999 1507.9 8.09999 1508.8 8.33999 1510.2C8.81999 1512.9 9.53999 1514.2 10.08 1515.2C10.32 1515.6 10.56 1514.8 10.8 1515.2C10.92 1515.5 10.98 1516.6 11.22 1516.9C11.46 1517.2 11.7 1516.7 11.94 1516.9C13.14 1521.5 15.12 1521.2 16.56 1524.4C18.72 1524.9 20.22 1529.2 22.44 1529.4C23.22 1532.8 24.42 1531.5 25.44 1532.7C25.86 1533.2 26.28 1534.8 26.76 1535.2C27.84 1536.3 28.86 1535.9 29.52 1537.7C29.7 1538.2 30.18 1539.5 30.12 1541C29.46 1543.8 28.26 1542.7 27.24 1542.7C26.04 1542.7 24.9 1542.2 24.06 1543.5C22.5 1540.5 19.98 1543.2 18 1541C17.58 1541.1 17.4 1542.5 16.98 1542.7C16.56 1542 16.26 1540.1 15.84 1539.4C14.34 1541.9 12.72 1538.7 11.22 1539.4C10.98 1539.5 10.8 1540.8 10.5 1541.1C9.83999 1541.8 9.41999 1540.7 9.17999 1541.9C8.93999 1543.2 8.51999 1543 8.33999 1543.6C8.27999 1547.4 8.63999 1548.6 8.75999 1551.1C9.71999 1552.4 10.74 1554.1 11.52 1555.3C11.7 1555.6 11.94 1555 12.12 1555.3C12.24 1555.6 12.3 1556.6 12.54 1557C13.08 1557.7 13.68 1557.2 14.28 1557.8C14.52 1558.1 14.88 1559.1 15.12 1559.5C16.5 1561.4 17.88 1561.8 19.32 1562C19.68 1562.7 19.86 1564.3 20.34 1564.5C21.66 1564.2 22.92 1564.6 23.64 1567.8C22.98 1569 22.32 1567.3 21.48 1567C20.64 1566.7 19.62 1567.7 18.72 1567C17.88 1566.4 16.98 1563.9 16.14 1566.2C15.6 1565.1 14.82 1564.8 13.98 1564.5C12.24 1564 10.32 1563 9.23999 1567C9.11999 1570.4 9.47999 1571.3 9.35999 1574.5C8.81999 1576.4 7.67999 1574.8 7.61999 1579.5C7.55999 1584.4 8.39999 1585 8.93999 1586.2C9.59999 1587.7 10.32 1588.6 10.98 1589.5C11.64 1590.5 12.3 1591.9 13.02 1592.8C13.8 1593.8 14.58 1593.5 15.3 1594.5C15.96 1595.4 16.5 1597.3 17.16 1597.8C17.52 1598.1 18 1597.7 18.3 1597.8C19.14 1598.2 20.04 1599.5 20.88 1600.3C22.44 1601.7 24.24 1602.2 25.5 1604.5C25.74 1605 26.34 1603.8 26.22 1607C25.68 1608.8 25.2 1607 25.08 1607C24.78 1607 24.9 1609.5 24.48 1608.7C23.94 1606 23.16 1607.3 22.44 1607C21.84 1606.8 21.18 1605.2 20.58 1605.3C20.4 1605.3 20.34 1606.2 19.98 1606.1C19.2 1605.9 18.42 1604.7 17.7 1604.4C17.46 1604.3 17.4 1605.2 17.28 1605.2C16.98 1605.3 16.98 1604.4 16.68 1604.4C15.54 1604.2 14.7 1603.1 13.92 1602.7C12.54 1602.1 11.58 1603.5 10.74 1605.2C10.56 1613.6 11.88 1612.9 13.02 1613.6C13.92 1616.7 15.12 1615.7 15.9 1616.9C16.5 1617.9 17.16 1618.8 17.76 1619.4C18.72 1620.3 19.86 1620.1 20.64 1621.1C20.88 1621.4 21.12 1622.6 21.36 1622.8C21.78 1623.1 22.08 1622.5 22.5 1622.8C23.1 1623.2 23.7 1624.7 24.36 1625.3C25.5 1626.4 26.52 1627 27.66 1627C28.32 1629.1 29.88 1629.7 30.42 1629.5C31.08 1630.6 32.16 1629.3 32.28 1633.7C30.96 1635.3 29.58 1632.6 28.08 1632C27.84 1631.9 27.78 1632.8 27.66 1632.8C27.48 1632.9 27.36 1632 27.24 1632C25.86 1631.7 25.02 1630.7 23.94 1630.3C23.58 1630.2 23.16 1630.5 22.8 1630.3C21.42 1629.5 20.04 1627.5 18.78 1627C18.12 1626.7 17.52 1627.5 16.92 1627C16.56 1626.7 16.26 1625.5 15.9 1625.3C15.54 1625.1 15.18 1626.1 15.18 1626.1C15.06 1626.2 15 1625.3 15.06 1625.3C14.4 1625.5 13.98 1625.7 13.74 1626.1C13.14 1627.1 12.9 1626.7 12.72 1630.3C12.96 1636 14.04 1634.4 15 1635.3C15.36 1635.6 15.72 1636.5 16.02 1637C16.38 1637.5 17.04 1636.9 17.04 1639.5C14.88 1640.6 13.08 1634.2 11.4 1639.5C11.28 1643.3 11.76 1643.7 11.82 1646.2C14.88 1648.9 18 1653 21.06 1653.7C21.24 1654.5 21.42 1655.1 21.66 1655.4C22.56 1656.6 23.76 1657 24.84 1657.9C25.98 1658.8 27.24 1658.2 27.72 1662.1C27.12 1665.6 26.7 1661.8 25.98 1661.3C25.14 1662.8 24.36 1660.3 23.4 1659.6C22.38 1658.9 21.18 1659.1 20.22 1659.6C19.98 1658.4 19.8 1658.2 19.5 1657.9C17.88 1656.6 15.84 1657 14.34 1658.7C14.22 1662.1 14.58 1663 14.46 1666.2C15 1668 16.08 1667 15.9 1672.9C15.54 1674.6 14.7 1673.2 14.46 1675.4C14.34 1679.3 14.64 1680.4 14.76 1682.9C15.48 1683.9 16.02 1685.5 16.92 1685.4C17.4 1688.9 18.3 1690.1 18.66 1694.6C19.92 1695.2 20.58 1699.6 21.96 1699.6C22.2 1703.9 23.64 1701.6 23.82 1706.3C23.46 1711.3 22.38 1707.7 21.54 1707.1C20.76 1706.6 19.92 1707.7 19.38 1705.4C18.84 1704.8 18.84 1707.2 18.36 1707.1C18 1707.3 18.24 1703.9 17.76 1704.6C17.1 1705.1 16.86 1703.1 16.2 1703.8C15.54 1701.4 12.96 1697.2 12.6 1703.8C12.6 1708.4 13.38 1709 13.92 1710.5C13.98 1710.7 14.1 1712 14.22 1712.2C14.4 1712.5 14.64 1711.8 14.82 1712.2C14.88 1712.3 15 1713.6 15.12 1713.9C15.72 1715.8 16.26 1716.2 16.56 1718.9C16.86 1721.3 17.28 1719.6 17.58 1720.6C17.52 1722.6 17.28 1724.1 17.58 1725.6C18.18 1724.4 18.6 1727.1 18.72 1727.3C19.44 1728.2 20.58 1726.9 20.28 1731.5C19.44 1729.4 18.48 1731.7 17.52 1731.5C16.44 1731.3 15.3 1728.5 14.52 1732.3C14.4 1735.9 14.76 1736.9 15.12 1738.2C15.48 1739.5 15.54 1742.5 15.96 1743.2C16.68 1742.4 17.4 1742 17.7 1745.7C17.28 1746.5 17.88 1747.9 17.82 1749C17.4 1751.2 16.44 1750.3 15.96 1752.3C16.02 1754.3 16.26 1755.8 15.96 1757.3C16.26 1758.7 16.74 1760.1 17.28 1761.5C17.76 1762.9 18.66 1762.3 18.42 1765.7C17.58 1768.3 16.62 1763.9 15.84 1764C15.36 1764.1 15.06 1765.7 14.7 1766.5C14.88 1775.6 16.86 1774.4 18.3 1776.5C18.66 1779.8 19.86 1778.6 20.34 1781.5C21.24 1782.2 22.44 1780.8 22.38 1787.4C21.84 1790.2 21 1784.8 20.52 1787.4C20.64 1791 20.58 1791.1 20.64 1794.1C21.66 1795.3 22.62 1796.6 23.4 1799.1C24.36 1797.3 25.08 1799 25.68 1799.9C26.76 1801.5 27.96 1801 28.26 1805.8C27.9 1805.9 27.6 1806.3 27.42 1807.5C27.06 1807 27.12 1804.3 26.58 1805C25.92 1805.5 25.68 1803.5 25.02 1804.2C24.54 1804.4 25.38 1807.3 24.9 1807.5C24.54 1807.4 24.18 1807.4 24.06 1808.3C23.88 1811.8 24 1812 24.06 1815.8C23.64 1815.6 23.28 1815.7 23.34 1818.3C23.4 1822.3 23.76 1824.6 24.36 1825.8C24.84 1827.8 25.08 1831.2 25.8 1831.7C25.62 1835.4 26.22 1834.7 26.52 1835.9C26.7 1838.5 27.18 1840.2 27.54 1842.6C27.84 1844.8 28.38 1846.6 28.14 1850.1C27.96 1852.5 27.36 1847.8 27.12 1850.1C27 1853.2 27.42 1853.3 27.42 1855.9C27.66 1856.9 28.38 1856.9 28.02 1859.2C27.48 1861.1 27.36 1858.2 26.7 1858.4C26.34 1856.6 26.58 1855.1 26.4 1853.4C26.1 1853.6 25.92 1852.7 25.98 1850.9C25.8 1848.9 25.56 1852.4 25.38 1850.1C25.5 1845.6 24.24 1847.4 24.66 1843.4C24.36 1841.8 24.42 1843.9 23.94 1843.4C23.7 1841.9 23.94 1837.8 23.22 1839.2C23.16 1843.3 23.76 1843.2 24.06 1845.1C24.36 1846.9 24.48 1849.7 24.9 1851C25.38 1853.5 25.92 1855.6 26.22 1859.4C26.28 1861.1 26.88 1859.6 26.82 1861.9C27.3 1869 28.14 1873.8 28.26 1882.8C28.8 1886 29.04 1891.1 29.58 1894.5C29.52 1896.1 29.28 1896.6 29.28 1898.7C29.7 1898.8 29.58 1901.6 29.7 1902.9C30.06 1906.1 30.72 1907.7 31.02 1911.3C31.5 1913 32.1 1913.9 32.16 1918C33.3 1916.8 33.42 1925.6 34.32 1923C34.62 1917.8 33.66 1920.3 33.6 1917.1C33.24 1915.2 33.66 1913.8 33.6 1911.3C33.54 1910 33 1907.8 33.3 1907.1C33.48 1903.4 32.82 1904.4 32.88 1901.2C33.12 1898.6 32.82 1896.6 32.58 1894.5C32.88 1894.4 32.88 1892.4 32.88 1890.3C32.58 1888.3 32.28 1886.1 32.16 1882.8C31.98 1881 31.38 1881.1 31.32 1878.6C32.04 1876.2 31.62 1871.1 31.32 1867.7C30.72 1866.9 30.78 1870 30.3 1870.2C30.12 1870 29.76 1866.8 29.58 1869.4C28.98 1870.2 29.16 1866.9 28.56 1867.7C28.8 1863.7 28.26 1863.4 28.56 1858.5C29.04 1859.9 29.34 1858.9 29.88 1858.5C30.42 1860.6 30.18 1867.1 30.72 1865.2C30.72 1864.1 31.44 1863.5 31.02 1862.7C30.78 1861 31.08 1860.4 31.02 1858.5C30.96 1856.3 30.3 1855.1 30.42 1851.8C30.12 1850.6 29.7 1850.6 29.58 1848.5C30.06 1847.3 29.4 1844.4 29.7 1843.5C29.88 1844.7 30.12 1843.9 30.42 1844.3C30.72 1844.8 30.9 1846 31.14 1846C31.86 1846 32.04 1845.8 32.46 1842.7C32.52 1841 32.22 1840.9 32.16 1840.2C32.1 1839.7 32.1 1837.6 32.04 1836.9C31.86 1835.5 31.44 1833 31.2 1831.9C30.96 1830.9 30.66 1831.1 30.36 1830.2C30.3 1829.9 30.18 1828.9 30.06 1828.5C29.34 1826.1 28.62 1824.7 28.02 1822.6C27.72 1820.8 27.66 1817.4 27.18 1816.7C27 1815.1 26.58 1818.8 26.04 1817.5C25.86 1815.4 25.26 1815.4 25.44 1810.8C27.54 1810.4 29.34 1815.8 31.2 1814.1C31.44 1816.9 32.58 1817.7 32.94 1814.9C32.94 1813.9 32.94 1812.5 33.06 1812.4C32.88 1807.6 32.1 1806.3 31.5 1804C30.84 1804 30.06 1808 29.76 1803.2C29.88 1801.4 30.42 1801.8 30.6 1800.7C30.6 1798.6 30.6 1796.6 30.9 1796.5C31.62 1796.6 32.34 1796.4 32.64 1794C32.76 1785.9 31.08 1787.8 30.48 1784C30.12 1782 30.6 1780.4 30.48 1777.3C29.82 1775.3 28.92 1774.7 28.62 1770.6C29.4 1771.5 29.34 1767.7 29.76 1766.4C30.42 1766.4 30.78 1764.5 31.08 1762.2C31.2 1758.1 30.72 1757.7 30.66 1754.7C30.72 1753.1 31.2 1754 31.08 1751.4C30.9 1750 30.24 1751.4 30.24 1748.9C30.54 1747.1 30.78 1744.9 30.84 1741.4C30.66 1737.8 29.82 1737.9 29.52 1734.7C28.8 1736.4 28.14 1731.6 27.36 1730.5C26.28 1729 25.02 1729.9 23.76 1728.8C23.4 1728.5 23.52 1725.9 23.04 1726.3C22.86 1726.6 22.74 1727.5 22.44 1727.1C22.08 1724.5 21.18 1724.8 20.88 1722.1C22.5 1718.8 24.3 1722.8 25.92 1722.9C26.88 1723 27.72 1721.5 28.5 1723.7C28.92 1726.3 28.98 1731 29.52 1732.9C29.88 1729.6 28.86 1726 29.4 1722C30.42 1722.5 31.08 1721 31.56 1718.7C31.38 1716.2 31.44 1714.5 31.68 1712.8C31.2 1713.1 31.44 1710.5 31.26 1709.5C31.14 1708.9 30.9 1708.6 30.66 1707.8C30.06 1705.5 29.46 1703.2 28.8 1702C28.32 1701.1 27.72 1701.3 27.24 1700.3C27.06 1699.9 26.88 1699.1 26.64 1698.6C26.46 1698.2 25.98 1698.1 26.04 1696.1C28.32 1696.4 30.3 1698.1 32.22 1700.3C32.76 1697.5 33.06 1690.8 32.34 1687.8C32.64 1685.8 33 1684.3 32.94 1680.3C32.1 1673.1 30.48 1675.4 28.92 1674.4C28.68 1674.2 28.32 1673 28.08 1672.7C27.42 1672 26.64 1672.7 25.92 1671.9C25.62 1671.6 25.32 1670.4 25.08 1670.2C24.48 1669.9 23.88 1670.4 23.34 1670.2C22.56 1667.2 20.94 1669.3 20.34 1665.2C21.54 1665.9 22.2 1664.6 23.1 1666.9C23.82 1665.8 25.26 1666.9 25.98 1668.6C27.96 1667.9 30.12 1668.3 32.04 1669.4C32.28 1667.4 32.58 1665.8 32.46 1661.9C32.22 1659.3 31.62 1658.1 31.14 1656.9C30.84 1656.2 30.54 1656.6 30.3 1656.1C30 1655.5 29.94 1653.2 29.58 1653.6C29.1 1655.4 27.78 1654.8 27.54 1651.9C28.38 1650.4 29.64 1652.9 30.72 1652.7C30.96 1651.6 30.72 1647.7 31.14 1647.7C31.08 1642.6 29.88 1643.7 29.7 1639.3C30.66 1638.6 32.7 1640.2 33.6 1640.1C33.9 1637.5 34.14 1639.7 34.74 1638.4C34.98 1635.7 35.28 1633.8 35.16 1629.2C34.68 1627.2 34.02 1625.2 33.3 1624.2C33.06 1623.9 32.7 1624.4 32.46 1624.2C32.04 1623.9 31.68 1622.7 31.32 1622.5C29.82 1621.6 28.74 1621.6 28.02 1621.7C27.96 1619.9 27.54 1619.6 27.18 1619.2C26.16 1618.1 24.78 1618.4 24 1619.2C23.46 1618.3 23.1 1616.6 22.56 1615.9C21.96 1615.9 21.42 1615.9 20.82 1615.9C20.28 1616.1 20.28 1613.4 19.8 1613.4C19.38 1613.3 18.96 1616.9 18.78 1613.4C18.84 1610.2 19.32 1612.7 19.62 1612.6C19.98 1612.5 20.4 1611.6 20.76 1611.8C21.36 1612 21.96 1613.2 22.62 1613.5C23.16 1613.7 23.7 1613.1 24.18 1613.5C24.6 1613.8 24.9 1615.1 25.32 1615.2C26.52 1615.5 27.6 1614.1 28.5 1611.9C28.5 1608.3 28.74 1606.1 28.62 1601.9C28.02 1600.7 27.42 1599.2 26.88 1597.7C24.06 1597.3 22.02 1592.4 19.08 1592.7C18.48 1589.3 16.92 1591.2 16.2 1588.5C15.96 1589.2 15.66 1589.9 15.36 1590.2C14.94 1589.7 15 1586.7 14.52 1586.9C13.86 1586.9 13.08 1587.3 13.08 1583.6C14.1 1582.8 14.88 1585.8 15.66 1583.6C16.62 1586.4 18.12 1583.3 19.14 1586.9C19.5 1586.4 19.8 1585.7 20.28 1586.1C21.48 1587.3 22.98 1589.5 24 1590.3C24.36 1590.6 24.72 1590.1 25.14 1590.3C25.68 1590.5 26.22 1591.8 26.7 1592C26.94 1592.1 27.18 1591.2 27.42 1591.2C28.56 1591.2 29.64 1592.9 30.3 1589.5C30.36 1589.3 30.24 1588.1 30.3 1587.8C30.42 1586.8 30.9 1586.2 30.72 1584.5C30.36 1580.9 29.88 1580.4 29.28 1579.5C29.1 1579.2 28.86 1578 28.68 1577.8C28.44 1577.5 28.2 1578.7 28.08 1578.6C27.9 1578.5 27.84 1577 27.66 1576.9C27.36 1576.7 26.76 1579.5 26.64 1576.1C27.72 1573.8 29.76 1579.1 30.66 1572.8C30.54 1569.7 30.9 1568.3 30.66 1566.9C29.94 1561.6 28.62 1563.8 27.36 1562.7C27.06 1562.4 26.82 1561.2 26.52 1561C25.8 1560.6 25.14 1561.6 24.48 1561C24.12 1560.7 23.82 1558.8 23.46 1559.3C22.98 1558.9 22.68 1559.6 22.32 1560.1C22.02 1558.9 21.72 1557.9 21.3 1557.6C18.12 1556.2 15.42 1552 12.36 1550.1C12.42 1547.1 11.52 1550.1 11.64 1546.8C17.76 1544 24.48 1552.3 31.08 1548.5C31.44 1545.7 31.8 1543.1 31.68 1537.6C31.26 1533 30.18 1531.3 29.4 1530.1C28.68 1529.1 28.14 1529.2 27.36 1528.4C25.74 1526.6 24.06 1523 22.62 1524.2C22.32 1523.8 22.26 1522.4 21.9 1522.5C21.54 1522.2 21.6 1524 21.18 1523.3C20.88 1522.6 20.76 1520.8 20.34 1520.8C18.96 1520.6 18.06 1517.3 16.62 1517.5C15.54 1514.5 13.8 1512.1 12.42 1513.3C12.6 1509.6 11.58 1513.3 11.58 1510.8C11.88 1507.9 12.54 1509.2 12.9 1509.1C13.5 1509 13.98 1509.9 14.46 1509.9C14.76 1509.9 15.18 1509.1 15.48 1509.1C17.22 1508.9 19.08 1511.6 20.94 1511.6C21.18 1511.6 21.42 1510.7 21.66 1510.8C22.08 1511 22.5 1512.2 22.98 1512.5C23.4 1512.8 23.88 1512.3 24.3 1512.5C24.66 1512.7 25.08 1513.9 25.44 1514.2C25.74 1514.4 25.86 1513.4 26.04 1513.4C26.28 1513.3 26.58 1514.2 26.76 1514.2C28.14 1514.4 29.28 1515.6 30.36 1515C30.66 1514.9 30.96 1513.7 31.2 1513.3C31.62 1512.8 31.98 1513.6 32.34 1512.5C32.58 1509.8 32.82 1506.8 32.76 1502.5C31.38 1494.8 28.8 1494.2 26.28 1493.3C25.74 1491 24.96 1492.3 24.24 1491.6C24 1491.4 23.64 1490.1 23.4 1489.9C22.98 1489.6 22.44 1490.1 21.96 1489.9C21.66 1489.5 21.6 1488.1 21.24 1488.2C20.58 1487.6 19.68 1488.4 19.5 1484.9C20.04 1483.4 20.64 1485.5 21.24 1485.7C21.9 1486 22.62 1485.2 23.28 1485.7C23.7 1486 24.06 1487.2 24.42 1487.4C24.78 1487.5 25.08 1486.6 25.44 1486.6C25.62 1486.6 25.62 1487.4 25.86 1487.4C26.4 1487.4 26.82 1487.3 27.42 1487.4C29.16 1487.6 30.72 1489.8 32.04 1485.7C32.22 1482.4 32.1 1482.6 32.16 1479C31.2 1472 29.04 1473 27.12 1471.5C26.64 1471.1 26.28 1470.1 25.8 1469.8C25.44 1469.6 25.14 1470.1 24.78 1469.8C23.52 1468.7 22.32 1464.8 21.3 1468.1C21.18 1464.6 20.1 1466.7 19.86 1463.9C19.44 1463.1 18.42 1465.7 18.42 1462.2C18.72 1459 19.44 1461.5 19.86 1462.2C20.7 1461.2 21.6 1462.8 22.62 1463C23.22 1463.1 23.82 1462.8 24.48 1463C25.26 1463.3 26.1 1464.5 26.94 1464.7C27.24 1464.7 27.6 1463.9 27.96 1463.9C28.32 1463.9 28.74 1464.8 29.1 1464.7C29.76 1464.5 30.24 1462.4 30.84 1463.9C31.26 1462.3 31.62 1460.7 31.98 1458.9C31.86 1455.8 32.16 1454.9 32.1 1452.2C31.86 1449.5 31.38 1448.2 30.96 1447.2C30.42 1445.9 30.36 1446.3 29.64 1445.5C29.4 1445.2 29.16 1444 28.92 1443.8C28.44 1443.4 27.54 1442.9 27.36 1443C27.18 1443.1 27.18 1444 26.94 1443.8C26.76 1443.7 26.58 1442.5 26.34 1442.1C24.78 1439.9 23.22 1439.7 21.72 1438.8C21.3 1439 21.3 1436.9 20.88 1437.1C20.4 1436.4 20.34 1438.3 19.86 1437.9C19.62 1436.4 19.14 1436.1 18.84 1434.6C17.34 1434.7 16.2 1430.8 14.82 1432.9C14.76 1430.6 14.22 1431.4 14.1 1429.6C17.52 1427.4 21.24 1432.9 24.9 1433.8C25.14 1433.9 25.38 1432.9 25.62 1433C26.94 1433.1 28.32 1433.9 29.82 1433.8C30.3 1431.2 30.6 1425.3 30.24 1420.4C28.68 1415.6 26.22 1415.9 24.36 1412.9C22.38 1413.5 20.7 1408 19.02 1409.6C18.36 1405.5 16.74 1406.6 15.84 1403.7C15.18 1404 14.64 1403.6 14.4 1402.9C14.04 1401.6 13.32 1402.5 13.26 1399.6C14.58 1399.4 15.9 1399.2 17.28 1399.6C20.1 1400.4 22.5 1403.7 25.08 1404.6C26.28 1405 27.48 1404.6 28.68 1404.6C29.4 1404.6 30.12 1406.7 30.72 1402.9C30.9 1399.1 30.78 1396.4 30.72 1392.9C30.54 1391.5 30.3 1392 30 1391.2C29.76 1390.6 29.52 1389.1 29.28 1388.7C29.04 1388.2 28.74 1389.1 28.44 1388.7C28.2 1388.4 27.96 1387.3 27.72 1387C27.42 1386.7 27.12 1386.5 26.88 1386.2C25.98 1385.2 25.2 1384.9 24.42 1385.4C24.12 1385.4 24.24 1383.1 23.82 1383.7C22.26 1383.4 21.12 1380.5 19.5 1380.4C18.96 1378.3 18.3 1378.7 17.64 1377.9C17.28 1377.5 16.86 1376.7 16.5 1376.2C15.78 1375.3 14.88 1375.2 14.34 1372.9C13.86 1373.1 13.38 1374.9 13.2 1372.1C13.44 1368.4 14.16 1369.5 14.64 1369.6C15.12 1369.6 15.78 1371.1 16.2 1371.3C16.5 1371.4 16.5 1370.4 16.8 1370.5C16.98 1370.5 17.1 1371.2 17.4 1371.3C18.6 1371.8 19.86 1371.5 21.12 1372.1C21.72 1372.4 21.9 1373.7 22.26 1372.9C22.38 1372.6 22.5 1373.7 22.56 1373.7C23.4 1374 24.12 1373.4 24.84 1373.7C25.74 1376.7 26.82 1375.7 28.02 1376.2C29.58 1376.9 31.5 1379.8 33.06 1376.2C33.24 1372.3 33.36 1370.5 33.18 1366.2C32.76 1365.4 32.46 1363.6 32.04 1362.9C30.9 1360.4 29.34 1360.2 28.14 1357.9C27.6 1357 27.72 1360 27.3 1359.6C27.12 1358.2 27 1356.3 26.58 1356.3C26.34 1357 26.04 1357.7 25.74 1358C25.5 1357 25.26 1355.8 25.02 1354.7C24.66 1355.4 24.24 1355.8 23.7 1355.5C23.64 1354 23.22 1354.8 23.1 1354.7C22.74 1354 22.68 1353.3 22.38 1353C21.72 1352.4 21 1352.1 20.34 1353C20.04 1352 19.92 1349.9 19.5 1349.7C19.5 1351.5 18.9 1350.1 18.66 1350.5C18.24 1347.9 17.16 1349.1 16.5 1348C16.38 1347.2 16.2 1346.3 16.08 1345.5C15.06 1344.9 14.1 1344.3 13.5 1341.3C13.2 1340.9 12.9 1343.9 12.9 1340.5C13.92 1339.9 15.12 1340.5 15.78 1340.5C16.08 1340.5 16.26 1339.5 16.5 1339.7C16.98 1339.9 17.46 1341.1 17.94 1341.4C19.02 1341.9 20.4 1341.9 21.12 1342.2C21.84 1342.6 22.86 1342.3 22.98 1342.2C23.22 1342.1 23.46 1342.1 23.7 1342.2C26.1 1342.8 28.98 1347.1 31.02 1344.7C31.14 1344.6 31.14 1345.5 31.14 1345.5C32.16 1345.9 32.82 1344 33.6 1343C33.9 1341 33.96 1337.7 33.9 1333.8C33.54 1329.3 32.82 1328.5 32.04 1327.1C31.98 1327 31.8 1325.6 31.74 1325.4C31.5 1325 31.14 1325.7 30.9 1325.4C30.6 1325.1 30.42 1324 30.18 1323.7C29.04 1322.5 27.9 1321.2 26.88 1320.4C26.22 1319.9 25.56 1320.2 25.02 1319.6C24.78 1319.3 24.42 1318.2 24.18 1317.9C23.88 1317.6 23.52 1318.1 23.16 1317.9C22.32 1317.2 21.48 1315 20.7 1314.6C20.28 1314.3 19.92 1314.8 19.56 1314.6C18.78 1312.5 17.52 1312.3 16.68 1311.3C16.44 1311 15.78 1311.1 15.84 1308.8C16.08 1304.9 16.5 1309.9 17.16 1308.8C22.02 1309 26.64 1318.8 31.14 1311.3C31.26 1308.9 31.32 1306.1 31.44 1303.8C31.2 1301.3 30.96 1300.7 30.6 1299.6C30.12 1298.2 29.7 1298.7 29.16 1297.9C28.8 1297.3 28.44 1295.8 28.02 1295.4C26.22 1293.6 24.18 1294.9 22.68 1291.2C22.14 1290.7 22.14 1293 21.66 1292.9C21.36 1291.7 21.06 1290.7 20.64 1290.4C18.12 1290.5 16.5 1285.5 14.04 1285.4C13.26 1282.2 11.82 1282.5 10.86 1280.4C10.92 1278.1 11.28 1278.9 11.58 1278.7C12.12 1278.3 13.08 1278.4 13.32 1278.7C13.44 1278.8 13.44 1277.9 13.44 1277.9C14.64 1277.8 15.48 1278.3 16.32 1277.9C17.22 1277.5 18.18 1278.7 19.08 1277.9C19.56 1278.9 20.28 1280.4 21.12 1280.4C21.36 1280.4 21.72 1279.5 21.96 1279.6C22.44 1279.8 22.92 1281 23.4 1281.3C24.3 1281.7 25.68 1282.1 26.28 1282.1C26.58 1282.1 26.88 1281.2 27.12 1281.3C29.34 1282.1 32.4 1281.8 31.44 1267.1C30.12 1262.5 28.44 1262.4 26.82 1261.2C26.22 1260.8 25.68 1259.8 25.08 1259.5C24.66 1259.3 24.18 1259.8 23.76 1259.5C23.34 1259.2 22.98 1258.1 22.62 1257.8C22.08 1257.5 21.54 1258.1 21.06 1257.8C19.86 1257.2 18.66 1255.2 17.46 1254.5C17.1 1254.3 16.68 1254.8 16.32 1254.5C15.72 1254 15.06 1252.5 14.46 1252C13.56 1251.3 12.54 1251.2 11.7 1250.3C11.22 1249.8 10.74 1248.4 10.26 1247.8C9.71999 1247.1 9.05999 1247.9 8.69999 1245.3C9.17999 1243.2 9.71999 1244.5 10.26 1244.5C12.6 1244.4 14.34 1246.6 16.32 1247C16.92 1247.1 17.46 1246.1 18.06 1246.2C18.84 1246.2 19.56 1247.6 20.34 1247.9C21.6 1248.4 22.62 1248.1 23.64 1248.7C24 1248.9 24.42 1250.2 24.78 1250.4C25.02 1250.5 25.2 1249.5 25.5 1249.6C27.54 1249.8 29.76 1251.6 31.38 1246.3C31.62 1242.9 31.26 1240.9 31.5 1237.1C31.02 1235.2 30.36 1233 29.64 1232.1C29.34 1231.8 28.92 1232.3 28.5 1232.1C26.34 1231.2 23.46 1228.2 21.6 1229.6C20.7 1227.1 19.62 1227.6 18.6 1227.1C17.46 1226.5 16.38 1224.6 15.3 1223.8C14.58 1223.3 14.04 1223.5 13.56 1223C13.26 1222.6 12.96 1222.4 12.72 1222.2C12.18 1221.7 11.52 1222.1 11.16 1219.7C12.96 1219.3 15.12 1218.3 17.22 1218.9C17.88 1219.1 18.48 1220 19.08 1219.7C19.5 1219.5 19.86 1218.8 20.22 1218.9C20.94 1219.1 21.6 1221 22.38 1221.4C23.04 1221.8 23.88 1221.2 24.54 1221.4C26.52 1221.9 28.2 1223.1 30 1222.2C30.72 1221.9 31.38 1221.1 31.86 1218.9C31.86 1214.6 32.1 1213.4 31.86 1209.7C30.9 1206.3 28.8 1205.4 27.54 1206.4C27.12 1204.4 26.58 1205.7 26.1 1205.6C25.68 1205.5 25.32 1204.8 25.08 1204.8C24.9 1204.7 24.9 1205.7 24.66 1205.6C23.46 1205.2 22.2 1203.4 20.94 1203.1C20.7 1203 20.46 1204 20.22 1203.9C18.12 1203.6 16.32 1199.9 14.58 1201.4C13.44 1196.8 11.1 1199.3 9.95999 1194.7C10.5 1193.4 11.1 1194.1 11.7 1193.9C12.18 1193.7 12.66 1192.9 13.14 1193.1C15.78 1193.8 18.9 1193.2 21.78 1194.8C22.26 1195.1 22.86 1196.3 23.34 1196.5C23.58 1196.6 23.94 1195.7 24.18 1195.7C24.42 1195.7 24.72 1196.5 25.02 1196.5C25.26 1196.5 25.44 1195.7 25.74 1195.7C25.98 1195.7 26.16 1196.5 26.46 1196.5C26.7 1196.5 27.06 1195.6 27.18 1195.7C27.42 1195.9 27.54 1197.3 27.9 1197.4C30 1198.1 32.4 1196.6 33.24 1191.5C33.12 1188.3 33.48 1186.2 33.24 1184.8C32.52 1178.9 30.54 1180.5 29.22 1178.1C28.68 1177.2 28.8 1180.2 28.38 1179.8C27.6 1176.4 26.22 1178.1 25.5 1178.1C24.84 1178.1 24.24 1176.5 23.64 1176.4C23.04 1175.4 23.1 1178.2 22.62 1178.1C21.72 1173.5 20.22 1174.9 18.9 1173.9C18.6 1173.7 18.36 1172.5 18.06 1172.2C17.7 1171.9 17.28 1172.6 16.92 1172.2C16.56 1171.9 16.26 1170.8 15.9 1170.5C15.6 1170.2 14.88 1172.2 14.76 1168.8C16.62 1167.5 18.54 1166.3 20.52 1166.3C22.62 1166.3 24.78 1168.5 26.88 1168C28.14 1167.7 29.52 1166.9 30.6 1163C30.48 1159.9 30.78 1159 30.72 1156.3C29.88 1153.3 29.1 1154.6 28.14 1154.6C27.36 1154.6 26.4 1154.4 25.68 1153.8C25.32 1153.5 25.02 1152.3 24.66 1152.1C24.42 1152 24.18 1152.9 24.06 1152.9C23.4 1153 22.56 1150.7 21.9 1152.9C21.54 1153.1 21.78 1149.7 21.3 1150.4C20.7 1152.7 19.62 1152.4 19.26 1148.7C20.16 1147.8 21.06 1149.5 21.84 1149.5C22.14 1149.5 22.32 1148.5 22.56 1148.7C22.98 1148.9 23.4 1150.1 23.88 1150.4C24.54 1150.8 25.32 1149.3 25.92 1151.2C26.28 1148.9 27.24 1151.2 27.96 1151.2C28.38 1151.2 28.8 1150.3 29.28 1150.4C30.42 1150.5 33 1154.2 33.3 1146.2C33.36 1144.4 33.12 1143.5 33.3 1142C33.06 1138.5 31.74 1141.2 31.56 1137C32.4 1135.9 33.18 1137 34.32 1136.2C34.74 1133.6 35.28 1131.6 35.16 1126.2C34.86 1120.6 33.66 1122.2 34.32 1118.7C34.74 1116.5 34.2 1113.4 34.32 1111.2C34.32 1108.8 34.92 1109.7 34.92 1107C34.92 1104.2 34.92 1101.4 34.92 1098.6C32.16 1093.4 28.44 1094.7 25.14 1093.6C22.92 1092.9 20.88 1088.9 18.96 1091.1C18.6 1090.4 18.42 1088.8 17.94 1088.6C17.22 1087.8 16.92 1089.6 16.62 1086.9C18 1085.3 19.86 1086.8 21.24 1085.2C22.44 1089.5 24.42 1086.3 25.68 1090.2C27.06 1088.6 29.04 1091.3 30.84 1091.9C31.86 1092.2 32.88 1090.9 33.3 1093.6C34.74 1091.8 36.48 1095 37.92 1096.1C38.4 1094.4 39 1093.6 39.66 1092.8C39.78 1090.3 40.08 1089.2 39.96 1085.3C39.66 1083.4 39.12 1081.3 38.52 1080.3C37.86 1079.2 36.96 1080.8 36.48 1077.8C36.24 1072.8 37.14 1074.4 37.08 1070.3C37.32 1068.9 37.2 1065.4 37.2 1062.8C36.78 1058.9 35.76 1058.3 35.04 1056.1C35.22 1053.3 36.18 1054.8 36.48 1052.8C36.78 1047.6 36.42 1045.4 36.06 1041.9C36.18 1040.1 36.42 1038.2 36.18 1036.9C35.52 1036.5 34.98 1034.2 34.32 1033.6C33.6 1032.9 32.76 1033 32.04 1032.8C28.26 1031.7 23.88 1033.2 20.22 1029.5C19.62 1029.5 19.68 1033.7 19.08 1033.7C18.6 1030.9 17.4 1032.3 16.62 1031.2C16.8 1030 16.8 1029.1 16.62 1027.9C15.54 1027.5 14.34 1027.6 13.62 1025.4C15.72 1022.3 17.76 1026.6 19.38 1022.9C19.68 1023.4 19.8 1025 20.22 1024.6C25.68 1024.6 29.58 1025.7 33.9 1024.6C34.32 1023.3 34.56 1021.2 35.04 1020.4C36.18 1021 37.92 1021 39.06 1020.4C40.44 1019.7 42.24 1023 42.96 1017.1C43.02 1013.5 42.48 1013.7 42.54 1010.4C41.64 1008.3 40.68 1006.7 39.54 1006.2C38.88 1005.9 37.8 1005.3 37.5 1005.4C37.44 1005.4 37.2 1006.3 36.9 1006.2C36.06 1005.9 35.22 1004.7 34.44 1004.5C32.52 1004 31.26 1003.6 30 1000.3C29.88 1001.5 29.52 1001.5 29.28 1002C28.98 1000.8 28.68 1000.1 28.26 999.5C27.72 1001 27.3 998.9 26.82 997.8C26.46 998.6 25.98 999.2 25.8 997C25.2 996.2 25.38 999.5 24.78 998.7C24.84 995.6 24.24 996.2 23.94 995.4C22.44 996.3 22.02 994.6 20.64 995.4C20.22 994 19.62 992.9 19.08 994.6C18.96 993 18.72 992.4 18.36 992.1C16.68 992.2 14.82 989.8 13.44 990.4C12.72 987.6 11.88 986.8 10.86 987.9C10.8 985.2 9.89999 987.2 10.14 982.9C13.02 983.6 15.36 987 18.06 985.4C18.3 986.4 18.42 987.8 18.78 987.9C20.1 986.7 21.48 989.1 22.98 989.6C23.46 989.8 24.06 989.2 24.54 989.6C24.9 989.9 25.2 991.1 25.56 991.3C26.16 991.6 26.82 990.8 27.42 991.3C27.72 991.6 28.08 992.8 28.44 993C28.74 993.1 29.04 992.2 29.28 992.2C32.28 992.2 35.52 996.1 38.22 989.7C39 989.6 39.96 990.4 40.38 988C40.62 982.2 40.02 981.1 39.96 977.1C41.76 978 43.2 977.1 42.96 966.2C41.16 952.9 36.24 961.1 33.48 957C32.88 956.4 33 959.7 32.34 958.7C32.22 956.5 31.5 957.9 31.5 955.4C32.64 954.7 33.72 956.7 34.68 955.4C35.28 954.6 35.58 952 36.12 951.2C38.52 950.7 40.62 952.3 42.48 951.2C42.78 949 42.66 943.5 42.48 941.2C40.5 934.5 37.8 936.1 35.04 935ZM28.26 1874.6C28.56 1874.3 28.74 1874.7 28.86 1875.4C28.98 1876.1 28.92 1877.1 28.98 1877.9C29.1 1878.8 29.46 1880.2 29.58 1881.2C29.64 1881.6 29.52 1882.5 29.58 1882.9C29.82 1884.6 30 1886.2 30.3 1887.1C30.42 1892.2 31.14 1894.1 31.32 1898.8C31.74 1898 32.82 1896.4 32.64 1901.3C32.1 1902.1 32.04 1898 31.62 1900.5C31.5 1903.2 32.1 1901.7 32.22 1903C32.28 1905.5 32.82 1905.1 32.64 1908.9C32.1 1908.5 31.92 1905.7 31.32 1905.6C30.96 1901 30.54 1896.8 29.88 1893.9C29.7 1888.1 28.98 1885.6 28.86 1879.7C28.74 1878.5 28.62 1877.1 28.26 1877.2C28.26 1876.3 28.26 1875.4 28.26 1874.6ZM4.19999 1012.8C4.19999 1012 4.37999 1012.2 4.49999 1012C4.91999 1009.7 5.09999 1012.8 5.51999 1012.8C7.61999 1010.2 10.14 1010.2 12.6 1011.1C14.58 1011.9 16.8 1010.8 18.48 1011.9C18.78 1012.1 19.26 1012.3 19.5 1012.7C19.62 1012.9 20.16 1013 20.1 1015.2C15.84 1016.6 11.7 1013.2 7.85999 1015.2C7.31999 1015.5 6.89999 1016.1 6.41999 1016.9C5.57999 1015.8 4.79999 1014.9 4.19999 1012.8ZM6.53999 1025.3C8.15999 1027.2 9.35999 1031.4 11.16 1032C11.16 1034.8 10.5 1034.3 10.14 1034.5C8.93999 1035.2 7.43999 1032.8 6.65999 1031.2C6.65999 1029.6 6.53999 1028.4 6.35999 1027.9C6.35999 1026.5 6.53999 1026.4 6.53999 1025.3ZM6.35999 891.6C6.89999 888 8.75999 888.5 9.53999 890.8C10.08 891.1 10.5 890.7 10.86 890C11.88 893.1 13.74 892.5 15.6 894.2C17.52 895.9 19.62 898.8 21.48 901.7C22.26 902.9 22.92 903.5 23.76 904.2C23.88 904.3 24.48 903.3 24.36 905.9C23.34 905.5 22.32 906.4 21.36 905.9C21 905.7 20.76 904.6 20.34 904.2C19.98 903.8 19.56 904.5 19.2 904.2C18.84 904 18.54 902.9 18.18 902.5C17.46 901.8 16.74 901.5 15.9 900.8C14.76 899.9 13.08 899.8 11.88 898.3C11.64 898 11.52 896.9 11.28 896.6C10.62 895.7 9.95999 896.2 9.41999 894.1C8.75999 893.1 8.87999 896.4 8.27999 895.8C7.97999 892.3 6.77999 894.3 6.35999 891.6ZM7.67999 938.4C7.67999 937.6 7.67999 936.7 7.67999 935.9C9.59999 934.1 11.28 935.9 13.14 936.7C13.5 936.9 13.92 936.4 14.28 936.7C15 937.3 15.72 939.2 16.44 940C17.16 940.8 17.94 940.4 18.6 942.5C18.78 945.3 18.18 944.6 18 945C17.58 946.5 16.2 943.9 15.24 945.8C14.82 945.9 14.58 944.8 14.22 944.1C13.8 943.5 13.92 946.4 13.5 945.8C13.14 942.8 11.94 944.9 11.34 943.3C10.8 942.6 10.8 945.3 10.5 945.8C10.02 945.6 9.35999 946.4 9.05999 945C9.17999 943.3 9.77999 944.8 9.65999 941.7C9.11999 940.1 8.51999 938.5 7.67999 938.4ZM8.09999 1084.7C8.15999 1081.2 9.83999 1080.7 9.95999 1083C10.2 1086 9.47999 1083.5 9.53999 1085.5C8.87999 1084.5 8.63999 1086.3 8.09999 1084.7ZM8.27999 815.5C8.39999 815.9 8.51999 816.4 8.69999 816.3C8.63999 817 8.57999 817.7 8.57999 818.8C8.09999 819.2 8.03999 816.7 8.27999 815.5ZM10.26 743.6C10.26 743 10.26 742.5 10.26 741.9C10.38 742 10.38 741.6 10.38 741.1C10.5 741.1 10.56 741.1 10.68 741.1C10.68 741.8 10.74 741.9 10.8 741.9C10.8 742.5 10.8 743 10.8 743.6C10.68 743.5 10.68 743.9 10.68 744.4C10.56 744.4 10.5 744.4 10.38 744.4C10.44 743.7 10.38 743.6 10.26 743.6ZM10.56 965.9C10.56 965.1 10.56 964.2 10.56 963.4C11.22 964.3 12.06 964 12.42 966.7C12.72 966.3 13.14 965 13.44 966.7C12.66 968.9 11.28 967.2 10.56 965.9ZM10.98 976.8C10.92 975.4 11.1 975.4 11.1 974.3C11.46 974.2 11.52 975.6 11.82 976C11.82 977.8 11.22 976.3 10.98 976.8ZM11.88 1035.3C12.06 1035.3 12.24 1035.3 12.48 1035.3C12.54 1037.5 12.42 1038.9 12.06 1038.6C11.88 1037.9 11.82 1036.8 11.88 1035.3ZM12 1097.2C12.3 1095.9 13.02 1094.6 13.02 1098C12.54 1098.4 12.48 1096.5 12 1097.2ZM12.12 1120.6C13.26 1120.1 15.24 1118.4 16.44 1121.4C17.52 1120.9 18.84 1120.1 20.16 1121.4C20.46 1121.7 21.12 1120.7 21 1123.9C20.76 1125.4 20.52 1123.3 20.28 1123.1C18.18 1121.4 15 1124.4 12.66 1123.1C12.66 1121.4 12.36 1121.4 12.12 1120.6ZM12.3 711.8C12.3 711.2 12.3 710.7 12.3 710.1C12.18 706.8 12.9 709.4 13.02 710.1C13.74 710 14.52 710.2 15.18 710.9C16.74 712.7 18.48 715.8 20.22 717.6C21.66 719.1 23.16 719.3 24.54 722.6C26.22 722.9 27.42 725.8 28.98 726.8C28.2 729.8 27.12 728.6 26.1 727.6C25.74 727.3 25.44 727.1 25.08 726.8C24.78 726.5 24.48 725.4 24.24 725.1C22.74 723.8 21.18 724.5 20.34 720.9C19.86 722.3 19.8 720.7 19.2 720.9C17.4 717.5 15.18 716.5 13.56 711.7C12.96 711.7 12.78 713.3 12.3 711.8ZM12.6 721C12.48 717.8 13.56 719.2 13.32 721.8C12.96 722.1 12.72 721.7 12.6 721ZM13.02 1069.6C13.08 1068.4 13.44 1069.3 13.44 1067.9C14.52 1067.2 15.78 1068.5 16.92 1068.7C17.28 1068.8 17.64 1067.9 18.06 1067.9C19.74 1067.9 22.14 1068.9 24.12 1069.6C24.6 1069.8 25.26 1069.9 25.68 1070.4C25.98 1070.8 26.58 1071.4 26.7 1073.7C24.9 1075.3 21.78 1076.4 19.38 1075.4C19.08 1075.3 18.84 1074.5 18.54 1074.6C18.06 1074.7 17.7 1076 17.22 1076.3C16.2 1076.9 15.3 1075.1 14.34 1075.5C14.22 1072.9 14.76 1073.9 14.64 1071.3C14.04 1070.9 13.44 1070.6 13.02 1069.6ZM14.58 753.6C14.46 750.7 14.94 749.9 15.18 751.1C15.18 753.3 14.94 753.9 14.58 753.6ZM15 1107.2C15 1106.2 15.06 1105.7 15.12 1105.5C15.48 1104.4 15.78 1106.5 16.14 1106.3C16.32 1106.2 16.5 1104.6 16.98 1104.6C17.7 1104.6 18.48 1105.8 19.26 1106.3C19.68 1106.6 20.1 1106 20.58 1106.3C20.88 1106.5 21.24 1107.8 21.6 1108C21.84 1108.1 22.08 1107.2 22.32 1107.2C22.92 1107.1 23.46 1108.6 24.06 1108.9C27.54 1110.4 30.84 1107.6 32.82 1116.4C32.76 1121.5 31.68 1118.3 30.96 1118.1C29.64 1117.7 28.02 1118.3 27.06 1116.4C26.76 1114.7 26.76 1116.8 26.46 1117.2C25.8 1115.5 25.08 1115.4 24.42 1116.4C23.88 1114.4 23.16 1115.4 22.38 1114.7C22.14 1114.5 21.9 1113.3 21.66 1113C20.88 1112.2 20.04 1112.2 19.2 1111.3C18.12 1110.1 17.1 1108.8 16.2 1107.1C15.9 1108.3 15.42 1108.3 15 1107.2ZM15.6 753.6C15.6 752.8 15.6 751.9 15.6 751.1C16.2 749.9 16.8 751.9 17.46 751.9C18.12 751.9 18.66 750.9 19.32 751.1C20.58 751.5 21.78 753.8 22.92 754.4C22.02 757.8 19.86 756.1 19.02 753.6C18 755.9 16.86 752.7 15.6 753.6ZM16.32 979.3C16.38 976.6 17.28 977.4 17.16 980.1C16.74 980.8 16.68 979.3 16.32 979.3ZM16.32 960.9C16.26 959.3 16.98 958.2 17.04 960.1C17.16 963.1 16.44 961.6 16.32 960.9ZM17.76 1713.3C17.94 1710.8 18.9 1711.6 18.9 1715C18.42 1713.1 18.24 1714.6 17.76 1713.3ZM17.88 1150.7C17.7 1147.2 18.9 1147.2 18.72 1150.7C18.24 1150 18.18 1152.2 17.88 1150.7ZM18.6 786.2C18.84 784 19.32 785.8 19.74 786.2C20.16 786.5 20.94 785.5 20.88 788.7C19.98 788.8 19.68 787.6 18.84 788.7C18.9 787.3 18.78 786.6 18.6 786.2ZM19.2 937.5C19.2 936.7 19.2 935.8 19.2 935C19.62 935.1 20.04 935.3 19.92 938.3C19.5 939.1 19.56 937.2 19.2 937.5ZM20.34 1213.4C20.52 1209.5 22.14 1210.4 22.5 1212.6C22.02 1219.2 21.18 1210.2 20.34 1213.4ZM20.76 1575.3C20.64 1572.4 21.24 1572.3 21.48 1573.6C21.42 1575.4 21.06 1577.1 20.76 1575.3ZM21.36 1732.5C21.6 1731.2 22.02 1733.6 22.38 1734.2C22.38 1737.4 21 1736.3 21.36 1732.5ZM21.78 1576.2C21.78 1573 23.58 1574.6 23.94 1575.4C23.28 1578.1 22.62 1576.1 21.78 1576.2ZM22.68 945.1C22.74 944.4 22.8 943.6 22.98 943.4C24.24 943.3 25.56 943.1 26.28 945.9C27 944.7 27.6 943.6 28.14 946.7C28.14 950.4 27.42 947.5 27.12 947.5C26.88 947.5 26.82 948.4 26.52 948.3C25.32 948.1 23.82 945.7 22.68 945.1ZM23.1 1786C23.58 1786.2 24.06 1786.7 23.94 1790.2C23.7 1790.2 23.46 1790.2 23.22 1790.2C23.34 1787.8 23.04 1788 23.1 1786ZM23.1 1214.2C23.04 1212.9 23.22 1212.8 23.22 1211.7C23.58 1210.9 23.94 1212.4 24.24 1212.5C24.48 1212.6 24.6 1211.1 24.84 1211.7C24.84 1211.8 24.96 1213.4 24.96 1213.4C25.32 1213.5 25.8 1212.4 26.28 1212.6C26.82 1212.8 27.42 1213.4 28.02 1214.3C28.14 1217.3 27.42 1215.8 27.3 1215.1C26.88 1214.9 26.88 1217 26.46 1216.8C25.5 1213.2 24 1216.2 23.1 1214.2ZM23.4 1049.5C23.34 1045.9 24.18 1048.6 24.42 1048.7C24.3 1050.6 23.7 1049 23.4 1049.5ZM26.1 1717.4C26.1 1716.6 26.1 1715.7 26.1 1714.9C26.46 1713.2 27.3 1714.2 27.24 1717.4C26.88 1717.4 26.52 1717.4 26.1 1717.4ZM26.28 1824.4C26.4 1826.1 27.12 1823.9 27 1826.9C26.58 1827.1 26.16 1827.1 26.28 1824.4ZM26.28 1128.1C26.58 1126.4 26.88 1126.4 27.3 1127.3C27.3 1131.5 26.52 1129.2 26.28 1128.1ZM26.52 1014.4C26.94 1012.7 27.3 1014.8 27.96 1013.6C27.9 1016.2 27.24 1015.6 26.94 1016.9C26.88 1015.7 26.76 1014.9 26.52 1014.4ZM27.12 1708.3C28.32 1707 30.3 1710.4 30 1717.5C29.28 1717.5 28.56 1717.5 27.84 1717.5C27.72 1713.7 26.94 1713.8 27.12 1708.3ZM27.84 964.3C27.9 963.6 27.96 962.8 28.14 962.6C28.92 963.9 29.94 963.9 30.72 965.1C30.18 968.1 28.5 965.9 27.84 964.3ZM27.84 787.9C27.96 786.4 28.08 785 28.56 785.4C28.68 788.6 28.08 789.3 27.84 787.9ZM28.14 943.4C28.2 942.3 28.38 942.1 28.44 940.9C28.68 940.8 28.74 941.9 29.04 941.7C29.04 944.4 28.38 944.7 28.14 943.4ZM28.98 1048.7C28.86 1045.7 29.58 1047.2 29.7 1047.9C29.58 1050.7 29.46 1048.3 28.98 1048.7ZM28.98 947.6C29.04 944.5 29.76 945.1 30.12 945.9C30.12 948.5 29.4 947.3 28.98 947.6ZM29.4 1129C29.4 1128 29.46 1127.5 29.52 1127.3C29.88 1126.2 30.78 1126.2 31.56 1126.5C32.22 1126.7 33.18 1126.3 33 1129C33.12 1131.7 32.4 1130.6 32.16 1130.7C31.38 1131 30.54 1130.2 29.88 1129.9C29.64 1130 29.58 1129 29.4 1129ZM29.58 729.4C29.46 725.6 30.54 726.3 30.3 730.2C29.94 730.5 29.76 730.1 29.58 729.4ZM31.32 1077.1C31.62 1075.8 31.86 1074.1 32.16 1072.9C32.76 1075.1 34.44 1071.5 34.44 1077.1C33.6 1078.9 32.1 1079.8 31.32 1077.1ZM31.32 967.6C31.32 965.3 31.98 965.6 32.16 966.8C32.16 968.6 31.56 967.1 31.32 967.6ZM32.28 945.1C32.16 947.6 32.04 949.9 31.56 950.1C31.2 947.3 31.74 944.7 32.28 945.1ZM31.86 1015.3C31.98 1013.4 32.82 1014.6 32.7 1017C32.22 1017.6 32.1 1016 31.86 1015.3ZM32.76 1912.2C32.76 1918.7 33.84 1912.7 32.76 1912.2V1912.2ZM32.76 945.9C32.64 943.1 33.18 944.6 33.48 944.2C33.54 947.1 32.94 947.2 32.76 945.9ZM34.2 967.6C34.26 966.9 34.32 966.1 34.5 965.9C36.06 966.8 38.22 964.7 39.66 965.9C40.08 966.2 40.8 966 40.8 969.2C39.3 969.1 38.76 970 37.2 970C37.26 971.6 37.26 973.6 37.62 973.3C37.02 975.2 35.82 973.7 35.88 969.1C35.16 968.5 34.8 971.2 34.2 967.6Z" fill="#EBFF00"/>
<path fill-rule="evenodd" clip-rule="evenodd" d="M24.1199 1833.6C25.0799 1834.3 26.3399 1839.1 26.3999 1847.8C26.3399 1850 26.9399 1848.5 26.8199 1851.1C26.3999 1852.4 26.2799 1849.2 26.0999 1847.8C25.8599 1846.2 25.4999 1845.4 25.4999 1841.9C25.3199 1840.6 24.7799 1841 24.6599 1839.4C24.6599 1837.6 24.7799 1836.7 25.0799 1836.9C24.8999 1835 23.9999 1837.3 24.1199 1833.6Z" fill="#EBFF00"/>
</svg>
